<?xml version="1.0" standalone="no"?>
<!DOCTYPE svg PUBLIC "-//W3C//DTD SVG 1.1//EN" "http://www.w3.org/Graphics/SVG/1.1/DTD/svg11.dtd" >
<svg xmlns="http://www.w3.org/2000/svg" xmlns:xlink="http://www.w3.org/1999/xlink" version="1.1">
<metadata>
Created by FontForge 20170731 at Sun Nov  5 01:09:06 2017
 By Aleksey,,,
(C) 2016 Sharp Type Corporation
</metadata>
<defs>
<font id="SharpGroteskSmBold22-Regular" horiz-adv-x="981" >
  <font-face 
    font-family="Sharp Grotesk SmBold 22"
    font-weight="600"
    font-stretch="extra-expanded"
    units-per-em="1000"
    panose-1="2 11 7 5 5 7 2 3 2 4"
    ascent="800"
    descent="-200"
    x-height="580"
    cap-height="717"
    bbox="-94 -332 1827 1194"
    underline-thickness="50"
    underline-position="-200"
    unicode-range="U+0020-3009"
  />
<missing-glyph horiz-adv-x="57" 
 />
    <glyph glyph-name=".notdef" horiz-adv-x="57" 
 />
    <glyph glyph-name=".null" horiz-adv-x="0" 
 />
    <glyph glyph-name="nonmarkingreturn" horiz-adv-x="333" 
 />
    <glyph glyph-name="space" unicode=" " horiz-adv-x="269" 
 />
    <glyph glyph-name="exclam" unicode="!" horiz-adv-x="364" 
d="M64 717v-124q0 -88 8.5 -161t19.5 -121q5 -24 9.5 -40t8.5 -23q12 3 30 4t42 1q23 0 40.5 -1.5t29.5 -3.5q8 15 19 63.5t19 121.5q5 36 7 76t2 84v124h-235zM179 -14q66 0 94 24t28 85q0 62 -28.5 85t-93.5 23t-93.5 -23t-28.5 -85q0 -63 26 -86t96 -23z" />
    <glyph glyph-name="quotedbl" unicode="&#x22;" horiz-adv-x="511" 
d="M317 449h130q5 12 11.5 50t10.5 91q3 27 4 54t1 55v18h-183v-18q0 -55 4 -108.5t10 -91.5q3 -19 6 -31.5t6 -18.5zM65 449h130q5 12 11.5 50t10.5 91q3 27 4 54t1 55v18h-183v-18q0 -55 4 -108.5t10 -91.5q3 -19 6 -31.5t6 -18.5z" />
    <glyph glyph-name="numbersign" unicode="#" horiz-adv-x="975" 
d="M552 286h-155l25 142h155zM503 0h194l21 119h192v167h-163l25 142h176v168h-147l21 121h-195l-21 -121h-155l21 121h-197l-21 -121h-188v-168h159l-25 -142h-172v-167h143l-21 -119h197l21 119h156z" />
    <glyph glyph-name="dollar" unicode="$" horiz-adv-x="707" 
d="M452 -133v122q116 18 176 80t60 154q0 78 -36.5 122.5t-98.5 66.5q-31 11 -66.5 19t-74.5 13q-91 11 -131.5 24.5t-40.5 47.5q0 25 21.5 43t76.5 18q59 0 90 -19.5t37 -65.5h211v1q-11 97 -67 154.5t-156 76.5v136h-194v-132q-110 -17 -169 -77.5t-59 -145.5
q0 -76 34.5 -119.5t94.5 -65.5q29 -10 62.5 -18t70.5 -13q95 -12 141 -24.5t46 -52.5q0 -30 -26 -47.5t-82 -17.5q-64 0 -99 24.5t-41 72.5v3h-221v-1q10 -109 66.5 -173.5t180.5 -82.5v-123h194z" />
    <glyph glyph-name="percent" unicode="%" horiz-adv-x="869" 
d="M194 399q86 0 134.5 42t48.5 117v5q0 77 -48.5 120t-131.5 43t-133 -43t-50 -120v-5q0 -76 45 -117.5t135 -41.5zM2 0h241q17 23 54.5 66.5l87.5 101.5t107 123t115 130q57 66 108 124t90 103q19 23 33.5 40t23.5 29h-231q-17 -23 -55 -67.5t-89 -102.5t-109 -123
l-116 -130q-59 -65 -111 -123.5t-91 -102.5q-19 -22 -33.5 -39t-24.5 -29zM195 512q-24 0 -36.5 12.5t-12.5 36.5v2q0 26 13.5 38t36.5 12t36 -12.5t13 -37.5v-2q0 -24 -13.5 -36.5t-36.5 -12.5zM671 -9q86 0 134 41.5t48 117.5v5q0 77 -48.5 120t-131.5 43t-133 -43
t-50 -120v-5q0 -77 45 -118t136 -41zM671 104q-24 0 -36.5 12.5t-12.5 36.5v2q0 26 13.5 38t36.5 12q25 0 37 -12.5t12 -37.5v-2q0 -24 -13.5 -36.5t-36.5 -12.5z" />
    <glyph glyph-name="ampersand" unicode="&#x26;" horiz-adv-x="890" 
d="M376 514q0 37 19.5 58t51.5 21q27 0 41.5 -15t14.5 -38q0 -32 -27 -51.5t-89 -35.5q-5 17 -8 32.5t-3 28.5zM310 137q-51 0 -76.5 17.5t-25.5 52.5q0 29 19.5 47t65.5 32q14 -22 30 -43t34 -41l24 -26t23 -25q-23 -7 -46.5 -10.5t-47.5 -3.5zM735 -15q53 0 88 13t54 32
v148q-21 -20 -48 -32.5t-68 -12.5q-19 0 -39 4t-40 11q68 62 120.5 140.5t83.5 169.5h-175q-25 -67 -66.5 -125.5t-95.5 -102.5q-15 14 -30.5 29t-30.5 32q-10 11 -19.5 22.5t-17.5 21.5q112 38 162 88t50 127q0 78 -56.5 128.5t-157.5 50.5q-66 0 -119 -26t-84 -76
q-16 -25 -23.5 -55t-7.5 -66q0 -22 4.5 -46t12.5 -50q-65 -18 -114.5 -46t-77.5 -72q-13 -21 -20 -48t-7 -59q0 -102 76.5 -152t206.5 -50q60 0 120.5 16t117.5 46q49 -30 99 -45t102 -15z" />
    <glyph glyph-name="quotesingle" unicode="'" horiz-adv-x="261" 
d="M65 449h130q5 12 11.5 50t10.5 91q3 27 4 54t1 55v18h-183v-18q0 -55 4 -108.5t10 -91.5q3 -19 6 -31.5t6 -18.5z" />
    <glyph glyph-name="parenleft" unicode="(" horiz-adv-x="448" 
d="M40 264q0 -157 45.5 -251.5t132.5 -138.5q43 -22 96 -33.5t115 -13.5v193q-59 3 -97.5 28.5t-57.5 79.5q-10 28 -14.5 64.5t-4.5 81.5v30q0 95 18.5 152.5t56.5 84.5q19 13 44 21t55 10v185q-119 -4 -206.5 -50.5t-135.5 -144.5q-23 -48 -35 -111.5t-12 -141.5v-45z" />
    <glyph glyph-name="parenright" unicode=")" horiz-adv-x="448" 
d="M19 -173q125 3 211.5 47t132.5 138q22 48 33.5 111t11.5 141v45q0 156 -47.5 253.5t-134.5 143.5q-44 24 -95.5 36.5t-111.5 14.5v-186q61 -3 99 -30.5t57 -84.5q9 -29 13.5 -67t4.5 -85v-30q0 -91 -19 -145.5t-57 -80.5q-20 -12 -44 -19t-54 -9v-193z" />
    <glyph glyph-name="asterisk" unicode="*" horiz-adv-x="548" 
d="M439 389l78 135l-181 49l181 50l-80 136l-132 -132l49 181h-159l49 -181l-134 130l-78 -135l181 -49l-181 -50l79 -135l132 131l-48 -181h159l-49 182z" />
    <glyph glyph-name="plus" unicode="+" horiz-adv-x="628" 
d="M582 275v180h-180v173h-176v-173h-178v-180h178v-174h176v174h180z" />
    <glyph glyph-name="comma" unicode="," horiz-adv-x="353" 
d="M79 -180q112 5 166 67t54 172q0 83 -26.5 115t-94.5 32q-67 0 -95 -22.5t-28 -87.5q0 -44 9.5 -66.5t32.5 -29.5q11 -4 26 -6t34 -2q6 0 11.5 0.5t11.5 1.5q-7 -40 -31.5 -58.5t-70.5 -22.5z" />
    <glyph glyph-name="hyphen" unicode="-" horiz-adv-x="574" 
d="M532 403h-489v-195h489v195z" />
    <glyph glyph-name="period" unicode="." horiz-adv-x="351" 
d="M175 -13q66 0 94.5 24t28.5 90q0 69 -29 92t-94 23t-93.5 -23t-28.5 -92q0 -46 11 -70.5t37 -34.5q14 -4 32.5 -6.5t41.5 -2.5z" />
    <glyph glyph-name="slash" unicode="/" horiz-adv-x="445" 
d="M222 0l231 717h-228l-232 -717h229z" />
    <glyph glyph-name="zero" unicode="0" horiz-adv-x="777" 
d="M388 -17q106 0 186 38.5t125 115.5q23 39 34 88t11 108v47q0 115 -45.5 193.5t-125.5 119.5q-40 20 -86 30t-98 10q-107 0 -187 -40.5t-125 -119.5q-22 -40 -33 -88t-11 -106v-45q0 -178 94.5 -264.5t260.5 -86.5zM388 167q-70 0 -105.5 43t-35.5 128v36q0 88 35.5 131.5
t105.5 43.5q71 0 106 -44t35 -132v-35q0 -88 -36 -129.5t-105 -41.5z" />
    <glyph glyph-name="one" unicode="1" horiz-adv-x="565" 
d="M543 0v192h-151v525h-167q-16 -56 -52 -85.5t-100 -35.5v-147h117v-257h-163v-192h516z" />
    <glyph glyph-name="two" unicode="2" horiz-adv-x="717" 
d="M686 0v182h-427q8 20 35 33.5t68 25.5q21 6 44 13t48 14q63 19 117.5 46.5t88.5 72.5q16 22 24.5 51t8.5 64q0 103 -76.5 166t-240.5 63q-169 0 -253 -68.5t-86 -198.5v-20h209v14q0 48 30.5 75.5t98.5 27.5q56 0 83.5 -18t27.5 -55q0 -26 -23.5 -43.5t-63.5 -31.5
q-20 -6 -43 -13t-48 -14q-51 -13 -100 -31t-90 -45q-40 -27 -64 -67.5t-24 -100.5v-142h656z" />
    <glyph glyph-name="three" unicode="3" horiz-adv-x="732" 
d="M359 -16q170 0 258 61t88 165q0 73 -36.5 110t-98.5 51q59 17 90 54t31 100q0 95 -81 150.5t-237 55.5q-164 0 -252.5 -63.5t-90.5 -191.5v-12h205v7q0 41 30 64.5t96 23.5q61 0 88.5 -18.5t27.5 -50.5q0 -31 -24 -45.5t-82 -14.5h-79v-134h80q62 0 88 -13t26 -48
q0 -33 -30.5 -52.5t-97.5 -19.5q-69 0 -97.5 21.5t-28.5 68.5v7h-211v-13q0 -87 31.5 -145.5t105.5 -87.5q37 -15 87 -22.5t114 -7.5z" />
    <glyph glyph-name="four" unicode="4" horiz-adv-x="742" 
d="M407 304v182l-175 -182h175zM727 138h-117v-138h-203v138h-395v142l411 437h187v-413h117v-166z" />
    <glyph glyph-name="five" unicode="5" horiz-adv-x="720" 
d="M362 -15q164 0 248 68t84 189q0 115 -67.5 178t-193.5 63q-70 0 -118 -20.5t-79 -54.5q5 31 10 68t9 71h217q63 0 102 6t59 24q20 17 27 51t7 89h-579l-52 -386l197 -49l6 4q20 24 53 39.5t81 15.5q53 0 82 -22t29 -67t-31 -69t-87 -24q-57 0 -86.5 21.5t-32.5 55.5v3
h-224v-1q4 -79 39 -136t108 -87q37 -15 85 -22.5t107 -7.5z" />
    <glyph glyph-name="six" unicode="6" horiz-adv-x="750" 
d="M724 231q0 107 -64.5 161.5t-187.5 54.5q-82 0 -139 -26t-89 -64v21q0 90 35.5 135t111.5 45q53 0 77 -18t31 -50h220q-16 121 -97.5 181.5t-228.5 60.5q-172 0 -267 -89t-95 -267v-45q0 -174 87.5 -261t271.5 -87q103 0 178 29.5t115 85.5q21 27 31 60.5t10 72.5z
M388 165q-57 0 -89 21t-45 66q20 28 57.5 46t86.5 18q56 0 84.5 -16.5t28.5 -55.5q0 -36 -29 -57.5t-94 -21.5z" />
    <glyph glyph-name="seven" unicode="7" horiz-adv-x="666" 
d="M337 0q44 166 128.5 308t193.5 252v157h-644v-191h384q-42 -42 -88.5 -99t-90.5 -125q-44 -69 -80.5 -145t-59.5 -157h257z" />
    <glyph glyph-name="eight" unicode="8" horiz-adv-x="734" 
d="M365 -15q171 0 259 54t88 159q0 65 -33 106t-89 60q50 19 78 56t28 96q0 102 -84.5 158.5t-242.5 56.5q-159 0 -242 -57t-83 -158q0 -60 26.5 -97.5t76.5 -55.5q-58 -22 -92 -64t-34 -104q0 -109 87 -159.5t257 -50.5zM359 423q-58 0 -85.5 15.5t-27.5 47.5q0 33 30 51.5
t94 18.5q65 0 94.5 -18.5t29.5 -50.5t-29 -48t-88 -16h-18zM368 165q-69 0 -101.5 16.5t-32.5 51.5q0 32 32.5 49.5t90.5 17.5h21q62 -1 94 -16t32 -50q0 -34 -34 -51.5t-102 -17.5z" />
    <glyph glyph-name="nine" unicode="9" horiz-adv-x="748" 
d="M354 397q-56 0 -84 17t-28 55q0 39 29.5 62.5t91.5 23.5t95.5 -24t44.5 -76q-22 -25 -60.5 -41.5t-88.5 -16.5zM362 -17q175 0 264.5 88t89.5 265v46q0 172 -87 261t-266 89q-108 0 -183 -32.5t-114 -90.5q-19 -29 -29 -62t-10 -71q0 -109 68.5 -159t191.5 -50
q79 0 134.5 24.5t87.5 63.5v-30q0 -88 -34.5 -129t-108.5 -41q-51 1 -79.5 19t-34.5 54h-225q14 -126 98 -185.5t237 -59.5z" />
    <glyph glyph-name="colon" unicode=":" horiz-adv-x="354" 
d="M177 360q68 0 95 21.5t27 88.5q0 46 -12 69.5t-39 32.5q-13 5 -31 7t-40 2q-44 0 -71 -9t-38 -33q-6 -12 -9 -29t-3 -40q0 -45 10.5 -69t36.5 -32q13 -5 31.5 -7t42.5 -2zM177 8q45 0 72 8.5t38 32.5q6 12 9 29t3 39q0 46 -12 69.5t-39 32.5q-13 5 -31 7t-40 2
q-44 0 -71 -9t-38 -33q-6 -12 -9 -29t-3 -40q0 -46 10.5 -69.5t36.5 -31.5q13 -4 31.5 -6t42.5 -2z" />
    <glyph glyph-name="semicolon" unicode=";" horiz-adv-x="357" 
d="M177 360q68 0 95 22.5t27 87.5q0 67 -27.5 89t-94.5 22t-94 -22.5t-27 -88.5q0 -45 10.5 -68.5t36.5 -32.5q13 -5 31.5 -7t42.5 -2zM82 -178q112 5 165.5 66t53.5 171q0 81 -26 113t-94 32q-67 0 -95.5 -22.5t-28.5 -87.5q0 -43 10 -65t33 -29q11 -4 26 -6t33 -2
q6 0 11.5 0.5t10.5 1.5q-6 -40 -30 -58.5t-70 -22.5z" />
    <glyph glyph-name="less" unicode="&#x3c;" horiz-adv-x="630" 
d="M554 71v195l-262 93l262 92v190l-482 -200v-170z" />
    <glyph glyph-name="equal" unicode="=" horiz-adv-x="646" 
d="M569 428v170h-491v-170h491zM569 137v170h-491v-170h491z" />
    <glyph glyph-name="greater" unicode="&#x3e;" horiz-adv-x="630" 
d="M77 71l482 200v170l-482 200v-190l261 -92l-261 -93v-195z" />
    <glyph glyph-name="question" unicode="?" horiz-adv-x="727" 
d="M439 219l3 24q5 38 38 54t80 34q35 13 65 33t48 55q9 17 13.5 39.5t4.5 50.5q0 64 -33.5 114t-104.5 79q-35 14 -80.5 21.5t-101.5 7.5q-166 0 -250 -64.5t-87 -194.5v-19h209v13q0 47 29.5 71t98.5 24q62 0 86.5 -17.5t24.5 -46.5q0 -31 -28 -45t-73 -27
q-36 -10 -67 -26t-50 -44q-9 -14 -14 -33t-5 -42v-8.5t1 -10.5q0 -11 1.5 -23t2.5 -19q11 7 34.5 11t60.5 4t59 -4t35 -11zM345 -13q70 0 98.5 22t28.5 80t-29.5 79.5t-97.5 21.5t-97 -21.5t-29 -79.5q0 -59 26.5 -80.5t99.5 -21.5z" />
    <glyph glyph-name="at" unicode="@" horiz-adv-x="831" 
d="M417 -123q110 0 193 41.5t131 121.5l-147 22q-28 -32 -68 -50t-108 -18q-136 0 -201.5 74.5t-65.5 201.5v31q0 136 72.5 207.5t202.5 71.5q97 0 153 -30.5t80 -84.5q12 -27 18 -57.5t6 -64.5v-1q0 -80 -11.5 -109t-34.5 -29q-20 0 -28 16t-8 61v197h-86l-23 -57
q-13 29 -43 46.5t-71 17.5q-70 0 -113 -47.5t-43 -138.5v-27q0 -89 38.5 -136.5t114.5 -47.5q47 0 77.5 19.5t44.5 50.5q17 -32 50.5 -48.5t82.5 -16.5q86 0 130.5 61t44.5 191v2q0 98 -41.5 177.5t-125.5 126.5q-42 24 -94.5 35.5t-116.5 11.5q-118 0 -208 -46.5
t-140 -133.5q-25 -44 -37.5 -96.5t-12.5 -113.5v-47q0 -131 48.5 -216t135.5 -127q44 -20 95 -30.5t109 -10.5zM413 202q-31 0 -44.5 18.5t-13.5 54.5v22q0 39 15 58t44 19q28 0 41.5 -18.5t13.5 -56.5v-26q0 -34 -12.5 -52.5t-43.5 -18.5z" />
    <glyph glyph-name="A" unicode="A" horiz-adv-x="764" 
d="M461 282h-159l79 224zM562 0h211l-281 717h-221l-280 -717h213l44 125h269z" />
    <glyph glyph-name="B" unicode="B" horiz-adv-x="737" 
d="M412 0q153 0 229.5 52.5t76.5 156.5q0 68 -31.5 106t-93.5 55q53 19 80 56.5t27 100.5v2q0 95 -73.5 141.5t-236.5 46.5h-334v-717h356zM390 561q56 0 80 -14t24 -47v-1q0 -34 -25.5 -48.5t-77.5 -14.5h-132v125h131zM382 298q69 0 95.5 -15t26.5 -50v-1q0 -34 -25.5 -50
t-99.5 -16h-120v132h123z" />
    <glyph glyph-name="C" unicode="C" horiz-adv-x="776" 
d="M388 -17q169 0 263 77.5t104 234.5v11h-222v-8q-6 -61 -38.5 -94.5t-100.5 -33.5q-74 0 -111 42t-37 126v37q0 89 38.5 131.5t111.5 42.5q65 0 97.5 -31.5t38.5 -89.5v-6h220v13q-12 151 -106.5 224.5t-250.5 73.5q-109 0 -190.5 -40t-126.5 -118q-22 -39 -33.5 -87.5
t-11.5 -105.5v-55q0 -177 93 -260.5t262 -83.5z" />
    <glyph glyph-name="D" unicode="D" horiz-adv-x="755" 
d="M56 0h309q107 0 187.5 36t125.5 110q23 37 34 84.5t11 104.5v46q0 116 -45.5 190t-126.5 110q-41 18 -88 27t-101 9h-306v-717zM351 543q80 0 120.5 -40t40.5 -131v-26q0 -88 -40 -128.5t-119 -40.5h-91v366h89z" />
    <glyph glyph-name="E" unicode="E" horiz-adv-x="677" 
d="M647 175h-391v112h341v151h-341v111h379v168h-579v-717h591v175z" />
    <glyph glyph-name="F" unicode="F" horiz-adv-x="643" 
d="M602 233v176h-346v128h358v180h-558v-717h200v233h346z" />
    <glyph glyph-name="G" unicode="G" horiz-adv-x="783" 
d="M567 0h172v387h-367v-128h160q-7 -46 -41.5 -74t-99.5 -28q-76 0 -111 41t-34 133v42q0 92 36.5 135t111.5 43q62 0 90.5 -26t34.5 -73h220v3q-10 140 -98 209t-245 69q-110 0 -192 -40t-126 -119q-23 -39 -34 -88.5t-11 -108.5v-53q0 -176 73 -258.5t214 -82.5
q106 0 162 52.5t70 141.5z" />
    <glyph glyph-name="H" unicode="H" horiz-adv-x="777" 
d="M515 0h206v717h-206v-264h-251v264h-208v-717h208v262h251v-262z" />
    <glyph glyph-name="I" unicode="I" horiz-adv-x="558" 
d="M523 0v189h-144v342h144v186h-488v-186h144v-342h-144v-189h488z" />
    <glyph glyph-name="J" unicode="J" horiz-adv-x="673" 
d="M318 -17q152 0 229.5 76.5t77.5 245.5v412h-213v-412q0 -78 -22 -107t-72 -29t-70 26.5t-21 84.5v21h-215v-24q2 -157 78.5 -225.5t227.5 -68.5z" />
    <glyph glyph-name="K" unicode="K" horiz-adv-x="762" 
d="M534 0h233l-254 444l246 273h-249l-250 -278v278h-204v-717h204v202l102 111z" />
    <glyph glyph-name="L" unicode="L" horiz-adv-x="633" 
d="M611 0v197h-342v520h-213v-717h555z" />
    <glyph glyph-name="M" unicode="M" horiz-adv-x="875" 
d="M425 199h20l175 220v-419h199v716h-183l-197 -256l-195 257h-188v-717h200v417z" />
    <glyph glyph-name="N" unicode="N" horiz-adv-x="799" 
d="M553 0h190v717h-195v-414l-295 414h-197v-717h196v423z" />
    <glyph glyph-name="O" unicode="O" horiz-adv-x="783" 
d="M391 -17q108 0 188.5 38t125.5 115q23 39 34 88t11 108v48q0 116 -45.5 194.5t-126.5 118.5q-41 20 -87 30t-99 10q-107 0 -188 -40.5t-126 -119.5q-22 -40 -33.5 -88t-11.5 -106v-47q0 -179 95 -264t263 -85zM391 167q-72 0 -108 43t-36 128v36q0 88 36 131.5t108 43.5
q71 0 108 -43t37 -133v-35q0 -88 -37 -129.5t-108 -41.5z" />
    <glyph glyph-name="P" unicode="P" horiz-adv-x="729" 
d="M378 546q62 0 92.5 -21.5t30.5 -70.5q0 -45 -30.5 -67.5t-91.5 -22.5h-122v182h121zM386 196q164 -1 242 67t78 192t-78 193t-248 69h-324v-717h201v196h129z" />
    <glyph glyph-name="Q" unicode="Q" horiz-adv-x="782" 
d="M704 -125l-100 163q68 41 106.5 114.5t38.5 180.5v46q0 116 -46 194.5t-127 119.5q-40 20 -86 30t-98 10q-108 0 -188.5 -40.5t-125.5 -119.5q-23 -40 -34 -88t-11 -106v-46q0 -180 95 -264.5t261 -84.5h13t13 1l57 -110h232zM390 167q-72 0 -108 43t-36 128v36
q0 88 36.5 131.5t108.5 43.5q71 0 107.5 -43t36.5 -133v-35q0 -88 -37 -129.5t-108 -41.5z" />
    <glyph glyph-name="R" unicode="R" horiz-adv-x="737" 
d="M388 549q56 0 82.5 -18.5t26.5 -57.5v-3q0 -40 -29 -59.5t-82 -19.5h-127v158h129zM370 226q61 0 85 -20.5t24 -76.5v-84q0 -14 4.5 -26.5t14.5 -18.5h214q-10 6 -15 17.5t-5 27.5v87q0 74 -25 115.5t-78 60.5q57 23 86.5 67t29.5 114q0 73 -31 123.5t-101 77.5
q-34 14 -80 20.5t-104 6.5h-333v-717h203v226h111z" />
    <glyph glyph-name="S" unicode="S" horiz-adv-x="710" 
d="M364 -17q166 0 246 66.5t80 174.5q0 78 -36.5 122t-99.5 65q-31 11 -66.5 19t-75.5 13q-91 11 -132.5 24t-41.5 47q0 26 22.5 43.5t78.5 17.5q61 0 92.5 -19t37.5 -64v-1h212v1q-13 124 -97 183t-240 59q-154 0 -234 -63.5t-80 -165.5q0 -76 34.5 -119t94.5 -65
q30 -10 63.5 -18t71.5 -13q95 -12 142 -25t47 -52q0 -29 -26 -47t-83 -18q-65 0 -101.5 23.5t-41.5 73.5v2h-221v-1q7 -85 42.5 -144t110.5 -89q38 -15 88 -22.5t113 -7.5z" />
    <glyph glyph-name="T" unicode="T" horiz-adv-x="666" 
d="M641 532v185h-615v-185h201v-532h208v532h206z" />
    <glyph glyph-name="U" unicode="U" horiz-adv-x="756" 
d="M378 -17q157 0 243 84t86 271v379h-215v-374q0 -92 -26.5 -128.5t-86.5 -36.5q-58 0 -87 37.5t-29 127.5v374h-214v-379q0 -185 79.5 -270t249.5 -85z" />
    <glyph glyph-name="V" unicode="V" horiz-adv-x="734" 
d="M474 0l267 717h-216l-158 -458l-156 458h-218l261 -717h220z" />
    <glyph glyph-name="W" unicode="W" horiz-adv-x="1101" 
d="M680 0h195l230 717h-207l-129 -431l-140 431h-162l-155 -426l-106 426h-209l193 -717h193l158 415z" />
    <glyph glyph-name="X" unicode="X" horiz-adv-x="740" 
d="M519 0h235l-260 381l238 336h-231l-130 -194l-128 194h-231l236 -339l-264 -378h241l148 219z" />
    <glyph glyph-name="Y" unicode="Y" horiz-adv-x="695" 
d="M448 0v278l263 439h-224l-143 -246l-136 246h-224l251 -437v-280h213z" />
    <glyph glyph-name="Z" unicode="Z" horiz-adv-x="697" 
d="M664 0v186h-341l340 372v159h-613v-182h340l-361 -391v-144h635z" />
    <glyph glyph-name="bracketleft" unicode="[" horiz-adv-x="443" 
d="M423 -11h-162v607h162v158h-365v-924h365v159z" />
    <glyph glyph-name="backslash" unicode="\" horiz-adv-x="445" 
d="M-9 717l240 -717h223l-240 717h-223z" />
    <glyph glyph-name="bracketright" unicode="]" horiz-adv-x="443" 
d="M386 -170v923h-365v-157h162v-607h-162v-159h365z" />
    <glyph glyph-name="asciicircum" unicode="^" horiz-adv-x="623" 
d="M388 395h156l-162 322h-139l-164 -322h155l78 176z" />
    <glyph glyph-name="uni005F" unicode="_" horiz-adv-x="715" 
d="M695 -78h-676v-181h676v181z" />
    <glyph glyph-name="grave" unicode="`" horiz-adv-x="587" 
d="M294 663h139l-132 206h-196z" />
    <glyph glyph-name="a" unicode="a" horiz-adv-x="707" 
d="M311 123q-35 0 -52.5 11.5t-17.5 34.5v1q0 13 6 23.5t18 18.5q14 8 36 13.5t67 11.5q35 6 58 13t36 18v-24q0 -30 -20 -58t-54 -45q-17 -9 -36 -13.5t-41 -4.5zM489 0h172v359q0 116 -70 175.5t-228 59.5q-150 0 -231.5 -59.5t-90.5 -166.5h209q2 38 29.5 58t87.5 20
q54 0 74 -15t20 -38q0 -25 -30.5 -35.5t-111.5 -18.5q-57 -7 -95.5 -13.5t-65.5 -14.5q-13 -5 -26 -10.5t-26 -12.5q-40 -22 -61.5 -58t-21.5 -88q0 -76 51.5 -117.5t154.5 -41.5q94 0 152.5 35t86.5 88z" />
    <glyph glyph-name="b" unicode="b" horiz-adv-x="730" 
d="M442 -14q75 0 133.5 34.5t92.5 101.5q17 34 25.5 75t8.5 90v11q0 99 -32.5 164t-90.5 98q-29 16 -62 24t-71 8q-67 0 -116.5 -27.5t-76.5 -78.5v282h-202v-768h180l13 93q25 -49 73.5 -78t124.5 -29zM373 154q-58 0 -91 33.5t-33 101.5v8q0 62 33.5 97t91.5 35
q57 0 89.5 -33.5t32.5 -99.5v-9q0 -68 -31.5 -100.5t-91.5 -32.5z" />
    <glyph glyph-name="c" unicode="c" horiz-adv-x="711" 
d="M358 -17q152 0 240 67.5t94 200.5v3h-215v-1q-6 -50 -35 -75t-82 -25q-59 0 -91 32.5t-32 95.5v9q0 69 33 103t91 34q53 0 81 -23.5t35 -73.5v-2h215v1q-8 131 -96 198t-236 67q-99 0 -173.5 -36t-115.5 -104q-21 -34 -31.5 -75t-10.5 -89v-10q0 -143 81 -220t248 -77z
" />
    <glyph glyph-name="d" unicode="d" horiz-adv-x="732" 
d="M357 154q-58 0 -89.5 32t-31.5 102v8q0 67 31 100t92 33q56 0 89.5 -34.5t33.5 -98.5v-8q0 -67 -33 -100.5t-92 -33.5zM503 0h177v768h-201v-275q-25 47 -72 73t-117 26q-76 0 -135 -33t-93 -98q-16 -33 -24.5 -74t-8.5 -90v-10q0 -99 33 -165.5t91 -100.5
q29 -16 62.5 -24.5t71.5 -8.5q77 0 126 30.5t74 82.5z" />
    <glyph glyph-name="e" unicode="e" horiz-adv-x="723" 
d="M368 445q56 0 86.5 -24t38.5 -71h-260q11 46 44 70.5t91 24.5zM692 184h-219q-12 -22 -36 -35.5t-69 -13.5q-62 0 -95.5 25.5t-41.5 74.5h465v61q0 84 -34.5 151.5t-107.5 106.5q-36 20 -82.5 30t-103.5 10q-109 0 -184.5 -38.5t-115.5 -108.5q-19 -34 -29 -74.5
t-10 -86.5v-10q0 -87 33 -153t106 -103q36 -19 84 -28t107 -9q142 0 223 52t110 149z" />
    <glyph glyph-name="f" unicode="f" horiz-adv-x="474" 
d="M457 366v173h-144v10q0 51 14 67t58 16h73v161h-102q-87 0 -139.5 -21t-75.5 -70q-12 -24 -18 -56t-6 -73v-34h-107v-173h107v-366h195l1 366h144z" />
    <glyph glyph-name="g" unicode="g" horiz-adv-x="685" 
d="M689 -36v2q0 86 -61.5 130.5t-198.5 44.5h-148q-59 0 -80 5.5t-21 19.5q0 11 8.5 17.5t33.5 10.5q12 1 30.5 2t43.5 1h58q153 0 229 49t76 146v3q0 73 -44.5 115.5t-134.5 55.5q-3 1 -6 1t-6 1q79 0 121.5 8t58.5 34q9 13 13 32.5t4 46.5v16h-219v-24q0 -38 -7 -57.5
t-28 -26.5q-10 -3 -25 -5t-35 -3l-22 -1q-141 -2 -216.5 -52t-75.5 -142v-1q0 -65 32.5 -103.5t98.5 -55.5q-73 -12 -109.5 -44t-36.5 -85q0 -51 35 -79.5t105 -35.5q-78 -11 -113 -40t-35 -73q0 -40 26.5 -67.5t91.5 -41.5q33 -8 79 -11.5t105 -3.5h26q182 0 264.5 55
t82.5 156zM348 323q-55 0 -82.5 15t-27.5 50v2q0 36 27 53.5t80 17.5h6q56 0 83.5 -16t27.5 -54v-2q0 -33 -28.5 -49.5t-85.5 -16.5zM334 -111q-71 0 -100.5 12.5t-29.5 34.5v1q0 24 26.5 36.5t78.5 13.5h105q59 0 78 -11t19 -31v-1q0 -24 -32.5 -39.5t-116.5 -15.5h-28z
" />
    <glyph glyph-name="h" unicode="h" horiz-adv-x="712" 
d="M255 282q0 67 25 103t82 36q56 0 76.5 -34.5t20.5 -92.5v-294h206v355q0 113 -54 176t-164 63q-68 0 -117 -29.5t-76 -79.5v283h-203v-768h204v282z" />
    <glyph glyph-name="i" unicode="i" horiz-adv-x="315" 
d="M159 615q62 0 92 22t30 74q0 54 -31.5 75.5t-90.5 21.5q-60 0 -91 -21.5t-31 -75.5t28 -75t94 -21zM52 0h212v577q-6 -4 -24.5 -7.5t-40.5 -5.5q-12 -1 -22 -1.5t-19 -0.5q-17 0 -40 1.5t-42 5.5q-9 1 -15 3.5t-9 4.5v-577z" />
    <glyph glyph-name="j" unicode="j" horiz-adv-x="313" 
d="M158 615q62 0 91.5 22t29.5 74q0 54 -31 75.5t-90 21.5q-60 0 -90.5 -21.5t-30.5 -75.5t27.5 -75t93.5 -21zM-71 -258h92q72 0 119 10t74 34q26 25 37 68.5t11 110.5v612q-6 -4 -24 -7.5t-40 -5.5q-11 -1 -21 -1.5t-19 -0.5q-17 0 -39.5 1.5t-41.5 5.5q-9 1 -15 3.5
t-9 4.5v-573q0 -39 -5.5 -58.5t-22.5 -25.5q-9 -3 -21.5 -4.5t-28.5 -1.5h-46v-172z" />
    <glyph glyph-name="k" unicode="k" horiz-adv-x="699" 
d="M483 0h232l-220 357l212 223h-241l-213 -224v412h-202v-768h202v155l86 91z" />
    <glyph glyph-name="l" unicode="l" horiz-adv-x="309" 
d="M259 0v768h-207v-768h207z" />
    <glyph glyph-name="m" unicode="m" horiz-adv-x="1078" 
d="M257 280q0 64 20.5 102t73.5 38q37 0 56 -16.5t26 -44.5q4 -14 5.5 -30.5t1.5 -34.5v-294h205v286q0 60 19.5 97t71.5 37q55 0 73 -35t18 -93v-292h204v353q0 113 -52.5 177t-160.5 64q-72 0 -121 -32.5t-73 -87.5q-22 57 -69 88.5t-122 31.5q-71 0 -119 -32.5t-72 -86.5
l-18 105h-173v-580h206v280z" />
    <glyph glyph-name="n" unicode="n" horiz-adv-x="716" 
d="M259 282q0 67 24.5 102.5t82.5 35.5q56 0 76.5 -32.5t20.5 -92.5v-295h206v354q0 113 -57 176.5t-165 63.5q-76 0 -126.5 -34t-75.5 -91l-19 111h-175v-580h208v282z" />
    <glyph glyph-name="o" unicode="o" horiz-adv-x="719" 
d="M358 -17q158 0 245.5 77.5t87.5 219.5v10q0 97 -40.5 164.5t-115.5 103.5q-37 18 -80.5 27t-94.5 9q-99 0 -173.5 -36t-116.5 -104q-20 -34 -30.5 -75t-10.5 -89v-10q0 -143 81 -220t248 -77zM360 153q-60 0 -92.5 32.5t-32.5 95.5v9q0 69 33.5 103t92.5 34q62 0 93 -34
t31 -103v-9q0 -64 -32.5 -96t-92.5 -32z" />
    <glyph glyph-name="p" unicode="p" horiz-adv-x="731" 
d="M373 152q-58 0 -90.5 33t-32.5 96v8q0 68 33 103t91 35t90.5 -33.5t32.5 -104.5v-9q0 -64 -31 -96t-93 -32zM443 -12q72 0 131 32.5t94 96.5q18 33 26.5 73.5t8.5 88.5v10q0 149 -70 226t-189 77q-74 0 -125 -31t-77 -84l-17 103h-174v-780h202v286q25 -46 71 -72
t119 -26z" />
    <glyph glyph-name="q" unicode="q" horiz-adv-x="731" 
d="M680 -200v780h-173l-17 -101q-26 53 -76 83t-124 30q-119 0 -190 -78t-71 -226v-11q0 -98 34 -162.5t93 -95.5q29 -15 62 -23t69 -8q74 0 121 27t71 74v-289h201zM357 152q-58 0 -89.5 32t-31.5 96v9q0 71 31.5 104.5t91.5 33.5q57 0 90 -35t33 -104v-8
q0 -61 -32.5 -94.5t-92.5 -33.5z" />
    <glyph glyph-name="r" unicode="r" horiz-adv-x="510" 
d="M263 0v227q0 57 12 90t43 47q16 7 39 10.5t52 3.5h81v210h-45q-86 0 -134.5 -35.5t-64.5 -110.5l-26 138h-169v-580h212z" />
    <glyph glyph-name="s" unicode="s" horiz-adv-x="656" 
d="M333 -17q105 0 173 26.5t100 72.5q17 23 25 49.5t8 56.5q0 65 -32.5 100.5t-91.5 51.5q-29 8 -64 14t-75 9q-79 7 -115.5 15.5t-36.5 32.5q0 20 19 33t69 13t79 -15t37 -45h205q-22 95 -97 146.5t-220 51.5q-142 0 -214.5 -54.5t-72.5 -143.5q0 -65 32.5 -100.5
t90.5 -50.5q29 -8 63 -13.5t72 -8.5q78 -6 116 -14.5t38 -34.5q0 -22 -21.5 -35t-71.5 -13q-56 0 -86 16t-41 50h-215q17 -106 100.5 -158t226.5 -52z" />
    <glyph glyph-name="t" unicode="t" horiz-adv-x="509" 
d="M483 179h-62q-45 0 -67.5 7.5t-30.5 31.5q-4 12 -6 30.5t-2 43.5v113h168v175h-168v151h-164q-1 -21 -2.5 -45t-6.5 -44q-7 -32 -19.5 -46t-39.5 -19q-17 -4 -34.5 -5.5t-39.5 -2.5v-164h113v-144q0 -95 20.5 -152.5t72.5 -83.5q26 -12 63 -18.5t85 -6.5h120v179z" />
    <glyph glyph-name="u" unicode="u" horiz-adv-x="702" 
d="M477 0h174v580h-208v-286q0 -61 -22.5 -97t-75.5 -36q-55 0 -74 32.5t-19 90.5v296h-205v-354q0 -113 53.5 -176t161.5 -63q77 0 125 34t70 92z" />
    <glyph glyph-name="v" unicode="v" horiz-adv-x="676" 
d="M431 0l254 580h-217l-133 -351l-129 351h-216l243 -580h198z" />
    <glyph glyph-name="w" unicode="w" horiz-adv-x="962" 
d="M591 0h179l198 580h-199l-105 -333l-121 333h-133l-129 -332l-87 332h-202l169 -580h184l129 309z" />
    <glyph glyph-name="x" unicode="x" horiz-adv-x="690" 
d="M465 0h236l-230 302l217 278h-233l-105 -142l-105 142h-235l218 -278l-239 -302h243l117 160z" />
    <glyph glyph-name="y" unicode="y" horiz-adv-x="675" 
d="M133 -230q63 0 105 7.5t72 28.5q30 22 56 63t56 108l268 603h-211l-136 -336l-138 336h-217l251 -551l-8 -18q-13 -29 -26.5 -45t-35.5 -22q-10 -4 -24.5 -5.5t-32.5 -1.5h-81v-167h102z" />
    <glyph glyph-name="z" unicode="z" horiz-adv-x="637" 
d="M612 0l1 162h-315l312 266v152h-569v-158h310l-327 -278v-144h588z" />
    <glyph glyph-name="braceleft" unicode="{" horiz-adv-x="482" 
d="M464 -170v156h-65q-43 0 -62 12.5t-19 37.5q0 15 10 32.5t23 37.5t23 42t10 46q0 25 -13.5 46.5t-45.5 35.5q-16 6 -38 9.5t-50 3.5v17q57 0 88.5 12.5t43.5 34.5q7 10 10 22t3 25q0 24 -10.5 44.5t-23.5 38.5t-23.5 34t-10.5 29q0 26 20 40t64 14h66v154h-187
q-66 0 -104.5 -17.5t-55.5 -47.5q-8 -15 -12 -32.5t-4 -37.5q0 -29 10.5 -54t24.5 -47q13 -23 23.5 -42t10.5 -36q0 -27 -15.5 -40.5t-53.5 -13.5h-79v-177h88q35 0 52.5 -14t17.5 -43q0 -16 -12.5 -36.5t-28.5 -44.5t-28.5 -51t-12.5 -56q0 -40 16.5 -70t54.5 -47
q19 -8 45.5 -12.5t59.5 -4.5h190z" />
    <glyph glyph-name="bar" unicode="|" horiz-adv-x="335" 
d="M269 -57v836h-203v-836h203z" />
    <glyph glyph-name="braceright" unicode="}" horiz-adv-x="482" 
d="M19 -170h189q99 0 137.5 37.5t38.5 96.5q0 29 -12 56t-28 51q-17 24 -29 45t-12 37q0 28 18 42t53 14h87v177h-82q-37 0 -52.5 13.5t-15.5 41.5q0 17 11 36t25 41t25 47t11 54q0 39 -16.5 69.5t-54.5 48.5q-19 8 -45.5 12.5t-59.5 4.5h-188v-154h66q44 0 64 -13.5
t20 -38.5q0 -15 -10.5 -31t-23.5 -34t-23.5 -38.5t-10.5 -43.5q0 -26 12.5 -48t44.5 -34q15 -7 37 -10t50 -3v-18q-56 1 -88 -12t-45 -35q-6 -10 -9.5 -21.5t-3.5 -24.5q0 -24 10 -46.5t23 -42.5t23 -37t10 -31q0 -27 -19 -39.5t-63 -12.5h-64v-156z" />
    <glyph glyph-name="asciitilde" unicode="~" horiz-adv-x="630" 
d="M76 427h119q0 29 8 42.5t27 13.5q20 0 39 -9t40 -21q21 -13 46 -22t57 -9q80 0 111 47t31 143h-119q-1 -29 -8.5 -41t-30.5 -12q-22 0 -47.5 15t-57.5 29q-16 8 -34.5 11.5t-39.5 3.5q-78 0 -109.5 -49.5t-31.5 -141.5z" />
    <glyph glyph-name="uni00A0" unicode="&#xa0;" horiz-adv-x="269" 
 />
    <glyph glyph-name="exclamdown" unicode="&#xa1;" horiz-adv-x="364" 
d="M183 596q-66 0 -94 -23t-28 -85t29 -85t93 -23q65 0 94 23t29 85q0 63 -26 85.5t-97 22.5zM297 -134v124q0 89 -8 161.5t-19 120.5q-6 24 -10.5 40t-8.5 23q-10 -2 -29 -3.5t-42 -1.5t-40.5 1.5t-30.5 3.5q-7 -14 -18 -63t-20 -122q-4 -36 -6 -76t-2 -84v-124h234z" />
    <glyph glyph-name="cent" unicode="&#xa2;" horiz-adv-x="710" 
d="M690 251v3h-214v-1q-7 -52 -35.5 -76t-81.5 -24q-62 0 -94 33.5t-32 95.5v10q0 68 33 101.5t94 33.5q52 0 81 -23t35 -74v-2h214v1q-8 112 -69.5 174.5t-162.5 81.5v114h-194v-114q-109 -23 -174 -98.5t-65 -196.5v-10q0 -121 58.5 -195t178.5 -95v-122h194v123
q103 20 165 84t69 176z" />
    <glyph glyph-name="sterling" unicode="&#xa3;" horiz-adv-x="728" 
d="M525 -16q71 0 113 20.5t60 68.5q10 24 14.5 56t4.5 73v21h-195v-11q0 -49 -13 -70t-51 -21q-21 0 -43 6.5t-45 16.5q5 17 7.5 34.5t2.5 34.5q0 21 -2.5 39t-7.5 34h139v112h-179q-13 26 -21.5 49.5t-8.5 45.5q0 31 18 48t55 17q39 0 59 -18.5t24 -51.5l212 1
q-16 113 -87 177.5t-210 64.5q-89 0 -149 -27t-89 -74q-15 -23 -22.5 -50t-7.5 -57q0 -40 13 -70.5t31 -54.5h-98v-112h169q17 -21 30 -42.5t14 -47.5q-25 11 -52.5 17.5t-56.5 6.5q-66 0 -103 -33t-37 -85q0 -53 34 -85.5t117 -32.5q47 0 85.5 17.5t66.5 47.5
q45 -25 97.5 -45t111.5 -20zM165 79q-19 0 -28 7t-9 17q0 12 7.5 18t21.5 6q15 0 32.5 -7.5t38.5 -18.5q-13 -11 -28.5 -16.5t-34.5 -5.5z" />
    <glyph glyph-name="currency" unicode="&#xa4;" horiz-adv-x="856" 
d="M432 235q-57 0 -90.5 33.5t-33.5 87.5v2q0 57 33.5 90.5t90.5 33.5q56 0 90 -34t34 -90v-2q0 -54 -34 -87.5t-90 -33.5zM432 85q39 0 74 8t66 23l116 -116l114 120l-116 114q13 28 19.5 58.5t6.5 64.5v1q0 36 -7 68t-21 61l122 122l-120 115l-120 -121q-30 14 -63.5 21
t-70.5 7t-70.5 -7t-63.5 -21l-124 120l-114 -121l118 -115q-13 -28 -20 -60.5t-7 -68.5q0 -37 7 -69.5t20 -61.5l-120 -120l122 -116l119 120q30 -13 63 -19.5t70 -6.5z" />
    <glyph glyph-name="yen" unicode="&#xa5;" horiz-adv-x="711" 
d="M622 92v115h-164v53h165v117h-156l251 340h-227l-137 -194l-134 194h-227l242 -340h-149v-117h159v-53h-161v-115h161v-92h213v92h164z" />
    <glyph glyph-name="brokenbar" unicode="&#xa6;" horiz-adv-x="335" 
d="M66 410h203v369h-203v-369zM66 330v-387h203v387h-203z" />
    <glyph glyph-name="section" unicode="&#xa7;" horiz-adv-x="786" 
d="M450 282q-73 13 -126 24t-81 27q-15 8 -22 18.5t-7 23.5q0 21 16.5 36.5t53.5 18.5q12 -4 26 -7t29 -5q69 -11 123 -21t85 -25q15 -8 23 -19t8 -25q0 -22 -15.5 -38t-50.5 -21q-15 4 -30.5 7t-31.5 6zM401 -142q104 0 172.5 28.5t102.5 78.5q17 24 25.5 52t8.5 59
q0 53 -22 88.5t-60 58.5q69 11 108 48t39 95t-32 94t-91 57q-29 11 -63.5 19.5t-74.5 14.5q-67 11 -118 20.5t-79 22.5q-14 7 -21 16t-7 21q0 24 21 40t72 16q53 0 83 -18t36 -54h203q-18 102 -94 158t-221 56q-99 0 -164.5 -27.5t-98.5 -74.5q-16 -24 -24 -51t-8 -58
q0 -49 21 -83.5t57 -58.5q-74 -10 -116 -50t-42 -99q0 -57 31 -92.5t90 -56.5q29 -10 64 -18.5t76 -15.5q74 -12 127 -20.5t82 -21.5q15 -6 22 -15.5t7 -21.5q0 -25 -23.5 -41t-76.5 -16q-58 0 -90.5 20.5t-39.5 61.5h-213q14 -113 96.5 -172.5t234.5 -59.5z" />
    <glyph glyph-name="dieresis" unicode="&#xa8;" horiz-adv-x="589" 
d="M410 660q50 0 71 19.5t21 68.5q0 52 -22 71.5t-70 19.5q-49 0 -70.5 -19.5t-21.5 -71.5q0 -51 19.5 -69.5t72.5 -18.5zM180 660q50 0 71 19.5t21 68.5q0 52 -21.5 71.5t-70.5 19.5t-70.5 -19.5t-21.5 -71.5q0 -51 20 -69.5t72 -18.5z" />
    <glyph glyph-name="copyright" unicode="&#xa9;" horiz-adv-x="828" 
d="M416 -17q111 0 197.5 40.5t136.5 120.5q25 40 37.5 90t12.5 109v26q0 114 -50 196t-137 126q-43 22 -92.5 33t-104.5 11q-110 0 -198 -44.5t-138 -126.5q-26 -42 -38.5 -91t-12.5 -106v-24q0 -123 50 -203t137 -118q44 -20 94 -29.5t106 -9.5zM416 102q-121 0 -191 61.5
t-70 185.5v12q0 80 32.5 137.5t91.5 87.5q29 16 63 23.5t73 7.5q119 0 189 -66t70 -187v-15q0 -122 -69 -184.5t-189 -62.5zM619 332v1h-136q-3 -32 -19.5 -46t-48.5 -14q-34 0 -51 20.5t-17 60.5v6q0 44 19 65t50 21q32 0 48.5 -13.5t19.5 -46.5h134v1q-7 86 -59 131
t-144 45q-91 0 -146 -53.5t-55 -149.5v-7q0 -94 49.5 -145.5t150.5 -51.5q94 0 146 45t59 131z" />
    <glyph glyph-name="ordfeminine" unicode="&#xaa;" horiz-adv-x="509" 
d="M229 409q-20 0 -30.5 7.5t-10.5 21.5q0 9 4 16t12 12t21 8t38 6q20 4 35 8t25 8v-6q0 -29 -25.5 -55t-68.5 -26zM344 320h132v248q0 80 -50 122.5t-163 42.5q-110 0 -169 -41.5t-66 -115.5h166q2 23 17.5 35.5t53.5 12.5q34 0 46 -9t12 -23q0 -17 -18 -24t-73 -13
q-61 -6 -96 -13.5t-61 -21.5q-28 -16 -44 -41t-16 -60q0 -53 38.5 -81.5t114.5 -28.5q57 0 98 19t66 51z" />
    <glyph glyph-name="guillemotleft" unicode="&#xab;" horiz-adv-x="717" 
d="M689 89l-183 224l162 212h-172l-158 -209v-21l172 -206h179zM403 89l-175 219l164 217h-172l-163 -214v-19l166 -203h180z" />
    <glyph glyph-name="logicalnot" unicode="&#xac;" horiz-adv-x="678" 
d="M629 104v433h-602v-182h406v-251h196z" />
    <glyph glyph-name="uni00AD" unicode="&#xad;" horiz-adv-x="574" 
d="M532 403h-489v-195h489v195z" />
    <glyph glyph-name="registered" unicode="&#xae;" horiz-adv-x="498" 
d="M252 294q57 0 102.5 23.5t72.5 68.5q14 22 20.5 50t6.5 60v24q0 66 -27 112t-73 70q-23 12 -49.5 18t-55.5 6q-58 0 -105 -24.5t-74 -71.5q-13 -24 -20 -52t-7 -61v-21q0 -68 27.5 -113t74.5 -67q23 -11 50 -16.5t57 -5.5zM252 359q-67 0 -103.5 34.5t-36.5 107.5v11
q0 74 36.5 112.5t100.5 38.5q65 0 101.5 -37.5t36.5 -110.5v-13q0 -74 -35 -108.5t-100 -34.5zM247 570q21 0 29.5 -5t8.5 -19q0 -13 -9.5 -20t-28.5 -7h-20v51h20zM246 467q20 0 25 -6t5 -25v-22q0 -6 1 -9.5t3 -4.5h63q-2 1 -3.5 4.5t-1.5 8.5v25q0 21 -7 35t-21 21
q19 8 28 22t9 34q0 35 -21 54t-69 19h-91v-223h61v67h19z" />
    <glyph glyph-name="macron" unicode="&#xaf;" horiz-adv-x="587" 
d="M120 668h347v130h-347v-130z" />
    <glyph glyph-name="degree" unicode="&#xb0;" horiz-adv-x="391" 
d="M194 399q86 0 134.5 42t48.5 117v5q0 77 -48.5 120t-131.5 43t-133 -43t-50 -120v-5q0 -76 45 -117.5t135 -41.5zM195 512q-24 0 -36.5 12.5t-12.5 36.5v2q0 26 13.5 38t36.5 12t36 -12.5t13 -37.5v-2q0 -24 -13.5 -36.5t-36.5 -12.5z" />
    <glyph glyph-name="plusminus" unicode="&#xb1;" horiz-adv-x="628" 
d="M538 396v175h-137v128h-173v-128h-135v-175h135v-130h173v130h137zM538 26v177h-445v-177h445z" />
    <glyph glyph-name="twosuperior" unicode="&#xb2;" horiz-adv-x="369" 
d="M19 359zM345 359v102h-191q15 10 39 17t50 16q27 9 51 23t39 36q7 10 11 24t4 31q0 53 -37.5 84.5t-121.5 31.5q-82 0 -124 -34.5t-43 -98.5v-10h124v7q0 17 9 27.5t33 10.5q22 0 30.5 -6.5t8.5 -17.5q0 -17 -21 -26.5t-52 -17.5t-62 -21.5t-52 -38.5q-10 -12 -15.5 -29
t-5.5 -38v-72h326z" />
    <glyph glyph-name="threesuperior" unicode="&#xb3;" horiz-adv-x="370" 
d="M13 351zM183 351q86 0 128 30.5t42 82.5q0 35 -17.5 54t-46.5 26q28 8 42.5 26t14.5 49q0 45 -39 74.5t-120 29.5q-83 0 -125 -33t-42 -95v-6h120v3q0 15 10 23t34 8q21 0 29.5 -6t8.5 -17t-7.5 -17.5t-26.5 -6.5h-42v-77h43q22 0 30 -5t8 -16q0 -12 -9 -18.5t-34 -6.5
q-27 0 -36.5 8t-9.5 24v3h-125v-7q1 -67 38.5 -98.5t131.5 -31.5z" />
    <glyph glyph-name="acute" unicode="&#xb4;" horiz-adv-x="587" 
d="M159 661h145l192 206h-195z" />
    <glyph glyph-name="paragraph" unicode="&#xb6;" horiz-adv-x="859" 
d="M548 0v549h74v-549h180v717h-459q-113 0 -184.5 -32t-105.5 -90q-17 -29 -25.5 -63.5t-8.5 -73.5q0 -122 77 -191.5t241 -68.5h30v-198h181zM343 368q-60 0 -90 22.5t-30 67.5q0 46 31 68.5t92 22.5h21v-181h-24z" />
    <glyph glyph-name="periodcentered" unicode="&#xb7;" horiz-adv-x="351" 
d="M175 187q66 0 94.5 23.5t28.5 90.5q0 68 -29 91.5t-94 23.5t-93.5 -23.5t-28.5 -91.5q0 -46 11 -70.5t37 -34.5q14 -4 32.5 -6.5t41.5 -2.5z" />
    <glyph glyph-name="cedilla" unicode="&#xb8;" horiz-adv-x="587" 
d="M299 -304q95 0 147 39t52 106q0 58 -37 87t-109 32v54h-128v-139h77q35 0 49.5 -9t14.5 -25q0 -21 -15.5 -31t-47.5 -10q-31 0 -49 11t-23 34h-152q16 -74 68.5 -111.5t152.5 -37.5z" />
    <glyph glyph-name="onesuperior" unicode="&#xb9;" horiz-adv-x="305" 
d="M18 359zM287 359v110h-72v248h-98q-7 -29 -27.5 -47t-54.5 -20v-88h62v-93h-79v-110h269z" />
    <glyph glyph-name="ordmasculine" unicode="&#xba;" horiz-adv-x="512" 
d="M256 313q111 0 172.5 53.5t61.5 150.5v7q0 100 -63 154.5t-170 54.5q-105 0 -169.5 -54.5t-64.5 -154.5v-8q0 -98 57.5 -150.5t175.5 -52.5zM256 444q-38 0 -55.5 18.5t-17.5 55.5v6q0 40 18.5 60t55.5 20t55.5 -20t18.5 -60v-6q0 -37 -18.5 -55.5t-56.5 -18.5z" />
    <glyph glyph-name="guillemotright" unicode="&#xbb;" horiz-adv-x="717" 
d="M208 89l171 206v21l-157 209h-173l162 -212l-183 -224h180zM494 89l166 203v19l-162 214h-173l165 -217l-176 -219h180z" />
    <glyph glyph-name="onequarter" unicode="&#xbc;" 
d="M102 0zM583 398l335 239l-161 130l-221 -330zM445 349l-343 -252l163 -138l224 351zM386 357v110h-72v248h-98q-7 -29 -27.5 -47t-54.5 -20v-88h62v-93h-79v-110h269zM706 152h-68l68 74v-74zM871 60v92h-56v206h-103l-199 -217v-81h193v-60h109v60h56z" />
    <glyph glyph-name="onehalf" unicode="&#xbd;" 
d="M102 0zM583 398l335 239l-161 130l-221 -330zM445 349l-343 -252l163 -138l224 351zM386 357v110h-72v248h-98q-7 -29 -27.5 -47t-54.5 -20v-88h62v-93h-79v-110h269zM883 0v102h-191q15 10 39 17t50 16q27 9 51 23t39 36q7 10 11 24t4 31q0 53 -37.5 84.5t-121.5 31.5
q-82 0 -124 -34.5t-43 -98.5v-10h124v7q0 17 9 27.5t33 10.5q22 0 30.5 -6.5t8.5 -17.5q0 -17 -21 -26.5t-52 -17.5t-62 -21.5t-52 -38.5q-10 -12 -15.5 -29t-5.5 -38v-72h326z" />
    <glyph glyph-name="threequarters" unicode="&#xbe;" 
d="M71 0zM583 398l335 239l-161 130l-221 -330zM445 349l-343 -252l163 -138l224 351zM241 349q86 0 128 30.5t42 82.5q0 35 -17.5 54t-46.5 26q28 8 42.5 26t14.5 49q0 45 -39 74.5t-120 29.5q-83 0 -125 -33t-42 -95v-6h120v3q0 15 10 23t34 8q21 0 29.5 -6t8.5 -17
t-7.5 -17.5t-26.5 -6.5h-42v-77h43q22 0 30 -5t8 -16q0 -12 -9 -18.5t-34 -6.5q-27 0 -36.5 8t-9.5 24v3h-125v-7q1 -67 38.5 -98.5t131.5 -31.5zM706 152h-68l68 74v-74zM871 60v92h-56v206h-103l-199 -217v-81h193v-60h109v60h56z" />
    <glyph glyph-name="questiondown" unicode="&#xbf;" horiz-adv-x="727" 
d="M308 361l-3 -24q-5 -37 -38 -53.5t-80 -34.5q-35 -13 -65 -33t-48 -55q-9 -17 -13.5 -39.5t-4.5 -50.5q0 -63 33.5 -113.5t104.5 -79.5q35 -14 80.5 -21.5t101.5 -7.5q166 0 250 64.5t87 194.5v19h-209v-13q0 -46 -29.5 -70.5t-98.5 -24.5q-62 0 -86.5 18t-24.5 46
q0 31 28 45t73 27q36 11 67 27t50 44q10 14 14.5 32.5t4.5 41.5v8.5t-1 10.5q0 11 -1 23t-3 19q-11 -7 -34.5 -11t-60.5 -4t-59 4t-35 11zM402 593q-70 0 -98.5 -22t-28.5 -80t30 -79.5t97 -21.5q68 0 97 21.5t29 79.5q0 59 -26 80.5t-100 21.5z" />
    <glyph glyph-name="Agrave" unicode="&#xc0;" horiz-adv-x="764" 
d="M0 0zM461 282h-159l79 224zM562 0h211l-281 717h-221l-280 -717h213l44 125h269zM313 782h139l-132 206h-196z" />
    <glyph glyph-name="Aacute" unicode="&#xc1;" horiz-adv-x="764" 
d="M0 0zM461 282h-159l79 224zM562 0h211l-281 717h-221l-280 -717h213l44 125h269zM304 782h145l192 206h-195z" />
    <glyph glyph-name="Acircumflex" unicode="&#xc2;" horiz-adv-x="764" 
d="M0 0zM461 282h-159l79 224zM562 0h211l-281 717h-221l-280 -717h213l44 125h269zM447 779h147l-149 219h-130l-150 -219h147l68 110z" />
    <glyph glyph-name="Atilde" unicode="&#xc3;" horiz-adv-x="764" 
d="M0 0zM461 282h-159l79 224zM562 0h211l-281 717h-221l-280 -717h213l44 125h269zM148 779h116q1 28 8.5 40.5t26.5 12.5q25 0 50 -14.5t55 -28.5q16 -8 34 -11.5t39 -3.5q78 0 108.5 46.5t30.5 140.5h-117q0 -28 -8 -39.5t-29 -11.5q-22 0 -47 14t-57 28q-15 7 -33 10.5
t-39 3.5q-76 0 -107 -47.5t-31 -139.5z" />
    <glyph glyph-name="Adieresis" unicode="&#xc4;" horiz-adv-x="764" 
d="M0 0zM461 282h-159l79 224zM562 0h211l-281 717h-221l-280 -717h213l44 125h269zM495 778q50 0 71 19.5t21 68.5q0 52 -22 71.5t-70 19.5q-49 0 -70.5 -19.5t-21.5 -71.5q0 -51 19.5 -69.5t72.5 -18.5zM265 778q50 0 71 19.5t21 68.5q0 52 -21.5 71.5t-70.5 19.5
t-70.5 -19.5t-21.5 -71.5q0 -51 20 -69.5t72 -18.5z" />
    <glyph glyph-name="Aring" unicode="&#xc5;" horiz-adv-x="764" 
d="M0 0zM461 282h-159l79 224zM562 0h211l-281 717h-221l-280 -717h213l44 125h269zM381 772q77 0 122 40t45 109q0 71 -46 110.5t-121 39.5q-71 0 -117.5 -39t-46.5 -113q0 -70 44 -108.5t120 -38.5zM382 879q-22 0 -33.5 10.5t-11.5 31.5q0 22 11.5 33t33.5 11
q23 0 34 -11t11 -33q0 -20 -13 -31t-32 -11z" />
    <glyph glyph-name="AE" unicode="&#xc6;" horiz-adv-x="1107" 
d="M505 288h-164l118 226zM564 0h512v175h-358l-25 112h331v151h-363l-24 111h426v168h-691l-396 -717h216l67 130h278z" />
    <glyph glyph-name="Ccedilla" unicode="&#xc7;" horiz-adv-x="776" 
d="M400 -321q95 0 147 39t52 106q0 58 -37 87t-109 32v43q139 14 216 90.5t86 218.5v11h-222v-8q-6 -61 -38.5 -94.5t-100.5 -33.5q-74 0 -111 42t-37 126v37q0 89 38.5 131.5t111.5 42.5q65 0 97.5 -31.5t38.5 -89.5v-6h220v13q-12 151 -106.5 224.5t-250.5 73.5
q-109 0 -190.5 -40t-126.5 -118q-22 -39 -33.5 -87.5t-11.5 -105.5v-55q0 -160 76 -243.5t216 -97.5v-128h77q35 0 49.5 -9t14.5 -25q0 -21 -15.5 -31t-47.5 -10q-31 0 -49 11t-23 34h-152q16 -74 68.5 -111.5t152.5 -37.5z" />
    <glyph glyph-name="Egrave" unicode="&#xc8;" horiz-adv-x="677" 
d="M56 0zM647 175h-391v112h341v151h-341v111h379v168h-579v-717h591v175zM283 782h139l-132 206h-196z" />
    <glyph glyph-name="Eacute" unicode="&#xc9;" horiz-adv-x="677" 
d="M56 0zM647 175h-391v112h341v151h-341v111h379v168h-579v-717h591v175zM274 782h145l192 206h-195z" />
    <glyph glyph-name="Ecircumflex" unicode="&#xca;" horiz-adv-x="677" 
d="M56 0zM647 175h-391v112h341v151h-341v111h379v168h-579v-717h591v175zM417 782h147l-149 219h-130l-150 -219h147l68 110z" />
    <glyph glyph-name="Edieresis" unicode="&#xcb;" horiz-adv-x="677" 
d="M56 0zM647 175h-391v112h341v151h-341v111h379v168h-579v-717h591v175zM465 779q50 0 71 19.5t21 68.5q0 52 -22 71.5t-70 19.5q-49 0 -70.5 -19.5t-21.5 -71.5q0 -51 19.5 -69.5t72.5 -18.5zM235 779q50 0 71 19.5t21 68.5q0 52 -21.5 71.5t-70.5 19.5t-70.5 -19.5
t-21.5 -71.5q0 -51 20 -69.5t72 -18.5z" />
    <glyph glyph-name="Igrave" unicode="&#xcc;" horiz-adv-x="558" 
d="M27 0zM523 0v189h-144v342h144v186h-488v-186h144v-342h-144v-189h488zM216 782h139l-132 206h-196z" />
    <glyph glyph-name="Iacute" unicode="&#xcd;" horiz-adv-x="558" 
d="M35 0zM523 0v189h-144v342h144v186h-488v-186h144v-342h-144v-189h488zM206 782h145l192 206h-195z" />
    <glyph glyph-name="Icircumflex" unicode="&#xce;" horiz-adv-x="558" 
d="M35 0zM523 0v189h-144v342h144v186h-488v-186h144v-342h-144v-189h488zM350 782h147l-149 219h-130l-150 -219h147l68 110z" />
    <glyph glyph-name="Idieresis" unicode="&#xcf;" horiz-adv-x="558" 
d="M35 0zM523 0v189h-144v342h144v186h-488v-186h144v-342h-144v-189h488zM397 779q50 0 71 19.5t21 68.5q0 52 -22 71.5t-70 19.5q-49 0 -70.5 -19.5t-21.5 -71.5q0 -51 19.5 -69.5t72.5 -18.5zM167 779q50 0 71 19.5t21 68.5q0 52 -21.5 71.5t-70.5 19.5t-70.5 -19.5
t-21.5 -71.5q0 -51 20 -69.5t72 -18.5z" />
    <glyph glyph-name="Eth" unicode="&#xd0;" horiz-adv-x="777" 
d="M386 0q107 0 187.5 36t125.5 110q22 37 33.5 84.5t11.5 104.5v46q0 116 -45.5 190t-127.5 110q-41 18 -88 27t-101 9h-305v-282h-81v-155h81v-280h309zM400 280v155h-121v112h92q80 0 120.5 -41.5t40.5 -133.5v-26q0 -91 -39.5 -132t-118.5 -41h-95v107h121z" />
    <glyph glyph-name="Ntilde" unicode="&#xd1;" horiz-adv-x="799" 
d="M56 0zM553 0h190v717h-195v-414l-295 414h-197v-717h196v423zM180 780h116q1 28 8.5 40.5t26.5 12.5q25 0 50 -14.5t55 -28.5q16 -8 34 -11.5t39 -3.5q78 0 108.5 46.5t30.5 140.5h-117q0 -28 -8 -39.5t-29 -11.5q-22 0 -47 14t-57 28q-15 7 -33 10.5t-39 3.5
q-76 0 -107 -47.5t-31 -139.5z" />
    <glyph glyph-name="Ograve" unicode="&#xd2;" horiz-adv-x="783" 
d="M33 0zM391 -17q108 0 188.5 38t125.5 115q23 39 34 88t11 108v48q0 116 -45.5 194.5t-126.5 118.5q-41 20 -87 30t-99 10q-107 0 -188 -40.5t-126 -119.5q-22 -40 -33.5 -88t-11.5 -106v-47q0 -179 95 -264t263 -85zM391 167q-72 0 -108 43t-36 128v36q0 88 36 131.5
t108 43.5q71 0 108 -43t37 -133v-35q0 -88 -37 -129.5t-108 -41.5zM326 797h139l-132 206h-196z" />
    <glyph glyph-name="Oacute" unicode="&#xd3;" horiz-adv-x="783" 
d="M33 0zM391 -17q108 0 188.5 38t125.5 115q23 39 34 88t11 108v48q0 116 -45.5 194.5t-126.5 118.5q-41 20 -87 30t-99 10q-107 0 -188 -40.5t-126 -119.5q-22 -40 -33.5 -88t-11.5 -106v-47q0 -179 95 -264t263 -85zM391 167q-72 0 -108 43t-36 128v36q0 88 36 131.5
t108 43.5q71 0 108 -43t37 -133v-35q0 -88 -37 -129.5t-108 -41.5zM321 797h145l192 206h-195z" />
    <glyph glyph-name="Ocircumflex" unicode="&#xd4;" horiz-adv-x="783" 
d="M33 0zM391 -17q108 0 188.5 38t125.5 115q23 39 34 88t11 108v48q0 116 -45.5 194.5t-126.5 118.5q-41 20 -87 30t-99 10q-107 0 -188 -40.5t-126 -119.5q-22 -40 -33.5 -88t-11.5 -106v-47q0 -179 95 -264t263 -85zM391 167q-72 0 -108 43t-36 128v36q0 88 36 131.5
t108 43.5q71 0 108 -43t37 -133v-35q0 -88 -37 -129.5t-108 -41.5zM460 797h147l-149 219h-130l-150 -219h147l68 110z" />
    <glyph glyph-name="Otilde" unicode="&#xd5;" horiz-adv-x="783" 
d="M33 0zM391 -17q108 0 188.5 38t125.5 115q23 39 34 88t11 108v48q0 116 -45.5 194.5t-126.5 118.5q-41 20 -87 30t-99 10q-107 0 -188 -40.5t-126 -119.5q-22 -40 -33.5 -88t-11.5 -106v-47q0 -179 95 -264t263 -85zM391 167q-72 0 -108 43t-36 128v36q0 88 36 131.5
t108 43.5q71 0 108 -43t37 -133v-35q0 -88 -37 -129.5t-108 -41.5zM157 795h116q1 28 8.5 40.5t26.5 12.5q25 0 50 -14.5t55 -28.5q16 -8 34 -11.5t39 -3.5q78 0 108.5 46.5t30.5 140.5h-117q0 -28 -8 -39.5t-29 -11.5q-22 0 -47 14t-57 28q-15 7 -33 10.5t-39 3.5
q-76 0 -107 -47.5t-31 -139.5z" />
    <glyph glyph-name="Odieresis" unicode="&#xd6;" horiz-adv-x="783" 
d="M33 0zM391 -17q108 0 188.5 38t125.5 115q23 39 34 88t11 108v48q0 116 -45.5 194.5t-126.5 118.5q-41 20 -87 30t-99 10q-107 0 -188 -40.5t-126 -119.5q-22 -40 -33.5 -88t-11.5 -106v-47q0 -179 95 -264t263 -85zM391 167q-72 0 -108 43t-36 128v36q0 88 36 131.5
t108 43.5q71 0 108 -43t37 -133v-35q0 -88 -37 -129.5t-108 -41.5zM507 792q50 0 71 19.5t21 68.5q0 52 -22 71.5t-70 19.5q-49 0 -70.5 -19.5t-21.5 -71.5q0 -51 19.5 -69.5t72.5 -18.5zM277 792q50 0 71 19.5t21 68.5q0 52 -21.5 71.5t-70.5 19.5t-70.5 -19.5t-21.5 -71.5
q0 -51 20 -69.5t72 -18.5z" />
    <glyph glyph-name="multiply" unicode="&#xd7;" horiz-adv-x="621" 
d="M457 107l115 118l-145 146l139 139l-114 116l-140 -140l-139 140l-115 -119l137 -137l-148 -148l115 -117l148 149z" />
    <glyph glyph-name="Oslash" unicode="&#xd8;" horiz-adv-x="783" 
d="M391 167q-72 0 -108 43t-36 128v35q0 88 36 132t108 44q73 0 109 -44t36 -132v-35q0 -88 -37 -129.5t-108 -41.5zM391 -17q108 0 188.5 38t125.5 116q23 39 34 88t11 108v46q0 92 -29 160t-82 113l72 158h-196l-37 -84q-21 4 -42 5.5t-44 1.5q-107 0 -188 -41t-126 -120
q-22 -39 -33.5 -87.5t-11.5 -106.5v-44q0 -100 30.5 -170t86.5 -113l-74 -159h203l42 95q17 -2 34.5 -3t35.5 -1z" />
    <glyph glyph-name="Ugrave" unicode="&#xd9;" horiz-adv-x="756" 
d="M49 0zM378 -17q157 0 243 84t86 271v379h-215v-374q0 -92 -26.5 -128.5t-86.5 -36.5q-58 0 -87 37.5t-29 127.5v374h-214v-379q0 -185 79.5 -270t249.5 -85zM317 774h139l-132 206h-196z" />
    <glyph glyph-name="Uacute" unicode="&#xda;" horiz-adv-x="756" 
d="M49 0zM378 -17q157 0 243 84t86 271v379h-215v-374q0 -92 -26.5 -128.5t-86.5 -36.5q-58 0 -87 37.5t-29 127.5v374h-214v-379q0 -185 79.5 -270t249.5 -85zM302 778h145l192 206h-195z" />
    <glyph glyph-name="Ucircumflex" unicode="&#xdb;" horiz-adv-x="756" 
d="M49 0zM378 -17q157 0 243 84t86 271v379h-215v-374q0 -92 -26.5 -128.5t-86.5 -36.5q-58 0 -87 37.5t-29 127.5v374h-214v-379q0 -185 79.5 -270t249.5 -85zM450 778h147l-149 219h-130l-150 -219h147l68 110z" />
    <glyph glyph-name="Udieresis" unicode="&#xdc;" horiz-adv-x="756" 
d="M49 0zM378 -17q157 0 243 84t86 271v379h-215v-374q0 -92 -26.5 -128.5t-86.5 -36.5q-58 0 -87 37.5t-29 127.5v374h-214v-379q0 -185 79.5 -270t249.5 -85zM498 775q50 0 71 19.5t21 68.5q0 52 -22 71.5t-70 19.5q-49 0 -70.5 -19.5t-21.5 -71.5q0 -51 19.5 -69.5
t72.5 -18.5zM268 775q50 0 71 19.5t21 68.5q0 52 -21.5 71.5t-70.5 19.5t-70.5 -19.5t-21.5 -71.5q0 -51 20 -69.5t72 -18.5z" />
    <glyph glyph-name="Yacute" unicode="&#xdd;" horiz-adv-x="695" 
d="M0 0zM446 0v278l263 439h-224l-143 -246l-136 246h-224l251 -437v-280h213zM270 775h145l192 206h-195z" />
    <glyph glyph-name="Thorn" unicode="&#xde;" horiz-adv-x="725" 
d="M375 444q62 0 92.5 -18t30.5 -66q0 -46 -30 -65t-92 -19h-119v168h118zM383 110q164 -1 242 62.5t78 187.5q0 125 -78 189.5t-248 64.5h-120v103h-201v-717h201v110h126z" />
    <glyph glyph-name="germandbls" unicode="&#xdf;" horiz-adv-x="742" 
d="M444 -5q150 0 215.5 54.5t65.5 160.5q0 76 -39.5 118.5t-106.5 59.5q55 18 83 56t28 101q0 91 -75 147.5t-232 56.5q-168 0 -249.5 -65.5t-81.5 -188.5v-495h207l1 487q0 43 26 68t91 25q62 0 84.5 -19t22.5 -51q0 -31 -23.5 -47.5t-76.5 -16.5h-45v-131h57
q59 0 85.5 -17t26.5 -55t-22.5 -58t-86.5 -20q-16 0 -35.5 1.5t-28.5 3.5v-167q17 -4 44.5 -6t64.5 -2z" />
    <glyph glyph-name="agrave" unicode="&#xe0;" horiz-adv-x="707" 
d="M23 0zM311 123q-35 0 -52.5 11.5t-17.5 34.5v1q0 13 6 23.5t18 18.5q14 8 36 13.5t67 11.5q35 6 58 13t36 18v-24q0 -30 -20 -58t-54 -45q-17 -9 -36 -13.5t-41 -4.5zM489 0h172v359q0 116 -70 175.5t-228 59.5q-150 0 -231.5 -59.5t-90.5 -166.5h209q2 38 29.5 58
t87.5 20q54 0 74 -15t20 -38q0 -25 -30.5 -35.5t-111.5 -18.5q-57 -7 -95.5 -13.5t-65.5 -14.5q-13 -5 -26 -10.5t-26 -12.5q-40 -22 -61.5 -58t-21.5 -88q0 -76 51.5 -117.5t154.5 -41.5q94 0 152.5 35t86.5 88zM297 659h139l-132 206h-196z" />
    <glyph glyph-name="aacute" unicode="&#xe1;" horiz-adv-x="707" 
d="M23 0zM311 123q-35 0 -52.5 11.5t-17.5 34.5v1q0 13 6 23.5t18 18.5q14 8 36 13.5t67 11.5q35 6 58 13t36 18v-24q0 -30 -20 -58t-54 -45q-17 -9 -36 -13.5t-41 -4.5zM489 0h172v359q0 116 -70 175.5t-228 59.5q-150 0 -231.5 -59.5t-90.5 -166.5h209q2 38 29.5 58
t87.5 20q54 0 74 -15t20 -38q0 -25 -30.5 -35.5t-111.5 -18.5q-57 -7 -95.5 -13.5t-65.5 -14.5q-13 -5 -26 -10.5t-26 -12.5q-40 -22 -61.5 -58t-21.5 -88q0 -76 51.5 -117.5t154.5 -41.5q94 0 152.5 35t86.5 88zM288 659h145l192 206h-195z" />
    <glyph glyph-name="acircumflex" unicode="&#xe2;" horiz-adv-x="707" 
d="M23 0zM311 123q-35 0 -52.5 11.5t-17.5 34.5v1q0 13 6 23.5t18 18.5q14 8 36 13.5t67 11.5q35 6 58 13t36 18v-24q0 -30 -20 -58t-54 -45q-17 -9 -36 -13.5t-41 -4.5zM489 0h172v359q0 116 -70 175.5t-228 59.5q-150 0 -231.5 -59.5t-90.5 -166.5h209q2 38 29.5 58
t87.5 20q54 0 74 -15t20 -38q0 -25 -30.5 -35.5t-111.5 -18.5q-57 -7 -95.5 -13.5t-65.5 -14.5q-13 -5 -26 -10.5t-26 -12.5q-40 -22 -61.5 -58t-21.5 -88q0 -76 51.5 -117.5t154.5 -41.5q94 0 152.5 35t86.5 88zM432 659h147l-149 219h-130l-150 -219h147l68 110z" />
    <glyph glyph-name="atilde" unicode="&#xe3;" horiz-adv-x="707" 
d="M23 0zM311 123q-35 0 -52.5 11.5t-17.5 34.5v1q0 13 6 23.5t18 18.5q14 8 36 13.5t67 11.5q35 6 58 13t36 18v-24q0 -30 -20 -58t-54 -45q-17 -9 -36 -13.5t-41 -4.5zM489 0h172v359q0 116 -70 175.5t-228 59.5q-150 0 -231.5 -59.5t-90.5 -166.5h209q2 38 29.5 58
t87.5 20q54 0 74 -15t20 -38q0 -25 -30.5 -35.5t-111.5 -18.5q-57 -7 -95.5 -13.5t-65.5 -14.5q-13 -5 -26 -10.5t-26 -12.5q-40 -22 -61.5 -58t-21.5 -88q0 -76 51.5 -117.5t154.5 -41.5q94 0 152.5 35t86.5 88zM128 657h116q1 28 8.5 40.5t26.5 12.5q25 0 50 -14.5
t55 -28.5q16 -8 34 -11.5t39 -3.5q78 0 108.5 46.5t30.5 140.5h-117q0 -28 -8 -39.5t-29 -11.5q-22 0 -47 14t-57 28q-15 7 -33 10.5t-39 3.5q-76 0 -107 -47.5t-31 -139.5z" />
    <glyph glyph-name="adieresis" unicode="&#xe4;" horiz-adv-x="707" 
d="M23 0zM311 123q-35 0 -52.5 11.5t-17.5 34.5v1q0 13 6 23.5t18 18.5q14 8 36 13.5t67 11.5q35 6 58 13t36 18v-24q0 -30 -20 -58t-54 -45q-17 -9 -36 -13.5t-41 -4.5zM489 0h172v359q0 116 -70 175.5t-228 59.5q-150 0 -231.5 -59.5t-90.5 -166.5h209q2 38 29.5 58
t87.5 20q54 0 74 -15t20 -38q0 -25 -30.5 -35.5t-111.5 -18.5q-57 -7 -95.5 -13.5t-65.5 -14.5q-13 -5 -26 -10.5t-26 -12.5q-40 -22 -61.5 -58t-21.5 -88q0 -76 51.5 -117.5t154.5 -41.5q94 0 152.5 35t86.5 88zM479 654q50 0 71 19.5t21 68.5q0 52 -22 71.5t-70 19.5
q-49 0 -70.5 -19.5t-21.5 -71.5q0 -51 19.5 -69.5t72.5 -18.5zM249 654q50 0 71 19.5t21 68.5q0 52 -21.5 71.5t-70.5 19.5t-70.5 -19.5t-21.5 -71.5q0 -51 20 -69.5t72 -18.5z" />
    <glyph glyph-name="aring" unicode="&#xe5;" horiz-adv-x="707" 
d="M23 0zM311 123q-35 0 -52.5 11.5t-17.5 34.5v1q0 13 6 23.5t18 18.5q14 8 36 13.5t67 11.5q35 6 58 13t36 18v-24q0 -30 -20 -58t-54 -45q-17 -9 -36 -13.5t-41 -4.5zM489 0h172v359q0 116 -70 175.5t-228 59.5q-150 0 -231.5 -59.5t-90.5 -166.5h209q2 38 29.5 58
t87.5 20q54 0 74 -15t20 -38q0 -25 -30.5 -35.5t-111.5 -18.5q-57 -7 -95.5 -13.5t-65.5 -14.5q-13 -5 -26 -10.5t-26 -12.5q-40 -22 -61.5 -58t-21.5 -88q0 -76 51.5 -117.5t154.5 -41.5q94 0 152.5 35t86.5 88zM362 655q77 0 122 40t45 109q0 71 -46 110.5t-121 39.5
q-71 0 -117.5 -39t-46.5 -113q0 -70 44 -108.5t120 -38.5zM363 762q-22 0 -33.5 10.5t-11.5 31.5q0 22 11.5 33t33.5 11q23 0 34 -11t11 -33q0 -20 -13 -31t-32 -11z" />
    <glyph glyph-name="ae" unicode="&#xe6;" horiz-adv-x="1150" 
d="M796 444q57 0 87.5 -23t38.5 -70h-261q11 47 44.5 70t90.5 23zM311 123q-35 0 -53 12t-18 35q0 13 6 23.5t18 17.5q14 8 36.5 13t64.5 10q34 5 57.5 11t38.5 15v-16q0 -30 -20 -58t-54 -45q-17 -9 -36 -13.5t-40 -4.5zM1120 185h-219q-13 -23 -37 -36t-68 -13
q-62 0 -95.5 25t-41.5 74h466v61q0 84 -35 151.5t-107 106.5q-37 20 -83.5 30t-103.5 10q-70 0 -125.5 -17.5t-95.5 -49.5q-33 33 -87 50t-132 17q-145 0 -225 -59.5t-89 -166.5h209q2 35 29 57t85 22q52 0 73.5 -16.5t21.5 -40.5q0 -25 -31 -34t-110 -17
q-57 -6 -95.5 -12.5t-65.5 -15.5q-13 -5 -26 -10.5t-26 -12.5q-41 -22 -61.5 -58t-20.5 -86q0 -76 53.5 -118.5t163.5 -42.5q99 0 166 33.5t101 87.5q34 -56 102 -88.5t177 -32.5q141 0 222.5 51t110.5 151z" />
    <glyph glyph-name="ccedilla" unicode="&#xe7;" horiz-adv-x="711" 
d="M370 -325q95 0 147 39t52 106q0 58 -37 87t-109 32v47q123 13 193.5 80t75.5 185v3h-215v-1q-6 -50 -35 -75t-82 -25q-59 0 -91 32.5t-32 95.5v9q0 69 33 103t91 34q53 0 81 -23.5t35 -73.5v-2h215v1q-8 131 -96 198t-236 67q-99 0 -173.5 -36t-115.5 -104
q-21 -34 -31.5 -75t-10.5 -89v-10q0 -129 65.5 -204.5t200.5 -89.5v-132h77q35 0 49.5 -9t14.5 -25q0 -21 -15.5 -31t-47.5 -10q-31 0 -49 11t-23 34h-152q16 -74 68.5 -111.5t152.5 -37.5z" />
    <glyph glyph-name="egrave" unicode="&#xe8;" horiz-adv-x="723" 
d="M29 0zM368 445q56 0 86.5 -24t38.5 -71h-260q11 46 44 70.5t91 24.5zM692 184h-219q-12 -22 -36 -35.5t-69 -13.5q-62 0 -95.5 25.5t-41.5 74.5h465v61q0 84 -34.5 151.5t-107.5 106.5q-36 20 -82.5 30t-103.5 10q-109 0 -184.5 -38.5t-115.5 -108.5q-19 -34 -29 -74.5
t-10 -86.5v-10q0 -87 33 -153t106 -103q36 -19 84 -28t107 -9q142 0 223 52t110 149zM304 659h139l-132 206h-196z" />
    <glyph glyph-name="eacute" unicode="&#xe9;" horiz-adv-x="723" 
d="M29 0zM368 445q56 0 86.5 -24t38.5 -71h-260q11 46 44 70.5t91 24.5zM692 184h-219q-12 -22 -36 -35.5t-69 -13.5q-62 0 -95.5 25.5t-41.5 74.5h465v61q0 84 -34.5 151.5t-107.5 106.5q-36 20 -82.5 30t-103.5 10q-109 0 -184.5 -38.5t-115.5 -108.5q-19 -34 -29 -74.5
t-10 -86.5v-10q0 -87 33 -153t106 -103q36 -19 84 -28t107 -9q142 0 223 52t110 149zM295 659h145l192 206h-195z" />
    <glyph glyph-name="ecircumflex" unicode="&#xea;" horiz-adv-x="723" 
d="M29 0zM368 445q56 0 86.5 -24t38.5 -71h-260q11 46 44 70.5t91 24.5zM692 184h-219q-12 -22 -36 -35.5t-69 -13.5q-62 0 -95.5 25.5t-41.5 74.5h465v61q0 84 -34.5 151.5t-107.5 106.5q-36 20 -82.5 30t-103.5 10q-109 0 -184.5 -38.5t-115.5 -108.5q-19 -34 -29 -74.5
t-10 -86.5v-10q0 -87 33 -153t106 -103q36 -19 84 -28t107 -9q142 0 223 52t110 149zM438 659h147l-149 219h-130l-150 -219h147l68 110z" />
    <glyph glyph-name="edieresis" unicode="&#xeb;" horiz-adv-x="723" 
d="M29 0zM368 445q56 0 86.5 -24t38.5 -71h-260q11 46 44 70.5t91 24.5zM692 184h-219q-12 -22 -36 -35.5t-69 -13.5q-62 0 -95.5 25.5t-41.5 74.5h465v61q0 84 -34.5 151.5t-107.5 106.5q-36 20 -82.5 30t-103.5 10q-109 0 -184.5 -38.5t-115.5 -108.5q-19 -34 -29 -74.5
t-10 -86.5v-10q0 -87 33 -153t106 -103q36 -19 84 -28t107 -9q142 0 223 52t110 149zM486 656q50 0 71 19.5t21 68.5q0 52 -22 71.5t-70 19.5q-49 0 -70.5 -19.5t-21.5 -71.5q0 -51 19.5 -69.5t72.5 -18.5zM256 656q50 0 71 19.5t21 68.5q0 52 -21.5 71.5t-70.5 19.5
t-70.5 -19.5t-21.5 -71.5q0 -51 20 -69.5t72 -18.5z" />
    <glyph glyph-name="igrave" unicode="&#xec;" horiz-adv-x="316" 
d="M0 0zM265 0v580h-213v-580h213zM95 645h139l-132 206h-196z" />
    <glyph glyph-name="iacute" unicode="&#xed;" horiz-adv-x="316" 
d="M52 0zM265 0v580h-213v-580h213zM85 645h145l192 206h-195z" />
    <glyph glyph-name="icircumflex" unicode="&#xee;" horiz-adv-x="316" 
d="M0 0zM265 0v580h-213v-580h213zM230 647h147l-149 219h-130l-150 -219h147l68 110z" />
    <glyph glyph-name="idieresis" unicode="&#xef;" horiz-adv-x="316" 
d="M0 0zM265 0v580h-213v-580h213zM277 640q50 0 71 19.5t21 68.5q0 52 -22 71.5t-70 19.5q-49 0 -70.5 -19.5t-21.5 -71.5q0 -51 19.5 -69.5t72.5 -18.5zM47 640q50 0 71 19.5t21 68.5q0 52 -21.5 71.5t-70.5 19.5t-70.5 -19.5t-21.5 -71.5q0 -51 20 -69.5t72 -18.5z" />
    <glyph glyph-name="eth" unicode="&#xf0;" horiz-adv-x="723" 
d="M360 -17q164 0 249 78t85 226v9q0 118 -53 221t-148 188l156 95h-175l-57 -34q-12 9 -24.5 17.5t-26.5 16.5h-284q56 -34 103 -63.5t87 -58.5l-162 -97h177l63 38q45 -37 76 -72t50 -73q-25 35 -66 53.5t-100 18.5q-83 0 -146.5 -32t-98.5 -94q-18 -31 -27 -68.5
t-9 -81.5v-9q0 -132 82 -205t249 -73zM363 151q-61 0 -94.5 28.5t-33.5 83.5v8q0 60 33.5 90t94.5 30q62 0 95.5 -29t33.5 -90v-9q0 -56 -32 -84t-97 -28z" />
    <glyph glyph-name="ntilde" unicode="&#xf1;" horiz-adv-x="716" 
d="M51 0zM259 282q0 67 24.5 102.5t82.5 35.5q56 0 76.5 -32.5t20.5 -92.5v-295h206v354q0 113 -57 176.5t-165 63.5q-76 0 -126.5 -34t-75.5 -91l-19 111h-175v-580h208v282zM129 647h116q1 28 8.5 40.5t26.5 12.5q25 0 50 -14.5t55 -28.5q16 -8 34 -11.5t39 -3.5
q78 0 108.5 46.5t30.5 140.5h-117q0 -28 -8 -39.5t-29 -11.5q-22 0 -47 14t-57 28q-15 7 -33 10.5t-39 3.5q-76 0 -107 -47.5t-31 -139.5z" />
    <glyph glyph-name="ograve" unicode="&#xf2;" horiz-adv-x="719" 
d="M29 0zM358 -17q158 0 245.5 77.5t87.5 219.5v10q0 97 -40.5 164.5t-115.5 103.5q-37 18 -80.5 27t-94.5 9q-99 0 -173.5 -36t-116.5 -104q-20 -34 -30.5 -75t-10.5 -89v-10q0 -143 81 -220t248 -77zM360 153q-60 0 -92.5 32.5t-32.5 95.5v9q0 69 33.5 103t92.5 34
q62 0 93 -34t31 -103v-9q0 -64 -32.5 -96t-92.5 -32zM292 659h139l-132 206h-196z" />
    <glyph glyph-name="oacute" unicode="&#xf3;" horiz-adv-x="719" 
d="M29 0zM358 -17q158 0 245.5 77.5t87.5 219.5v10q0 97 -40.5 164.5t-115.5 103.5q-37 18 -80.5 27t-94.5 9q-99 0 -173.5 -36t-116.5 -104q-20 -34 -30.5 -75t-10.5 -89v-10q0 -143 81 -220t248 -77zM360 153q-60 0 -92.5 32.5t-32.5 95.5v9q0 69 33.5 103t92.5 34
q62 0 93 -34t31 -103v-9q0 -64 -32.5 -96t-92.5 -32zM283 656h145l192 206h-195z" />
    <glyph glyph-name="ocircumflex" unicode="&#xf4;" horiz-adv-x="719" 
d="M29 0zM358 -17q158 0 245.5 77.5t87.5 219.5v10q0 97 -40.5 164.5t-115.5 103.5q-37 18 -80.5 27t-94.5 9q-99 0 -173.5 -36t-116.5 -104q-20 -34 -30.5 -75t-10.5 -89v-10q0 -143 81 -220t248 -77zM360 153q-60 0 -92.5 32.5t-32.5 95.5v9q0 69 33.5 103t92.5 34
q62 0 93 -34t31 -103v-9q0 -64 -32.5 -96t-92.5 -32zM427 655h147l-149 219h-130l-150 -219h147l68 110z" />
    <glyph glyph-name="otilde" unicode="&#xf5;" horiz-adv-x="719" 
d="M29 0zM358 -17q158 0 245.5 77.5t87.5 219.5v10q0 97 -40.5 164.5t-115.5 103.5q-37 18 -80.5 27t-94.5 9q-99 0 -173.5 -36t-116.5 -104q-20 -34 -30.5 -75t-10.5 -89v-10q0 -143 81 -220t248 -77zM360 153q-60 0 -92.5 32.5t-32.5 95.5v9q0 69 33.5 103t92.5 34
q62 0 93 -34t31 -103v-9q0 -64 -32.5 -96t-92.5 -32zM126 654h116q1 28 8.5 40.5t26.5 12.5q25 0 50 -14.5t55 -28.5q16 -8 34 -11.5t39 -3.5q78 0 108.5 46.5t30.5 140.5h-117q0 -28 -8 -39.5t-29 -11.5q-22 0 -47 14t-57 28q-15 7 -33 10.5t-39 3.5q-76 0 -107 -47.5
t-31 -139.5z" />
    <glyph glyph-name="odieresis" unicode="&#xf6;" horiz-adv-x="719" 
d="M29 0zM358 -17q158 0 245.5 77.5t87.5 219.5v10q0 97 -40.5 164.5t-115.5 103.5q-37 18 -80.5 27t-94.5 9q-99 0 -173.5 -36t-116.5 -104q-20 -34 -30.5 -75t-10.5 -89v-10q0 -143 81 -220t248 -77zM360 153q-60 0 -92.5 32.5t-32.5 95.5v9q0 69 33.5 103t92.5 34
q62 0 93 -34t31 -103v-9q0 -64 -32.5 -96t-92.5 -32zM478 650q50 0 71 19.5t21 68.5q0 52 -22 71.5t-70 19.5q-49 0 -70.5 -19.5t-21.5 -71.5q0 -51 19.5 -69.5t72.5 -18.5zM248 650q50 0 71 19.5t21 68.5q0 52 -21.5 71.5t-70.5 19.5t-70.5 -19.5t-21.5 -71.5
q0 -51 20 -69.5t72 -18.5z" />
    <glyph glyph-name="divide" unicode="&#xf7;" horiz-adv-x="628" 
d="M315 506q56 0 79.5 17.5t23.5 64.5q0 49 -24.5 66t-78.5 17q-56 0 -80 -17t-24 -66q0 -48 21.5 -65t82.5 -17zM582 271v183h-534v-183h534zM315 55q56 0 79.5 18t23.5 65q0 48 -24.5 65t-78.5 17q-56 0 -80 -17t-24 -65q0 -49 21.5 -66t82.5 -17z" />
    <glyph glyph-name="oslash" unicode="&#xf8;" horiz-adv-x="723" 
d="M362 153q-61 0 -94 32.5t-33 96.5v9q0 68 34 102t94 34q61 0 93 -34t32 -102v-9q0 -64 -31.5 -96.5t-94.5 -32.5zM360 -17q159 0 246.5 77.5t87.5 219.5v11q0 80 -28 140t-81 99l71 132h-179l-40 -74q-18 3 -36.5 4.5t-38.5 1.5q-100 0 -175 -36t-116 -104
q-21 -34 -31.5 -75t-10.5 -89v-10q0 -84 27.5 -145t82.5 -98l-69 -127h180l41 77q17 -2 34 -3t35 -1z" />
    <glyph glyph-name="ugrave" unicode="&#xf9;" horiz-adv-x="702" 
d="M47 0zM477 0h174v580h-208v-286q0 -61 -22.5 -97t-75.5 -36q-55 0 -74 32.5t-19 90.5v296h-205v-354q0 -113 53.5 -176t161.5 -63q77 0 125 34t70 92zM283 638h139l-132 206h-196z" />
    <glyph glyph-name="uacute" unicode="&#xfa;" horiz-adv-x="702" 
d="M47 0zM477 0h174v580h-208v-286q0 -61 -22.5 -97t-75.5 -36q-55 0 -74 32.5t-19 90.5v296h-205v-354q0 -113 53.5 -176t161.5 -63q77 0 125 34t70 92zM275 638h145l192 206h-195z" />
    <glyph glyph-name="ucircumflex" unicode="&#xfb;" horiz-adv-x="702" 
d="M47 0zM477 0h174v580h-208v-286q0 -61 -22.5 -97t-75.5 -36q-55 0 -74 32.5t-19 90.5v296h-205v-354q0 -113 53.5 -176t161.5 -63q77 0 125 34t70 92zM418 638h147l-149 219h-130l-150 -219h147l68 110z" />
    <glyph glyph-name="udieresis" unicode="&#xfc;" horiz-adv-x="702" 
d="M47 0zM477 0h174v580h-208v-286q0 -61 -22.5 -97t-75.5 -36q-55 0 -74 32.5t-19 90.5v296h-205v-354q0 -113 53.5 -176t161.5 -63q77 0 125 34t70 92zM466 635q50 0 71 19.5t21 68.5q0 52 -22 71.5t-70 19.5q-49 0 -70.5 -19.5t-21.5 -71.5q0 -51 19.5 -69.5t72.5 -18.5z
M236 635q50 0 71 19.5t21 68.5q0 52 -21.5 71.5t-70.5 19.5t-70.5 -19.5t-21.5 -71.5q0 -51 20 -69.5t72 -18.5z" />
    <glyph glyph-name="yacute" unicode="&#xfd;" horiz-adv-x="675" 
d="M0 0zM133 -230q63 0 105 7.5t72 28.5q30 22 56 63t56 108l268 603h-211l-136 -336l-138 336h-217l251 -551l-8 -18q-13 -29 -26.5 -45t-35.5 -22q-10 -4 -24.5 -5.5t-32.5 -1.5h-81v-167h102zM264 640h145l192 206h-195z" />
    <glyph glyph-name="thorn" unicode="&#xfe;" horiz-adv-x="732" 
d="M374 153q-59 0 -91 33.5t-32 99.5v11q0 62 33.5 97t90.5 35q58 0 90 -33.5t32 -99.5v-11q0 -66 -30.5 -99t-92.5 -33zM443 -14q75 0 133.5 34t92.5 101q17 33 25.5 74t8.5 90v13q0 99 -32.5 164t-89.5 98q-29 16 -62 24t-71 8q-70 0 -119 -28.5t-75 -80.5v273h-202v-956
h202v288q24 -47 70.5 -74.5t118.5 -27.5z" />
    <glyph glyph-name="ydieresis" unicode="&#xff;" horiz-adv-x="675" 
d="M0 0zM133 -230q63 0 105 7.5t72 28.5q30 22 56 63t56 108l268 603h-211l-136 -336l-138 336h-217l251 -551l-8 -18q-13 -29 -26.5 -45t-35.5 -22q-10 -4 -24.5 -5.5t-32.5 -1.5h-81v-167h102zM455 637q50 0 71 19.5t21 68.5q0 52 -22 71.5t-70 19.5q-49 0 -70.5 -19.5
t-21.5 -71.5q0 -51 19.5 -69.5t72.5 -18.5zM225 637q50 0 71 19.5t21 68.5q0 52 -21.5 71.5t-70.5 19.5t-70.5 -19.5t-21.5 -71.5q0 -51 20 -69.5t72 -18.5z" />
    <glyph glyph-name="Amacron" unicode="&#x100;" horiz-adv-x="764" 
d="M0 0zM461 282h-159l79 224zM562 0h211l-281 717h-221l-280 -717h213l44 125h269zM208 786h347v130h-347v-130z" />
    <glyph glyph-name="amacron" unicode="&#x101;" horiz-adv-x="707" 
d="M23 0zM311 123q-35 0 -52.5 11.5t-17.5 34.5v1q0 13 6 23.5t18 18.5q14 8 36 13.5t67 11.5q35 6 58 13t36 18v-24q0 -30 -20 -58t-54 -45q-17 -9 -36 -13.5t-41 -4.5zM489 0h172v359q0 116 -70 175.5t-228 59.5q-150 0 -231.5 -59.5t-90.5 -166.5h209q2 38 29.5 58
t87.5 20q54 0 74 -15t20 -38q0 -25 -30.5 -35.5t-111.5 -18.5q-57 -7 -95.5 -13.5t-65.5 -14.5q-13 -5 -26 -10.5t-26 -12.5q-40 -22 -61.5 -58t-21.5 -88q0 -76 51.5 -117.5t154.5 -41.5q94 0 152.5 35t86.5 88zM192 663h347v130h-347v-130z" />
    <glyph glyph-name="Abreve" unicode="&#x102;" horiz-adv-x="764" 
d="M0 0zM461 282h-159l79 224zM562 0h211l-281 717h-221l-280 -717h213l44 125h269zM378 779q110 0 163.5 54.5t53.5 158.5h-130q0 -48 -21 -69t-66 -22q-46 1 -66 22t-20 69h-129q0 -104 48.5 -158.5t166.5 -54.5z" />
    <glyph glyph-name="abreve" unicode="&#x103;" horiz-adv-x="707" 
d="M23 0zM311 123q-35 0 -52.5 11.5t-17.5 34.5v1q0 13 6 23.5t18 18.5q14 8 36 13.5t67 11.5q35 6 58 13t36 18v-24q0 -30 -20 -58t-54 -45q-17 -9 -36 -13.5t-41 -4.5zM489 0h172v359q0 116 -70 175.5t-228 59.5q-150 0 -231.5 -59.5t-90.5 -166.5h209q2 38 29.5 58
t87.5 20q54 0 74 -15t20 -38q0 -25 -30.5 -35.5t-111.5 -18.5q-57 -7 -95.5 -13.5t-65.5 -14.5q-13 -5 -26 -10.5t-26 -12.5q-40 -22 -61.5 -58t-21.5 -88q0 -76 51.5 -117.5t154.5 -41.5q94 0 152.5 35t86.5 88zM363 656q110 0 163.5 54.5t53.5 158.5h-130q0 -48 -21 -69
t-66 -22q-46 1 -66 22t-20 69h-129q0 -104 48.5 -158.5t166.5 -54.5z" />
    <glyph glyph-name="Aogonek" unicode="&#x104;" horiz-adv-x="764" 
d="M461 282h-159l79 224zM883 -117h-158q-5 -22 -18.5 -33t-34.5 -11q-20 0 -32 8.5t-12 25.5q0 14 10 28.5t41 37.5q16 11 39.5 26.5t54.5 34.5l-281 717h-221l-280 -717h213l44 125h269l45 -125h4q-50 -37 -66.5 -70.5t-16.5 -67.5q0 -65 46 -100t134 -35t143 39t77 117z
" />
    <glyph glyph-name="aogonek" unicode="&#x105;" horiz-adv-x="707" 
d="M311 123q-35 0 -52.5 11.5t-17.5 34.5v1q0 13 6 23.5t18 18.5q14 8 36 13.5t67 11.5q35 6 58 13t36 18v-24q0 -30 -20 -58t-54 -45q-17 -9 -36 -13.5t-41 -4.5zM770 -117h-158q-5 -22 -18.5 -33t-34.5 -11q-20 0 -32 8.5t-12 25.5q0 14 10 28.5t41 37.5q16 11 39.5 26.5
t54.5 34.5h1v359q0 116 -70 175.5t-228 59.5q-150 0 -231.5 -59.5t-90.5 -166.5h209q2 38 29.5 58t87.5 20q54 0 74 -15t20 -38q0 -25 -30.5 -35.5t-111.5 -18.5q-57 -7 -95.5 -13.5t-65.5 -14.5q-13 -5 -26 -10.5t-26 -12.5q-40 -22 -61.5 -58t-21.5 -88q0 -76 51.5 -117.5
t154.5 -41.5q94 0 152.5 35t86.5 88l17 -85q-70 -44 -92.5 -82t-22.5 -77q0 -65 46 -100t134 -35t143 39t77 117z" />
    <glyph glyph-name="Cacute" unicode="&#x106;" horiz-adv-x="776" 
d="M33 0zM388 -17q169 0 263 77.5t104 234.5v11h-222v-8q-6 -61 -38.5 -94.5t-100.5 -33.5q-74 0 -111 42t-37 126v37q0 89 38.5 131.5t111.5 42.5q65 0 97.5 -31.5t38.5 -89.5v-6h220v13q-12 151 -106.5 224.5t-250.5 73.5q-109 0 -190.5 -40t-126.5 -118
q-22 -39 -33.5 -87.5t-11.5 -105.5v-55q0 -177 93 -260.5t262 -83.5zM317 797h145l192 206h-195z" />
    <glyph glyph-name="cacute" unicode="&#x107;" horiz-adv-x="711" 
d="M29 0zM358 -17q152 0 240 67.5t94 200.5v3h-215v-1q-6 -50 -35 -75t-82 -25q-59 0 -91 32.5t-32 95.5v9q0 69 33 103t91 34q53 0 81 -23.5t35 -73.5v-2h215v1q-8 131 -96 198t-236 67q-99 0 -173.5 -36t-115.5 -104q-21 -34 -31.5 -75t-10.5 -89v-10q0 -143 81 -220
t248 -77zM288 659h145l192 206h-195z" />
    <glyph glyph-name="Ccircumflex" unicode="&#x108;" horiz-adv-x="776" 
d="M33 0zM388 -17q169 0 263 77.5t104 234.5v11h-222v-8q-6 -61 -38.5 -94.5t-100.5 -33.5q-74 0 -111 42t-37 126v37q0 89 38.5 131.5t111.5 42.5q65 0 97.5 -31.5t38.5 -89.5v-6h220v13q-12 151 -106.5 224.5t-250.5 73.5q-109 0 -190.5 -40t-126.5 -118
q-22 -39 -33.5 -87.5t-11.5 -105.5v-55q0 -177 93 -260.5t262 -83.5zM461 797h147l-149 219h-130l-150 -219h147l68 110z" />
    <glyph glyph-name="ccircumflex" unicode="&#x109;" horiz-adv-x="711" 
d="M29 0zM358 -17q152 0 240 67.5t94 200.5v3h-215v-1q-6 -50 -35 -75t-82 -25q-59 0 -91 32.5t-32 95.5v9q0 69 33 103t91 34q53 0 81 -23.5t35 -73.5v-2h215v1q-8 131 -96 198t-236 67q-99 0 -173.5 -36t-115.5 -104q-21 -34 -31.5 -75t-10.5 -89v-10q0 -143 81 -220
t248 -77zM431 658h147l-149 219h-130l-150 -219h147l68 110z" />
    <glyph glyph-name="Cdotaccent" unicode="&#x10a;" horiz-adv-x="776" 
d="M33 0zM388 -17q169 0 263 77.5t104 234.5v11h-222v-8q-6 -61 -38.5 -94.5t-100.5 -33.5q-74 0 -111 42t-37 126v37q0 89 38.5 131.5t111.5 42.5q65 0 97.5 -31.5t38.5 -89.5v-6h220v13q-12 151 -106.5 224.5t-250.5 73.5q-109 0 -190.5 -40t-126.5 -118
q-22 -39 -33.5 -87.5t-11.5 -105.5v-55q0 -177 93 -260.5t262 -83.5zM393 793q58 0 83 21.5t25 80.5q0 62 -25.5 82.5t-82.5 20.5q-58 0 -83.5 -20.5t-25.5 -82.5q0 -41 9.5 -63t33.5 -31q12 -4 28.5 -6t37.5 -2z" />
    <glyph glyph-name="cdotaccent" unicode="&#x10b;" horiz-adv-x="711" 
d="M29 0zM358 -17q152 0 240 67.5t94 200.5v3h-215v-1q-6 -50 -35 -75t-82 -25q-59 0 -91 32.5t-32 95.5v9q0 69 33 103t91 34q53 0 81 -23.5t35 -73.5v-2h215v1q-8 131 -96 198t-236 67q-99 0 -173.5 -36t-115.5 -104q-21 -34 -31.5 -75t-10.5 -89v-10q0 -143 81 -220
t248 -77zM363 655q58 0 83 21.5t25 80.5q0 62 -25.5 82.5t-82.5 20.5q-58 0 -83.5 -20.5t-25.5 -82.5q0 -41 9.5 -63t33.5 -31q12 -4 28.5 -6t37.5 -2z" />
    <glyph glyph-name="Ccaron" unicode="&#x10c;" horiz-adv-x="776" 
d="M33 0zM388 -17q169 0 263 77.5t104 234.5v11h-222v-8q-6 -61 -38.5 -94.5t-100.5 -33.5q-74 0 -111 42t-37 126v37q0 89 38.5 131.5t111.5 42.5q65 0 97.5 -31.5t38.5 -89.5v-6h220v13q-12 151 -106.5 224.5t-250.5 73.5q-109 0 -190.5 -40t-126.5 -118
q-22 -39 -33.5 -87.5t-11.5 -105.5v-55q0 -177 93 -260.5t262 -83.5zM457 797l149 221h-145l-69 -109l-66 109h-149l151 -221h129z" />
    <glyph glyph-name="ccaron" unicode="&#x10d;" horiz-adv-x="711" 
d="M29 0zM358 -17q152 0 240 67.5t94 200.5v3h-215v-1q-6 -50 -35 -75t-82 -25q-59 0 -91 32.5t-32 95.5v9q0 69 33 103t91 34q53 0 81 -23.5t35 -73.5v-2h215v1q-8 131 -96 198t-236 67q-99 0 -173.5 -36t-115.5 -104q-21 -34 -31.5 -75t-10.5 -89v-10q0 -143 81 -220
t248 -77zM428 659l149 221h-145l-69 -109l-66 109h-149l151 -221h129z" />
    <glyph glyph-name="Dcaron" unicode="&#x10e;" horiz-adv-x="755" 
d="M56 0zM56 0h309q107 0 187.5 36t125.5 110q23 37 34 84.5t11 104.5v46q0 116 -45.5 190t-126.5 110q-41 18 -88 27t-101 9h-306v-717zM351 543q80 0 120.5 -40t40.5 -131v-26q0 -88 -40 -128.5t-119 -40.5h-91v366h89zM443 782l149 221h-145l-69 -109l-66 109h-149
l151 -221h129z" />
    <glyph glyph-name="dcaron" unicode="&#x10f;" horiz-adv-x="731" 
d="M29 0zM357 154q-58 0 -89.5 32t-31.5 102v8q0 67 31 100t92 33q56 0 89.5 -34.5t33.5 -98.5v-8q0 -67 -33 -100.5t-92 -33.5zM503 0h177v768h-201v-275q-25 47 -72 73t-117 26q-76 0 -135 -33t-93 -98q-16 -33 -24.5 -74t-8.5 -90v-10q0 -99 33 -165.5t91 -100.5
q29 -16 62.5 -24.5t71.5 -8.5q77 0 126 30.5t74 82.5zM728 615h121l105 198h-166z" />
    <glyph glyph-name="Dcroat" unicode="&#x110;" horiz-adv-x="777" 
d="M0 0zM386 0q107 0 187.5 36t125.5 110q22 37 33.5 84.5t11.5 104.5v46q0 116 -45.5 190t-127.5 110q-41 18 -88 27t-101 9h-305v-282h-81v-155h81v-280h309zM400 280v155h-121v112h92q80 0 120.5 -41.5t40.5 -133.5v-26q0 -91 -39.5 -132t-118.5 -41h-95v107h121z" />
    <glyph glyph-name="dcroat" unicode="&#x111;" horiz-adv-x="732" 
d="M357 154q-58 0 -89.5 32t-31.5 102v8q0 67 31 100t92 33q56 0 89.5 -34.5t33.5 -98.5v-8q0 -67 -33 -100.5t-92 -33.5zM487 101l16 -101h177v607h59v91h-59v70h-201v-70h-75v-91h75v-114q-25 47 -72 73t-117 26q-76 0 -135 -33t-93 -98q-16 -33 -24.5 -74t-8.5 -90v-10
q0 -99 33 -165.5t91 -100.5q29 -16 62.5 -24.5t71.5 -8.5q77 0 126 30.5t74 82.5z" />
    <glyph glyph-name="Emacron" unicode="&#x112;" horiz-adv-x="677" 
d="M56 0zM647 175h-391v112h341v151h-341v111h379v168h-579v-717h591v175zM178 786h347v130h-347v-130z" />
    <glyph glyph-name="emacron" unicode="&#x113;" horiz-adv-x="723" 
d="M29 0zM368 445q56 0 86.5 -24t38.5 -71h-260q11 46 44 70.5t91 24.5zM692 184h-219q-12 -22 -36 -35.5t-69 -13.5q-62 0 -95.5 25.5t-41.5 74.5h465v61q0 84 -34.5 151.5t-107.5 106.5q-36 20 -82.5 30t-103.5 10q-109 0 -184.5 -38.5t-115.5 -108.5q-19 -34 -29 -74.5
t-10 -86.5v-10q0 -87 33 -153t106 -103q36 -19 84 -28t107 -9q142 0 223 52t110 149zM198 663h347v130h-347v-130z" />
    <glyph glyph-name="Ebreve" unicode="&#x114;" horiz-adv-x="677" 
d="M56 0zM647 175h-391v112h341v151h-341v111h379v168h-579v-717h591v175zM349 779q110 0 163.5 54.5t53.5 158.5h-130q0 -48 -21 -69t-66 -22q-46 1 -66 22t-20 69h-129q0 -104 48.5 -158.5t166.5 -54.5z" />
    <glyph glyph-name="ebreve" unicode="&#x115;" horiz-adv-x="723" 
d="M29 0zM368 445q56 0 86.5 -24t38.5 -71h-260q11 46 44 70.5t91 24.5zM692 184h-219q-12 -22 -36 -35.5t-69 -13.5q-62 0 -95.5 25.5t-41.5 74.5h465v61q0 84 -34.5 151.5t-107.5 106.5q-36 20 -82.5 30t-103.5 10q-109 0 -184.5 -38.5t-115.5 -108.5q-19 -34 -29 -74.5
t-10 -86.5v-10q0 -87 33 -153t106 -103q36 -19 84 -28t107 -9q142 0 223 52t110 149zM370 656q110 0 163.5 54.5t53.5 158.5h-130q0 -48 -21 -69t-66 -22q-46 1 -66 22t-20 69h-129q0 -104 48.5 -158.5t166.5 -54.5z" />
    <glyph glyph-name="Edotaccent" unicode="&#x116;" horiz-adv-x="677" 
d="M56 0zM647 175h-391v112h341v151h-341v111h379v168h-579v-717h591v175zM350 778q58 0 83 21.5t25 80.5q0 62 -25.5 82.5t-82.5 20.5q-58 0 -83.5 -20.5t-25.5 -82.5q0 -41 9.5 -63t33.5 -31q12 -4 28.5 -6t37.5 -2z" />
    <glyph glyph-name="edotaccent" unicode="&#x117;" horiz-adv-x="723" 
d="M29 0zM368 445q56 0 86.5 -24t38.5 -71h-260q11 46 44 70.5t91 24.5zM692 184h-219q-12 -22 -36 -35.5t-69 -13.5q-62 0 -95.5 25.5t-41.5 74.5h465v61q0 84 -34.5 151.5t-107.5 106.5q-36 20 -82.5 30t-103.5 10q-109 0 -184.5 -38.5t-115.5 -108.5q-19 -34 -29 -74.5
t-10 -86.5v-10q0 -87 33 -153t106 -103q36 -19 84 -28t107 -9q142 0 223 52t110 149zM370 655q58 0 83 21.5t25 80.5q0 62 -25.5 82.5t-82.5 20.5q-58 0 -83.5 -20.5t-25.5 -82.5q0 -41 9.5 -63t33.5 -31q12 -4 28.5 -6t37.5 -2z" />
    <glyph glyph-name="Eogonek" unicode="&#x118;" horiz-adv-x="677" 
d="M757 -117h-158q-5 -22 -18.5 -33t-34.5 -11q-20 0 -32 8.5t-12 25.5q0 14 10 28.5t41 37.5q16 11 39.5 26.5t54.5 34.5v175h-391v112h341v151h-341v111h379v168h-579v-717h384q-50 -37 -66.5 -70.5t-16.5 -67.5q0 -65 46 -100t134 -35t143 39t77 117z" />
    <glyph glyph-name="eogonek" unicode="&#x119;" horiz-adv-x="723" 
d="M437 -254q88 0 143 39t77 117h-158q-5 -22 -18.5 -33t-34.5 -11q-20 0 -32 8.5t-12 25.5q0 14 9.5 28t37.5 35q14 10 35.5 24t49.5 32q62 24 100.5 68t57.5 105h-219q-12 -22 -36 -35.5t-69 -13.5q-62 0 -95.5 25.5t-41.5 74.5h465v61q0 84 -34.5 151.5t-107.5 106.5
q-36 20 -82.5 30t-103.5 10q-109 0 -184.5 -38.5t-115.5 -108.5q-19 -34 -29 -74.5t-10 -86.5v-10q0 -80 27.5 -142t87.5 -101q30 -19 69.5 -31t87.5 -16q-26 -27 -35 -53t-9 -52q0 -65 46 -100t134 -35zM368 445q56 0 86.5 -24t38.5 -71h-260q11 46 44 70.5t91 24.5z" />
    <glyph glyph-name="Ecaron" unicode="&#x11a;" horiz-adv-x="677" 
d="M56 0zM647 175h-391v112h341v151h-341v111h379v168h-579v-717h591v175zM414 782l149 221h-145l-69 -109l-66 109h-149l151 -221h129z" />
    <glyph glyph-name="ecaron" unicode="&#x11b;" horiz-adv-x="723" 
d="M29 0zM368 445q56 0 86.5 -24t38.5 -71h-260q11 46 44 70.5t91 24.5zM692 184h-219q-12 -22 -36 -35.5t-69 -13.5q-62 0 -95.5 25.5t-41.5 74.5h465v61q0 84 -34.5 151.5t-107.5 106.5q-36 20 -82.5 30t-103.5 10q-109 0 -184.5 -38.5t-115.5 -108.5q-19 -34 -29 -74.5
t-10 -86.5v-10q0 -87 33 -153t106 -103q36 -19 84 -28t107 -9q142 0 223 52t110 149zM435 659l149 221h-145l-69 -109l-66 109h-149l151 -221h129z" />
    <glyph glyph-name="Gcircumflex" unicode="&#x11c;" horiz-adv-x="783" 
d="M33 0zM567 0h172v387h-367v-128h160q-7 -46 -41.5 -74t-99.5 -28q-76 0 -111 41t-34 133v42q0 92 36.5 135t111.5 43q62 0 90.5 -26t34.5 -73h220v3q-10 140 -98 209t-245 69q-110 0 -192 -40t-126 -119q-23 -39 -34 -88.5t-11 -108.5v-53q0 -176 73 -258.5t214 -82.5
q106 0 162 52.5t70 141.5zM464 795h147l-149 219h-130l-150 -219h147l68 110z" />
    <glyph glyph-name="gcircumflex" unicode="&#x11d;" horiz-adv-x="688" 
d="M12 0zM345 -247q179 0 263 56t84 156v1q0 86 -62 130.5t-199 44.5h-148q-59 0 -80.5 5.5t-21.5 20.5q0 11 8.5 17.5t33.5 9.5q13 1 31.5 2t43.5 1h57q151 0 228.5 48t77.5 146v2q0 73 -43.5 116.5t-130.5 57.5q75 1 113 6.5t52 22.5q6 9 9.5 22.5t3.5 31.5v8h-218v-13
q0 -25 -5.5 -36t-25.5 -14q-10 -1 -25.5 -2.5t-37.5 -2.5l-22 -1q-145 -4 -218.5 -55.5t-73.5 -142.5v-1q0 -61 29.5 -97.5t88.5 -55.5q-67 -14 -100.5 -47.5t-33.5 -81.5t30.5 -77t91.5 -39q-69 -13 -101 -42t-32 -71q0 -39 27 -67.5t93 -43.5q33 -7 79.5 -11t105.5 -4h28z
M350 323q-55 0 -82.5 15t-27.5 50v2q0 36 27 53.5t80 17.5h6q56 0 83.5 -16t27.5 -54v-2q0 -33 -28.5 -49.5t-85.5 -16.5zM335 -111q-71 0 -101 12.5t-30 34.5v1q0 24 26.5 36.5t79.5 13.5h107q59 0 78 -11t19 -30v-2q0 -23 -32.5 -39t-117.5 -16h-29zM415 697h147l-149 219
h-130l-150 -219h147l68 110z" />
    <glyph glyph-name="Gbreve" unicode="&#x11e;" horiz-adv-x="783" 
d="M33 0zM567 0h172v387h-367v-128h160q-7 -46 -41.5 -74t-99.5 -28q-76 0 -111 41t-34 133v42q0 92 36.5 135t111.5 43q62 0 90.5 -26t34.5 -73h220v3q-10 140 -98 209t-245 69q-110 0 -192 -40t-126 -119q-23 -39 -34 -88.5t-11 -108.5v-53q0 -176 73 -258.5t214 -82.5
q106 0 162 52.5t70 141.5zM396 794q110 0 163.5 54.5t53.5 158.5h-130q0 -48 -21 -69t-66 -22q-46 1 -66 22t-20 69h-129q0 -104 48.5 -158.5t166.5 -54.5z" />
    <glyph glyph-name="gbreve" unicode="&#x11f;" horiz-adv-x="688" 
d="M12 0zM345 -247q179 0 263 56t84 156v1q0 86 -62 130.5t-199 44.5h-148q-59 0 -80.5 5.5t-21.5 20.5q0 11 8.5 17.5t33.5 9.5q13 1 31.5 2t43.5 1h57q151 0 228.5 48t77.5 146v2q0 73 -43.5 116.5t-130.5 57.5q75 1 113 6.5t52 22.5q6 9 9.5 22.5t3.5 31.5v8h-218v-13
q0 -25 -5.5 -36t-25.5 -14q-10 -1 -25.5 -2.5t-37.5 -2.5l-22 -1q-145 -4 -218.5 -55.5t-73.5 -142.5v-1q0 -61 29.5 -97.5t88.5 -55.5q-67 -14 -100.5 -47.5t-33.5 -81.5t30.5 -77t91.5 -39q-69 -13 -101 -42t-32 -71q0 -39 27 -67.5t93 -43.5q33 -7 79.5 -11t105.5 -4h28z
M350 323q-55 0 -82.5 15t-27.5 50v2q0 36 27 53.5t80 17.5h6q56 0 83.5 -16t27.5 -54v-2q0 -33 -28.5 -49.5t-85.5 -16.5zM335 -111q-71 0 -101 12.5t-30 34.5v1q0 24 26.5 36.5t79.5 13.5h107q59 0 78 -11t19 -30v-2q0 -23 -32.5 -39t-117.5 -16h-29zM347 683
q110 0 163.5 54.5t53.5 158.5h-130q0 -48 -21 -69t-66 -22q-46 1 -66 22t-20 69h-129q0 -104 48.5 -158.5t166.5 -54.5z" />
    <glyph glyph-name="Gdotaccent" unicode="&#x120;" horiz-adv-x="783" 
d="M33 0zM567 0h172v387h-367v-128h160q-7 -46 -41.5 -74t-99.5 -28q-76 0 -111 41t-34 133v42q0 92 36.5 135t111.5 43q62 0 90.5 -26t34.5 -73h220v3q-10 140 -98 209t-245 69q-110 0 -192 -40t-126 -119q-23 -39 -34 -88.5t-11 -108.5v-53q0 -176 73 -258.5t214 -82.5
q106 0 162 52.5t70 141.5zM397 793q58 0 83 21.5t25 80.5q0 62 -25.5 82.5t-82.5 20.5q-58 0 -83.5 -20.5t-25.5 -82.5q0 -41 9.5 -63t33.5 -31q12 -4 28.5 -6t37.5 -2z" />
    <glyph glyph-name="gdotaccent" unicode="&#x121;" horiz-adv-x="688" 
d="M12 0zM345 -247q179 0 263 56t84 156v1q0 86 -62 130.5t-199 44.5h-148q-59 0 -80.5 5.5t-21.5 20.5q0 11 8.5 17.5t33.5 9.5q13 1 31.5 2t43.5 1h57q151 0 228.5 48t77.5 146v2q0 73 -43.5 116.5t-130.5 57.5q75 1 113 6.5t52 22.5q6 9 9.5 22.5t3.5 31.5v8h-218v-13
q0 -25 -5.5 -36t-25.5 -14q-10 -1 -25.5 -2.5t-37.5 -2.5l-22 -1q-145 -4 -218.5 -55.5t-73.5 -142.5v-1q0 -61 29.5 -97.5t88.5 -55.5q-67 -14 -100.5 -47.5t-33.5 -81.5t30.5 -77t91.5 -39q-69 -13 -101 -42t-32 -71q0 -39 27 -67.5t93 -43.5q33 -7 79.5 -11t105.5 -4h28z
M350 323q-55 0 -82.5 15t-27.5 50v2q0 36 27 53.5t80 17.5h6q56 0 83.5 -16t27.5 -54v-2q0 -33 -28.5 -49.5t-85.5 -16.5zM335 -111q-71 0 -101 12.5t-30 34.5v1q0 24 26.5 36.5t79.5 13.5h107q59 0 78 -11t19 -30v-2q0 -23 -32.5 -39t-117.5 -16h-29zM337 677q58 0 83 21.5
t25 80.5q0 62 -25.5 82.5t-82.5 20.5q-58 0 -83.5 -20.5t-25.5 -82.5q0 -41 9.5 -63t33.5 -31q12 -4 28.5 -6t37.5 -2z" />
    <glyph glyph-name="uni0122" unicode="&#x122;" horiz-adv-x="783" 
d="M33 0zM567 0h172v387h-367v-128h160q-7 -46 -41.5 -74t-99.5 -28q-76 0 -111 41t-34 133v42q0 92 36.5 135t111.5 43q62 0 90.5 -26t34.5 -73h220v3q-10 140 -98 209t-245 69q-110 0 -192 -40t-126 -119q-23 -39 -34 -88.5t-11 -108.5v-53q0 -176 73 -258.5t214 -82.5
q106 0 162 52.5t70 141.5zM313 -327q104 4 145.5 47.5t41.5 117.5q0 57 -22.5 79t-79.5 22q-55 0 -78.5 -18t-23.5 -59q0 -44 20 -57t66 -13q8 0 15.5 0.5t14.5 2.5q-6 -25 -30.5 -38.5t-68.5 -16.5v-67z" />
    <glyph glyph-name="uni0123" unicode="&#x123;" horiz-adv-x="688" 
d="M12 0zM345 -247q179 0 263 56t84 156v1q0 86 -62 130.5t-199 44.5h-148q-59 0 -80.5 5.5t-21.5 20.5q0 11 8.5 17.5t33.5 9.5q13 1 31.5 2t43.5 1h57q151 0 228.5 48t77.5 146v2q0 73 -43.5 116.5t-130.5 57.5q75 1 113 6.5t52 22.5q6 9 9.5 22.5t3.5 31.5v8h-218v-13
q0 -25 -5.5 -36t-25.5 -14q-10 -1 -25.5 -2.5t-37.5 -2.5l-22 -1q-145 -4 -218.5 -55.5t-73.5 -142.5v-1q0 -61 29.5 -97.5t88.5 -55.5q-67 -14 -100.5 -47.5t-33.5 -81.5t30.5 -77t91.5 -39q-69 -13 -101 -42t-32 -71q0 -39 27 -67.5t93 -43.5q33 -7 79.5 -11t105.5 -4h28z
M350 323q-55 0 -82.5 15t-27.5 50v2q0 36 27 53.5t80 17.5h6q56 0 83.5 -16t27.5 -54v-2q0 -33 -28.5 -49.5t-85.5 -16.5zM335 -111q-71 0 -101 12.5t-30 34.5v1q0 24 26.5 36.5t79.5 13.5h107q59 0 78 -11t19 -30v-2q0 -23 -32.5 -39t-117.5 -16h-29zM329 665
q56 0 78.5 18.5t22.5 64.5q0 49 -19.5 63.5t-65.5 14.5q-6 0 -12 -0.5t-12 -1.5q6 28 27.5 41.5t63.5 16.5v75q-101 -4 -142.5 -52.5t-41.5 -129.5q0 -64 22.5 -87t78.5 -23z" />
    <glyph glyph-name="Hcircumflex" unicode="&#x124;" horiz-adv-x="777" 
d="M56 0zM515 0h206v717h-206v-264h-251v264h-208v-717h208v262h251v-262zM458 772h147l-149 219h-130l-150 -219h147l68 110z" />
    <glyph glyph-name="hcircumflex" unicode="&#x125;" horiz-adv-x="712" 
d="M0 0zM255 282q0 67 25 103t82 36q56 0 76.5 -34.5t20.5 -92.5v-294h206v355q0 113 -54 176t-164 63q-68 0 -117 -29.5t-76 -79.5v283h-203v-768h204v282zM221 819h147l-149 219h-130l-150 -219h147l68 110z" />
    <glyph glyph-name="Hbar" unicode="&#x126;" horiz-adv-x="816" 
d="M535 366h-254v92h254v-92zM535 0h204v458h80v154h-80v105h-204v-105h-254v105h-205v-105h-79v-154h79v-458h205v211h254v-211z" />
    <glyph glyph-name="hbar" unicode="&#x127;" horiz-adv-x="712" 
d="M255 282q0 67 25 103t82 36q56 0 76.5 -34.5t20.5 -92.5v-294h206v355q0 113 -54 176t-164 63q-68 0 -117 -29.5t-76 -79.5v125h97v85h-97v73h-203v-73h-58v-85h58v-610h204v282z" />
    <glyph glyph-name="Itilde" unicode="&#x128;" horiz-adv-x="558" 
d="M35 0zM523 0v189h-144v342h144v186h-488v-186h144v-342h-144v-189h488zM46 780h116q1 28 8.5 40.5t26.5 12.5q25 0 50 -14.5t55 -28.5q16 -8 34 -11.5t39 -3.5q78 0 108.5 46.5t30.5 140.5h-117q0 -28 -8 -39.5t-29 -11.5q-22 0 -47 14t-57 28q-15 7 -33 10.5t-39 3.5
q-76 0 -107 -47.5t-31 -139.5z" />
    <glyph glyph-name="itilde" unicode="&#x129;" horiz-adv-x="316" 
d="M0 0zM265 0v580h-213v-580h213zM-71 647h116q1 28 8.5 40.5t26.5 12.5q25 0 50 -14.5t55 -28.5q16 -8 34 -11.5t39 -3.5q78 0 108.5 46.5t30.5 140.5h-117q0 -28 -8 -39.5t-29 -11.5q-22 0 -47 14t-57 28q-15 7 -33 10.5t-39 3.5q-76 0 -107 -47.5t-31 -139.5z" />
    <glyph glyph-name="Imacron" unicode="&#x12a;" horiz-adv-x="558" 
d="M35 0zM523 0v189h-144v342h144v186h-488v-186h144v-342h-144v-189h488zM110 786h347v130h-347v-130z" />
    <glyph glyph-name="imacron" unicode="&#x12b;" horiz-adv-x="316" 
d="M0 0zM265 0v580h-213v-580h213zM-12 651h347v130h-347v-130z" />
    <glyph glyph-name="Ibreve" unicode="&#x12c;" horiz-adv-x="558" 
d="M35 0zM523 0v189h-144v342h144v186h-488v-186h144v-342h-144v-189h488zM281 779q110 0 163.5 54.5t53.5 158.5h-130q0 -48 -21 -69t-66 -22q-46 1 -66 22t-20 69h-129q0 -104 48.5 -158.5t166.5 -54.5z" />
    <glyph glyph-name="ibreve" unicode="&#x12d;" horiz-adv-x="316" 
d="M0 0zM265 0v580h-213v-580h213zM159 642q110 0 163.5 54.5t53.5 158.5h-130q0 -48 -21 -69t-66 -22q-46 1 -66 22t-20 69h-129q0 -104 48.5 -158.5t166.5 -54.5z" />
    <glyph glyph-name="Iogonek" unicode="&#x12e;" horiz-adv-x="558" 
d="M632 -117h-158q-5 -22 -18.5 -33t-34.5 -11q-20 0 -32 8.5t-12 25.5q0 14 10 28.5t41 37.5q16 11 39.5 26.5t54.5 34.5h1v189h-144v342h144v186h-488v-186h144v-342h-144v-189h280q-50 -37 -66.5 -70.5t-16.5 -67.5q0 -65 46 -100t134 -35t143 39t77 117z" />
    <glyph glyph-name="iogonek" unicode="&#x12f;" horiz-adv-x="315" 
d="M159 615q62 0 92 22t30 74q0 54 -31.5 75.5t-90.5 21.5q-60 0 -91 -21.5t-31 -75.5t28 -75t94 -21zM373 -117h-158q-5 -22 -18.5 -33t-34.5 -11q-20 0 -32 8.5t-12 25.5q0 14 10 28.5t41 37.5q16 11 39.5 26.5t54.5 34.5h1v577q-6 -4 -24.5 -7.5t-40.5 -5.5
q-12 -1 -22 -1.5t-19 -0.5q-17 0 -40 1.5t-42 5.5q-9 1 -15 3.5t-9 4.5v-577h4q-50 -37 -66.5 -70.5t-16.5 -67.5q0 -65 46 -100t134 -35t143 39t77 117z" />
    <glyph glyph-name="Idotaccent" unicode="&#x130;" horiz-adv-x="558" 
d="M35 0zM523 0v189h-144v342h144v186h-488v-186h144v-342h-144v-189h488zM282 778q58 0 83 21.5t25 80.5q0 62 -25.5 82.5t-82.5 20.5q-58 0 -83.5 -20.5t-25.5 -82.5q0 -41 9.5 -63t33.5 -31q12 -4 28.5 -6t37.5 -2z" />
    <glyph glyph-name="dotlessi" unicode="&#x131;" horiz-adv-x="316" 
d="M265 0v580h-213v-580h213z" />
    <glyph glyph-name="IJ" unicode="&#x132;" horiz-adv-x="921" 
d="M579 0h27q84 0 136.5 11t81.5 40q28 30 39 85.5t11 144.5v436h-213v-431q0 -43 -4.5 -63.5t-19.5 -26.5q-8 -3 -20.5 -4.5t-29.5 -1.5h-8v-190zM520 0v190h-145v339h138v188h-476v-188h138v-339h-138v-190h483z" />
    <glyph glyph-name="ij" unicode="&#x133;" horiz-adv-x="646" 
d="M159 615q62 0 92.5 22t30.5 74q0 54 -31.5 75.5t-91.5 21.5t-91.5 -21.5t-31.5 -75.5t29 -75t94 -21zM486 615q62 0 92 22t30 74q0 54 -31.5 75.5t-90.5 21.5q-60 0 -91.5 -21.5t-31.5 -75.5t28 -75t95 -21zM52 0h215v577q-6 -4 -25 -7.5t-42 -5.5q-11 -1 -21 -1.5
t-19 -0.5q-17 0 -40.5 1.5t-42.5 5.5q-10 1 -16 3.5t-9 4.5v-577zM126 -258h221q72 0 119.5 9.5t74.5 33.5q27 25 38.5 68t11.5 111v613q-6 -4 -24.5 -7.5t-40.5 -5.5q-12 -1 -22 -1.5t-19 -0.5q-17 0 -40 1.5t-42 5.5q-9 1 -15 3.5t-9 4.5v-575q0 -39 -6 -58t-23 -25
q-8 -3 -20.5 -4.5t-28.5 -1.5h-175v-171z" />
    <glyph glyph-name="Jcircumflex" unicode="&#x134;" horiz-adv-x="673" 
d="M12 0zM318 -17q152 0 229.5 76.5t77.5 245.5v412h-213v-412q0 -78 -22 -107t-72 -29t-70 26.5t-21 84.5v21h-215v-24q2 -157 78.5 -225.5t227.5 -68.5zM586 780h147l-149 219h-130l-150 -219h147l68 110z" />
    <glyph glyph-name="jcircumflex" unicode="&#x135;" horiz-adv-x="314" 
d="M0 0zM-71 -258h92q72 0 119.5 10t73.5 34q27 25 38 68.5t11 110.5v615h-210v-576q0 -39 -5.5 -58.5t-22.5 -25.5q-9 -3 -21.5 -4.5t-28.5 -1.5h-46v-172zM227 649h147l-149 219h-130l-150 -219h147l68 110z" />
    <glyph glyph-name="uni0136" unicode="&#x136;" horiz-adv-x="762" 
d="M56 0zM534 0h233l-254 444l246 273h-249l-250 -278v278h-204v-717h204v202l102 111zM313 -301q104 4 145.5 47.5t41.5 117.5q0 57 -22.5 79t-79.5 22q-55 0 -78.5 -18t-23.5 -59q0 -44 20 -57t66 -13q8 0 15.5 0.5t14.5 2.5q-6 -25 -30.5 -38.5t-68.5 -16.5v-67z" />
    <glyph glyph-name="uni0137" unicode="&#x137;" horiz-adv-x="699" 
d="M51 0zM483 0h232l-220 357l212 223h-241l-213 -224v412h-202v-768h202v155l86 91zM285 -308q104 4 145.5 47.5t41.5 117.5q0 57 -22.5 79t-79.5 22q-55 0 -78.5 -18t-23.5 -59q0 -44 20 -57t66 -13q8 0 15.5 0.5t14.5 2.5q-6 -25 -30.5 -38.5t-68.5 -16.5v-67z" />
    <glyph glyph-name="kgreenlandic" unicode="&#x138;" horiz-adv-x="699" 
d="M484 0h231l-219 357l212 223h-241l-213 -223v223h-201v-580h201v155l86 91z" />
    <glyph glyph-name="Lacute" unicode="&#x139;" horiz-adv-x="633" 
d="M56 0zM611 0v197h-342v520h-213v-717h555zM87 782h145l192 206h-195z" />
    <glyph glyph-name="lacute" unicode="&#x13a;" horiz-adv-x="309" 
d="M52 0zM259 0v768h-207v-768h207zM81 826h145l192 206h-195z" />
    <glyph glyph-name="uni013B" unicode="&#x13b;" horiz-adv-x="633" 
d="M56 0zM611 0v197h-342v520h-213v-717h555zM252 -318q104 4 145.5 47.5t41.5 117.5q0 57 -22.5 79t-79.5 22q-55 0 -78.5 -18t-23.5 -59q0 -44 20 -57t66 -13q8 0 15.5 0.5t14.5 2.5q-6 -25 -30.5 -38.5t-68.5 -16.5v-67z" />
    <glyph glyph-name="uni013C" unicode="&#x13c;" horiz-adv-x="309" 
d="M52 0zM259 0v768h-207v-768h207zM71 -315q104 4 145.5 47.5t41.5 117.5q0 57 -22.5 79t-79.5 22q-55 0 -78.5 -18t-23.5 -59q0 -44 20 -57t66 -13q8 0 15.5 0.5t14.5 2.5q-6 -25 -30.5 -38.5t-68.5 -16.5v-67z" />
    <glyph glyph-name="Lcaron" unicode="&#x13d;" horiz-adv-x="633" 
d="M56 0zM611 0v197h-342v520h-213v-717h555zM410 567h121l105 198h-166z" />
    <glyph glyph-name="lcaron" unicode="&#x13e;" horiz-adv-x="309" 
d="M52 0zM259 0v768h-207v-768h207zM303 619h121l105 198h-166z" />
    <glyph glyph-name="Ldot" unicode="&#x13f;" horiz-adv-x="625" 
d="M603 0v199h-337v518h-210v-717h547zM503 288q58 0 83 21.5t25 80.5q0 62 -25.5 82.5t-82.5 20.5q-58 0 -83.5 -20.5t-25.5 -82.5q0 -41 10 -63t33 -31q12 -4 28.5 -6t37.5 -2z" />
    <glyph glyph-name="ldot" unicode="&#x140;" horiz-adv-x="470" 
d="M52 0zM259 0v768h-207v-768h207z" />
    <glyph glyph-name="Lslash" unicode="&#x141;" horiz-adv-x="654" 
d="M632 0v197h-342v161l172 44l-34 140l-138 -35v210h-213v-265l-100 -26l32 -141l68 18v-303h555z" />
    <glyph glyph-name="lslash" unicode="&#x142;" horiz-adv-x="333" 
d="M270 0v280l78 21l-26 111l-52 -14v370h-207v-424l-79 -21l27 -111l52 14v-226h207z" />
    <glyph glyph-name="Nacute" unicode="&#x143;" horiz-adv-x="799" 
d="M56 0zM553 0h190v717h-195v-414l-295 414h-197v-717h196v423zM335 766h145l192 206h-195z" />
    <glyph glyph-name="nacute" unicode="&#x144;" horiz-adv-x="716" 
d="M51 0zM259 282q0 67 24.5 102.5t82.5 35.5q56 0 76.5 -32.5t20.5 -92.5v-295h206v354q0 113 -57 176.5t-165 63.5q-76 0 -126.5 -34t-75.5 -91l-19 111h-175v-580h208v282zM288 648h145l192 206h-195z" />
    <glyph glyph-name="uni0145" unicode="&#x145;" horiz-adv-x="799" 
d="M56 0zM553 0h190v717h-195v-414l-295 414h-197v-717h196v423zM321 -299q104 4 145.5 47.5t41.5 117.5q0 57 -22.5 79t-79.5 22q-55 0 -78.5 -18t-23.5 -59q0 -44 20 -57t66 -13q8 0 15.5 0.5t14.5 2.5q-6 -25 -30.5 -38.5t-68.5 -16.5v-67z" />
    <glyph glyph-name="uni0146" unicode="&#x146;" horiz-adv-x="716" 
d="M51 0zM259 282q0 67 24.5 102.5t82.5 35.5q56 0 76.5 -32.5t20.5 -92.5v-295h206v354q0 113 -57 176.5t-165 63.5q-76 0 -126.5 -34t-75.5 -91l-19 111h-175v-580h208v282zM281 -310q104 4 145.5 47.5t41.5 117.5q0 57 -22.5 79t-79.5 22q-55 0 -78.5 -18t-23.5 -59
q0 -44 20 -57t66 -13q8 0 15.5 0.5t14.5 2.5q-6 -25 -30.5 -38.5t-68.5 -16.5v-67z" />
    <glyph glyph-name="Ncaron" unicode="&#x147;" horiz-adv-x="799" 
d="M56 0zM553 0h190v717h-195v-414l-295 414h-197v-717h196v423zM475 766l149 221h-145l-69 -109l-66 109h-149l151 -221h129z" />
    <glyph glyph-name="ncaron" unicode="&#x148;" horiz-adv-x="716" 
d="M51 0zM259 282q0 67 24.5 102.5t82.5 35.5q56 0 76.5 -32.5t20.5 -92.5v-295h206v354q0 113 -57 176.5t-165 63.5q-76 0 -126.5 -34t-75.5 -91l-19 111h-175v-580h208v282zM429 649l149 221h-145l-69 -109l-66 109h-149l151 -221h129z" />
    <glyph glyph-name="Eng" unicode="&#x14a;" horiz-adv-x="805" 
d="M490 -262q81 0 132 10t79 36q27 27 37.5 76t10.5 127v730h-195v-417l-301 417h-197v-717h196v424l301 -419v-4q0 -39 -5.5 -56.5t-22.5 -22.5q-9 -3 -22.5 -4t-31.5 -1h-45v-179h64z" />
    <glyph glyph-name="eng" unicode="&#x14b;" horiz-adv-x="716" 
d="M423 -260q94 0 147.5 19t75.5 68q11 24 16.5 58.5t5.5 79.5v389q0 113 -56.5 176.5t-165.5 63.5q-76 0 -126 -34t-74 -91l-20 111h-175v-580h207v282q0 67 25 103t83 36q56 0 76.5 -34t20.5 -93v-290q0 -39 -6 -58.5t-23 -25.5q-9 -3 -21.5 -4.5t-28.5 -1.5h-44v-174h83z
" />
    <glyph glyph-name="Omacron" unicode="&#x14c;" horiz-adv-x="783" 
d="M33 0zM391 -17q108 0 188.5 38t125.5 115q23 39 34 88t11 108v48q0 116 -45.5 194.5t-126.5 118.5q-41 20 -87 30t-99 10q-107 0 -188 -40.5t-126 -119.5q-22 -40 -33.5 -88t-11.5 -106v-47q0 -179 95 -264t263 -85zM391 167q-72 0 -108 43t-36 128v36q0 88 36 131.5
t108 43.5q71 0 108 -43t37 -133v-35q0 -88 -37 -129.5t-108 -41.5zM221 801h347v130h-347v-130z" />
    <glyph glyph-name="omacron" unicode="&#x14d;" horiz-adv-x="719" 
d="M29 0zM358 -17q158 0 245.5 77.5t87.5 219.5v10q0 97 -40.5 164.5t-115.5 103.5q-37 18 -80.5 27t-94.5 9q-99 0 -173.5 -36t-116.5 -104q-20 -34 -30.5 -75t-10.5 -89v-10q0 -143 81 -220t248 -77zM360 153q-60 0 -92.5 32.5t-32.5 95.5v9q0 69 33.5 103t92.5 34
q62 0 93 -34t31 -103v-9q0 -64 -32.5 -96t-92.5 -32zM188 664h347v130h-347v-130z" />
    <glyph glyph-name="Obreve" unicode="&#x14e;" horiz-adv-x="783" 
d="M33 0zM391 -17q108 0 188.5 38t125.5 115q23 39 34 88t11 108v48q0 116 -45.5 194.5t-126.5 118.5q-41 20 -87 30t-99 10q-107 0 -188 -40.5t-126 -119.5q-22 -40 -33.5 -88t-11.5 -106v-47q0 -179 95 -264t263 -85zM391 167q-72 0 -108 43t-36 128v36q0 88 36 131.5
t108 43.5q71 0 108 -43t37 -133v-35q0 -88 -37 -129.5t-108 -41.5zM391 794q110 0 163.5 54.5t53.5 158.5h-130q0 -48 -21 -69t-66 -22q-46 1 -66 22t-20 69h-129q0 -104 48.5 -158.5t166.5 -54.5z" />
    <glyph glyph-name="obreve" unicode="&#x14f;" horiz-adv-x="719" 
d="M29 0zM358 -17q158 0 245.5 77.5t87.5 219.5v10q0 97 -40.5 164.5t-115.5 103.5q-37 18 -80.5 27t-94.5 9q-99 0 -173.5 -36t-116.5 -104q-20 -34 -30.5 -75t-10.5 -89v-10q0 -143 81 -220t248 -77zM360 153q-60 0 -92.5 32.5t-32.5 95.5v9q0 69 33.5 103t92.5 34
q62 0 93 -34t31 -103v-9q0 -64 -32.5 -96t-92.5 -32zM358 653q110 0 163.5 54.5t53.5 158.5h-130q0 -48 -21 -69t-66 -22q-46 1 -66 22t-20 69h-129q0 -104 48.5 -158.5t166.5 -54.5z" />
    <glyph glyph-name="Ohungarumlaut" unicode="&#x150;" horiz-adv-x="783" 
d="M33 0zM391 -17q108 0 188.5 38t125.5 115q23 39 34 88t11 108v48q0 116 -45.5 194.5t-126.5 118.5q-41 20 -87 30t-99 10q-107 0 -188 -40.5t-126 -119.5q-22 -40 -33.5 -88t-11.5 -106v-47q0 -179 95 -264t263 -85zM391 167q-72 0 -108 43t-36 128v36q0 88 36 131.5
t108 43.5q71 0 108 -43t37 -133v-35q0 -88 -37 -129.5t-108 -41.5zM508 1002h-166l-114 -206h116zM726 1002h-169l-121 -206h119z" />
    <glyph glyph-name="ohungarumlaut" unicode="&#x151;" horiz-adv-x="719" 
d="M29 0zM358 -17q158 0 245.5 77.5t87.5 219.5v10q0 97 -40.5 164.5t-115.5 103.5q-37 18 -80.5 27t-94.5 9q-99 0 -173.5 -36t-116.5 -104q-20 -34 -30.5 -75t-10.5 -89v-10q0 -143 81 -220t248 -77zM360 153q-60 0 -92.5 32.5t-32.5 95.5v9q0 69 33.5 103t92.5 34
q62 0 93 -34t31 -103v-9q0 -64 -32.5 -96t-92.5 -32zM475 864h-166l-114 -206h116zM693 864h-169l-121 -206h119z" />
    <glyph glyph-name="OE" unicode="&#x152;" horiz-adv-x="1139" 
d="M391 167q-72 0 -108 43t-36 128v36q0 88 36 131.5t108 43.5q71 0 108 -43t37 -133v-35q0 -88 -37 -129.5t-108 -41.5zM520 0h588v175h-389v112h337v151h-337v111h376v168h-575v-5q-27 11 -59.5 16t-71.5 5q-105 0 -185.5 -41t-125.5 -120q-22 -39 -33.5 -87.5
t-11.5 -105.5v-45q0 -120 43.5 -198t122.5 -115q40 -19 87.5 -28.5t101.5 -9.5q38 0 71 5t61 15v-3z" />
    <glyph glyph-name="oe" unicode="&#x153;" horiz-adv-x="1177" 
d="M820 444q57 0 87.5 -22.5t39.5 -69.5h-263q11 46 45 69t91 23zM360 153q-60 0 -92.5 32.5t-32.5 95.5v9q0 69 33 103t93 34q62 0 93 -34t31 -103v-9q0 -64 -31 -96t-94 -32zM1145 185h-218q-12 -24 -37 -36.5t-69 -12.5q-63 0 -96.5 25t-41.5 74h466v61q0 84 -35 151.5
t-107 106.5q-36 20 -82.5 30t-102.5 10q-82 0 -140.5 -22t-96.5 -62q-36 41 -92.5 62.5t-134.5 21.5q-98 0 -172.5 -36t-115.5 -104q-20 -34 -30.5 -75t-10.5 -89v-10q0 -143 80 -220t246 -77q78 0 133.5 19.5t91.5 55.5q35 -35 91.5 -55t141.5 -20q140 0 221.5 51
t110.5 151z" />
    <glyph glyph-name="Racute" unicode="&#x154;" horiz-adv-x="737" 
d="M56 0zM388 549q56 0 82.5 -18.5t26.5 -57.5v-3q0 -40 -29 -59.5t-82 -19.5h-127v158h129zM370 226q61 0 85 -20.5t24 -76.5v-84q0 -14 4.5 -26.5t14.5 -18.5h214q-10 6 -15 17.5t-5 27.5v87q0 74 -25 115.5t-78 60.5q57 23 86.5 67t29.5 114q0 73 -31 123.5t-101 77.5
q-34 14 -80 20.5t-104 6.5h-333v-717h203v226h111zM294 782h145l192 206h-195z" />
    <glyph glyph-name="racute" unicode="&#x155;" horiz-adv-x="511" 
d="M51 0zM263 0v227q0 57 12 90t43 47q16 7 39 10.5t52 3.5h81v210h-45q-86 0 -134.5 -35.5t-64.5 -110.5l-26 138h-169v-580h212zM200 638h145l192 206h-195z" />
    <glyph glyph-name="uni0156" unicode="&#x156;" horiz-adv-x="737" 
d="M56 0zM388 549q56 0 82.5 -18.5t26.5 -57.5v-3q0 -40 -29 -59.5t-82 -19.5h-127v158h129zM370 226q61 0 85 -20.5t24 -76.5v-84q0 -14 4.5 -26.5t14.5 -18.5h214q-10 6 -15 17.5t-5 27.5v87q0 74 -25 115.5t-78 60.5q57 23 86.5 67t29.5 114q0 73 -31 123.5t-101 77.5
q-34 14 -80 20.5t-104 6.5h-333v-717h203v226h111zM296 -306q104 4 145.5 47.5t41.5 117.5q0 57 -22.5 79t-79.5 22q-55 0 -78.5 -18t-23.5 -59q0 -44 20 -57t66 -13q8 0 15.5 0.5t14.5 2.5q-6 -25 -30.5 -38.5t-68.5 -16.5v-67z" />
    <glyph glyph-name="uni0157" unicode="&#x157;" horiz-adv-x="511" 
d="M51 0zM263 0v227q0 57 12 90t43 47q16 7 39 10.5t52 3.5h81v210h-45q-86 0 -134.5 -35.5t-64.5 -110.5l-26 138h-169v-580h212zM76 -315q104 4 145.5 47.5t41.5 117.5q0 57 -22.5 79t-79.5 22q-55 0 -78.5 -18t-23.5 -59q0 -44 20 -57t66 -13q8 0 15.5 0.5t14.5 2.5
q-6 -25 -30.5 -38.5t-68.5 -16.5v-67z" />
    <glyph glyph-name="Rcaron" unicode="&#x158;" horiz-adv-x="737" 
d="M56 0zM388 549q56 0 82.5 -18.5t26.5 -57.5v-3q0 -40 -29 -59.5t-82 -19.5h-127v158h129zM370 226q61 0 85 -20.5t24 -76.5v-84q0 -14 4.5 -26.5t14.5 -18.5h214q-10 6 -15 17.5t-5 27.5v87q0 74 -25 115.5t-78 60.5q57 23 86.5 67t29.5 114q0 73 -31 123.5t-101 77.5
q-34 14 -80 20.5t-104 6.5h-333v-717h203v226h111zM434 782l149 221h-145l-69 -109l-66 109h-149l151 -221h129z" />
    <glyph glyph-name="rcaron" unicode="&#x159;" horiz-adv-x="511" 
d="M51 0zM263 0v227q0 57 12 90t43 47q16 7 39 10.5t52 3.5h81v210h-45q-86 0 -134.5 -35.5t-64.5 -110.5l-26 138h-169v-580h212zM340 638l149 221h-145l-69 -109l-66 109h-149l151 -221h129z" />
    <glyph glyph-name="Sacute" unicode="&#x15a;" horiz-adv-x="710" 
d="M10 0zM364 -17q166 0 246 66.5t80 174.5q0 78 -36.5 122t-99.5 65q-31 11 -66.5 19t-75.5 13q-91 11 -132.5 24t-41.5 47q0 26 22.5 43.5t78.5 17.5q61 0 92.5 -19t37.5 -64v-1h212v1q-13 124 -97 183t-240 59q-154 0 -234 -63.5t-80 -165.5q0 -76 34.5 -119t94.5 -65
q30 -10 63.5 -18t71.5 -13q95 -12 142 -25t47 -52q0 -29 -26 -47t-83 -18q-65 0 -101.5 23.5t-41.5 73.5v2h-221v-1q7 -85 42.5 -144t110.5 -89q38 -15 88 -22.5t113 -7.5zM268 799h145l192 206h-195z" />
    <glyph glyph-name="sacute" unicode="&#x15b;" horiz-adv-x="656" 
d="M6 0zM333 -17q105 0 173 26.5t100 72.5q17 23 25 49.5t8 56.5q0 65 -32.5 100.5t-91.5 51.5q-29 8 -64 14t-75 9q-79 7 -115.5 15.5t-36.5 32.5q0 20 19 33t69 13t79 -15t37 -45h205q-22 95 -97 146.5t-220 51.5q-142 0 -214.5 -54.5t-72.5 -143.5q0 -65 32.5 -100.5
t90.5 -50.5q29 -8 63 -13.5t72 -8.5q78 -6 116 -14.5t38 -34.5q0 -22 -21.5 -35t-71.5 -13q-56 0 -86 16t-41 50h-215q17 -106 100.5 -158t226.5 -52zM248 657h145l192 206h-195z" />
    <glyph glyph-name="Scircumflex" unicode="&#x15c;" horiz-adv-x="710" 
d="M10 0zM364 -17q166 0 246 66.5t80 174.5q0 78 -36.5 122t-99.5 65q-31 11 -66.5 19t-75.5 13q-91 11 -132.5 24t-41.5 47q0 26 22.5 43.5t78.5 17.5q61 0 92.5 -19t37.5 -64v-1h212v1q-13 124 -97 183t-240 59q-154 0 -234 -63.5t-80 -165.5q0 -76 34.5 -119t94.5 -65
q30 -10 63.5 -18t71.5 -13q95 -12 142 -25t47 -52q0 -29 -26 -47t-83 -18q-65 0 -101.5 23.5t-41.5 73.5v2h-221v-1q7 -85 42.5 -144t110.5 -89q38 -15 88 -22.5t113 -7.5zM413 798h147l-149 219h-130l-150 -219h147l68 110z" />
    <glyph glyph-name="scircumflex" unicode="&#x15d;" horiz-adv-x="656" 
d="M6 0zM333 -17q105 0 173 26.5t100 72.5q17 23 25 49.5t8 56.5q0 65 -32.5 100.5t-91.5 51.5q-29 8 -64 14t-75 9q-79 7 -115.5 15.5t-36.5 32.5q0 20 19 33t69 13t79 -15t37 -45h205q-22 95 -97 146.5t-220 51.5q-142 0 -214.5 -54.5t-72.5 -143.5q0 -65 32.5 -100.5
t90.5 -50.5q29 -8 63 -13.5t72 -8.5q78 -6 116 -14.5t38 -34.5q0 -22 -21.5 -35t-71.5 -13q-56 0 -86 16t-41 50h-215q17 -106 100.5 -158t226.5 -52zM388 658h147l-149 219h-130l-150 -219h147l68 110z" />
    <glyph glyph-name="uni015E" unicode="&#x15e;" horiz-adv-x="710" 
d="M370 -321q95 0 147 39t52 106q0 58 -37 87t-109 32v43q136 12 201.5 76t65.5 162q0 78 -36.5 122t-99.5 65q-31 11 -66.5 19t-75.5 13q-91 11 -132.5 24t-41.5 47q0 26 22.5 43.5t78.5 17.5q61 0 92.5 -19t37.5 -64v-1h212v1q-13 124 -97 183t-240 59q-154 0 -234 -63.5
t-80 -165.5q0 -76 34.5 -119t94.5 -65q30 -10 63.5 -18t71.5 -13q95 -12 142 -25t47 -52q0 -29 -26 -47t-83 -18q-65 0 -101.5 23.5t-41.5 73.5v2h-221v-1q6 -77 35.5 -132.5t89.5 -87.5q30 -16 70 -26t90 -14v-128h77q35 0 49.5 -9t14.5 -25q0 -21 -15.5 -31t-47.5 -10
q-31 0 -49 11t-23 34h-152q16 -74 68.5 -111.5t152.5 -37.5z" />
    <glyph glyph-name="uni015F" unicode="&#x15f;" horiz-adv-x="656" 
d="M344 -321q95 0 147 39t52 106q0 58 -37 87t-109 32v43q125 12 183.5 67.5t58.5 134.5q0 65 -32.5 100.5t-91.5 51.5q-29 8 -64 14t-75 9q-79 7 -115.5 15.5t-36.5 32.5q0 20 19 33t69 13t79 -15t37 -45h205q-22 95 -97 146.5t-220 51.5q-142 0 -214.5 -54.5t-72.5 -143.5
q0 -65 32.5 -100.5t90.5 -50.5q29 -8 63 -13.5t72 -8.5q78 -6 116 -14.5t38 -34.5q0 -22 -21.5 -35t-71.5 -13q-56 0 -86 16t-41 50h-215q15 -93 82 -145t181 -62v-128h77q35 0 49.5 -9t14.5 -25q0 -21 -15.5 -31t-47.5 -10q-31 0 -49 11t-23 34h-152q16 -74 68.5 -111.5
t152.5 -37.5z" />
    <glyph glyph-name="Scaron" unicode="&#x160;" horiz-adv-x="710" 
d="M10 0zM364 -17q166 0 246 66.5t80 174.5q0 78 -36.5 122t-99.5 65q-31 11 -66.5 19t-75.5 13q-91 11 -132.5 24t-41.5 47q0 26 22.5 43.5t78.5 17.5q61 0 92.5 -19t37.5 -64v-1h212v1q-13 124 -97 183t-240 59q-154 0 -234 -63.5t-80 -165.5q0 -76 34.5 -119t94.5 -65
q30 -10 63.5 -18t71.5 -13q95 -12 142 -25t47 -52q0 -29 -26 -47t-83 -18q-65 0 -101.5 23.5t-41.5 73.5v2h-221v-1q7 -85 42.5 -144t110.5 -89q38 -15 88 -22.5t113 -7.5zM408 799l149 221h-145l-69 -109l-66 109h-149l151 -221h129z" />
    <glyph glyph-name="scaron" unicode="&#x161;" horiz-adv-x="656" 
d="M6 0zM333 -17q105 0 173 26.5t100 72.5q17 23 25 49.5t8 56.5q0 65 -32.5 100.5t-91.5 51.5q-29 8 -64 14t-75 9q-79 7 -115.5 15.5t-36.5 32.5q0 20 19 33t69 13t79 -15t37 -45h205q-22 95 -97 146.5t-220 51.5q-142 0 -214.5 -54.5t-72.5 -143.5q0 -65 32.5 -100.5
t90.5 -50.5q29 -8 63 -13.5t72 -8.5q78 -6 116 -14.5t38 -34.5q0 -22 -21.5 -35t-71.5 -13q-56 0 -86 16t-41 50h-215q17 -106 100.5 -158t226.5 -52zM391 656l149 221h-145l-69 -109l-66 109h-149l151 -221h129z" />
    <glyph glyph-name="uni0162" unicode="&#x162;" horiz-adv-x="666" 
d="M26 0zM641 532v185h-615v-185h201v-532h208v532h206zM246 -315q104 4 145.5 47.5t41.5 117.5q0 57 -22.5 79t-79.5 22q-55 0 -78.5 -18t-23.5 -59q0 -44 20 -57t66 -13q8 0 15.5 0.5t14.5 2.5q-6 -25 -30.5 -38.5t-68.5 -16.5v-67z" />
    <glyph glyph-name="uni0163" unicode="&#x163;" horiz-adv-x="509" 
d="M9 0zM483 179h-62q-45 0 -67.5 7.5t-30.5 31.5q-4 12 -6 30.5t-2 43.5v113h168v175h-168v151h-164q-1 -21 -2.5 -45t-6.5 -44q-7 -32 -19.5 -46t-39.5 -19q-17 -4 -34.5 -5.5t-39.5 -2.5v-164h113v-144q0 -95 20.5 -152.5t72.5 -83.5q26 -12 63 -18.5t85 -6.5h120v179z
M204 -313q104 4 145.5 47.5t41.5 117.5q0 57 -22.5 79t-79.5 22q-55 0 -78.5 -18t-23.5 -59q0 -44 20 -57t66 -13q8 0 15.5 0.5t14.5 2.5q-6 -25 -30.5 -38.5t-68.5 -16.5v-67z" />
    <glyph glyph-name="Tcaron" unicode="&#x164;" horiz-adv-x="666" 
d="M26 0zM641 532v185h-615v-185h201v-532h208v532h206zM397 782l149 221h-145l-69 -109l-66 109h-149l151 -221h129z" />
    <glyph glyph-name="tcaron" unicode="&#x165;" horiz-adv-x="509" 
d="M9 0zM483 179h-62q-45 0 -67.5 7.5t-30.5 31.5q-4 12 -6 30.5t-2 43.5v113h168v175h-168v151h-164q-1 -21 -2.5 -45t-6.5 -44q-7 -32 -19.5 -46t-39.5 -19q-17 -4 -34.5 -5.5t-39.5 -2.5v-164h113v-144q0 -95 20.5 -152.5t72.5 -83.5q26 -12 63 -18.5t85 -6.5h120v179z
M398 643h121l105 198h-166z" />
    <glyph glyph-name="Tbar" unicode="&#x166;" horiz-adv-x="667" 
d="M552 230v157h-117v145h206v185h-615v-185h201v-145h-112v-157h112v-230h208v230h117z" />
    <glyph glyph-name="tbar" unicode="&#x167;" horiz-adv-x="509" 
d="M483 179h-61q-39 0 -62 5t-33 21q-5 8 -8.5 20t-4.5 28h121v89h-122v63h170v175h-170v152h-162q-1 -21 -3.5 -45.5t-7.5 -43.5q-7 -31 -19.5 -45.5t-38.5 -19.5q-16 -5 -34 -7.5t-39 -3.5v-162h111v-63h-85v-89h85q1 -91 22.5 -147t75.5 -81q27 -12 64.5 -18.5t85.5 -6.5
h115v179z" />
    <glyph glyph-name="Utilde" unicode="&#x168;" horiz-adv-x="756" 
d="M49 0zM378 -17q157 0 243 84t86 271v379h-215v-374q0 -92 -26.5 -128.5t-86.5 -36.5q-58 0 -87 37.5t-29 127.5v374h-214v-379q0 -185 79.5 -270t249.5 -85zM147 776h116q1 28 8.5 40.5t26.5 12.5q25 0 50 -14.5t55 -28.5q16 -8 34 -11.5t39 -3.5q78 0 108.5 46.5
t30.5 140.5h-117q0 -28 -8 -39.5t-29 -11.5q-22 0 -47 14t-57 28q-15 7 -33 10.5t-39 3.5q-76 0 -107 -47.5t-31 -139.5z" />
    <glyph glyph-name="utilde" unicode="&#x169;" horiz-adv-x="703" 
d="M47 0zM477 0h174v580h-208v-286q0 -61 -22.5 -97t-75.5 -36q-55 0 -74 32.5t-19 90.5v296h-205v-354q0 -113 53.5 -176t161.5 -63q77 0 125 34t70 92zM115 636h116q1 28 8.5 40.5t26.5 12.5q25 0 50 -14.5t55 -28.5q16 -8 34 -11.5t39 -3.5q78 0 108.5 46.5t30.5 140.5
h-117q0 -28 -8 -39.5t-29 -11.5q-22 0 -47 14t-57 28q-15 7 -33 10.5t-39 3.5q-76 0 -107 -47.5t-31 -139.5z" />
    <glyph glyph-name="Umacron" unicode="&#x16a;" horiz-adv-x="756" 
d="M49 0zM378 -17q157 0 243 84t86 271v379h-215v-374q0 -92 -26.5 -128.5t-86.5 -36.5q-58 0 -87 37.5t-29 127.5v374h-214v-379q0 -185 79.5 -270t249.5 -85zM210 782h347v130h-347v-130z" />
    <glyph glyph-name="umacron" unicode="&#x16b;" horiz-adv-x="702" 
d="M47 0zM477 0h174v580h-208v-286q0 -61 -22.5 -97t-75.5 -36q-55 0 -74 32.5t-19 90.5v296h-205v-354q0 -113 53.5 -176t161.5 -63q77 0 125 34t70 92zM178 642h347v130h-347v-130z" />
    <glyph glyph-name="Ubreve" unicode="&#x16c;" horiz-adv-x="756" 
d="M49 0zM378 -17q157 0 243 84t86 271v379h-215v-374q0 -92 -26.5 -128.5t-86.5 -36.5q-58 0 -87 37.5t-29 127.5v374h-214v-379q0 -185 79.5 -270t249.5 -85zM381 775q110 0 163.5 54.5t53.5 158.5h-130q0 -48 -21 -69t-66 -22q-46 1 -66 22t-20 69h-129
q0 -104 48.5 -158.5t166.5 -54.5z" />
    <glyph glyph-name="ubreve" unicode="&#x16d;" horiz-adv-x="702" 
d="M47 0zM477 0h174v580h-208v-286q0 -61 -22.5 -97t-75.5 -36q-55 0 -74 32.5t-19 90.5v296h-205v-354q0 -113 53.5 -176t161.5 -63q77 0 125 34t70 92zM350 635q110 0 163.5 54.5t53.5 158.5h-130q0 -48 -21 -69t-66 -22q-46 1 -66 22t-20 69h-129q0 -104 48.5 -158.5
t166.5 -54.5z" />
    <glyph glyph-name="Uring" unicode="&#x16e;" horiz-adv-x="756" 
d="M49 0zM378 -17q157 0 243 84t86 271v379h-215v-374q0 -92 -26.5 -128.5t-86.5 -36.5q-58 0 -87 37.5t-29 127.5v374h-214v-379q0 -185 79.5 -270t249.5 -85zM379 773q77 0 122 40t45 109q0 71 -46 110.5t-121 39.5q-71 0 -117.5 -39t-46.5 -113q0 -70 44 -108.5
t120 -38.5zM380 880q-22 0 -33.5 10.5t-11.5 31.5q0 22 11.5 33t33.5 11q23 0 34 -11t11 -33q0 -20 -13 -31t-32 -11z" />
    <glyph glyph-name="uring" unicode="&#x16f;" horiz-adv-x="703" 
d="M47 0zM477 0h174v580h-208v-286q0 -61 -22.5 -97t-75.5 -36q-55 0 -74 32.5t-19 90.5v296h-205v-354q0 -113 53.5 -176t161.5 -63q77 0 125 34t70 92zM349 634q77 0 122 40t45 109q0 71 -46 110.5t-121 39.5q-71 0 -117.5 -39t-46.5 -113q0 -70 44 -108.5t120 -38.5z
M350 741q-22 0 -33.5 10.5t-11.5 31.5q0 22 11.5 33t33.5 11q23 0 34 -11t11 -33q0 -20 -13 -31t-32 -11z" />
    <glyph glyph-name="Uhungarumlaut" unicode="&#x170;" horiz-adv-x="756" 
d="M49 0zM378 -17q157 0 243 84t86 271v379h-215v-374q0 -92 -26.5 -128.5t-86.5 -36.5q-58 0 -87 37.5t-29 127.5v374h-214v-379q0 -185 79.5 -270t249.5 -85zM498 984h-166l-114 -206h116zM716 984h-169l-121 -206h119z" />
    <glyph glyph-name="uhungarumlaut" unicode="&#x171;" horiz-adv-x="702" 
d="M47 0zM477 0h174v580h-208v-286q0 -61 -22.5 -97t-75.5 -36q-55 0 -74 32.5t-19 90.5v296h-205v-354q0 -113 53.5 -176t161.5 -63q77 0 125 34t70 92zM467 844h-166l-114 -206h116zM685 844h-169l-121 -206h119z" />
    <glyph glyph-name="Uogonek" unicode="&#x172;" horiz-adv-x="756" 
d="M426 -260q88 0 143 39t77 117h-158q-5 -22 -18.5 -33t-34.5 -11q-20 0 -32 8.5t-12 25.5q0 14 9.5 28t37.5 35q14 11 35.5 25t50.5 32q89 32 136 113.5t47 218.5v379h-215v-374q0 -92 -26.5 -128.5t-86.5 -36.5q-58 0 -87 37.5t-29 127.5v374h-214v-379q0 -162 60.5 -247
t189.5 -103q-31 -29 -42 -57t-11 -56q0 -65 46 -100t134 -35z" />
    <glyph glyph-name="uogonek" unicode="&#x173;" horiz-adv-x="702" 
d="M761 -117h-158q-5 -22 -18.5 -33t-34.5 -11q-20 0 -32 8.5t-12 25.5q0 14 10 28.5t41 37.5q16 11 39.5 26.5t54.5 34.5v580h-208v-286q0 -61 -22.5 -97t-75.5 -36q-55 0 -74 32.5t-19 90.5v296h-205v-354q0 -113 53.5 -176t161.5 -63q77 0 125 34t70 92l17 -94
q-69 -42 -91 -80.5t-22 -76.5q0 -65 46 -100t134 -35t143 39t77 117z" />
    <glyph glyph-name="Wcircumflex" unicode="&#x174;" horiz-adv-x="1101" 
d="M0 0zM680 0h195l230 717h-207l-129 -431l-140 431h-162l-155 -426l-106 426h-209l193 -717h193l158 415zM619 782h147l-149 219h-130l-150 -219h147l68 110z" />
    <glyph glyph-name="wcircumflex" unicode="&#x175;" horiz-adv-x="962" 
d="M0 0zM591 0h179l198 580h-199l-105 -333l-121 333h-133l-129 -332l-87 332h-202l169 -580h184l129 309zM547 645h147l-149 219h-130l-150 -219h147l68 110z" />
    <glyph glyph-name="Ycircumflex" unicode="&#x176;" horiz-adv-x="695" 
d="M0 0zM446 0v278l263 439h-224l-143 -246l-136 246h-224l251 -437v-280h213zM412 777h147l-149 219h-130l-150 -219h147l68 110z" />
    <glyph glyph-name="ycircumflex" unicode="&#x177;" horiz-adv-x="675" 
d="M0 0zM133 -230q63 0 105 7.5t72 28.5q30 22 56 63t56 108l268 603h-211l-136 -336l-138 336h-217l251 -551l-8 -18q-13 -29 -26.5 -45t-35.5 -22q-10 -4 -24.5 -5.5t-32.5 -1.5h-81v-167h102zM407 640h147l-149 219h-130l-150 -219h147l68 110z" />
    <glyph glyph-name="Ydieresis" unicode="&#x178;" horiz-adv-x="695" 
d="M0 0zM446 0v278l263 439h-224l-143 -246l-136 246h-224l251 -437v-280h213zM460 773q50 0 71 19.5t21 68.5q0 52 -22 71.5t-70 19.5q-49 0 -70.5 -19.5t-21.5 -71.5q0 -51 19.5 -69.5t72.5 -18.5zM230 773q50 0 71 19.5t21 68.5q0 52 -21.5 71.5t-70.5 19.5t-70.5 -19.5
t-21.5 -71.5q0 -51 20 -69.5t72 -18.5z" />
    <glyph glyph-name="Zacute" unicode="&#x179;" horiz-adv-x="697" 
d="M29 0zM664 0v186h-341l340 372v159h-613v-182h340l-361 -391v-144h635zM287 782h145l192 206h-195z" />
    <glyph glyph-name="zacute" unicode="&#x17a;" horiz-adv-x="637" 
d="M24 0zM612 0l1 162h-315l312 266v152h-569v-158h310l-327 -278v-144h588zM250 643h145l192 206h-195z" />
    <glyph glyph-name="Zdotaccent" unicode="&#x17b;" horiz-adv-x="697" 
d="M29 0zM664 0v186h-341l340 372v159h-613v-182h340l-361 -391v-144h635zM362 778q58 0 83 21.5t25 80.5q0 62 -25.5 82.5t-82.5 20.5q-58 0 -83.5 -20.5t-25.5 -82.5q0 -41 9.5 -63t33.5 -31q12 -4 28.5 -6t37.5 -2z" />
    <glyph glyph-name="zdotaccent" unicode="&#x17c;" horiz-adv-x="637" 
d="M24 0zM612 0l1 162h-315l312 266v152h-569v-158h310l-327 -278v-144h588zM328 640q58 0 83 21.5t25 80.5q0 62 -25.5 82.5t-82.5 20.5q-58 0 -83.5 -20.5t-25.5 -82.5q0 -41 9.5 -63t33.5 -31q12 -4 28.5 -6t37.5 -2z" />
    <glyph glyph-name="Zcaron" unicode="&#x17d;" horiz-adv-x="697" 
d="M29 0zM664 0v186h-341l340 372v159h-613v-182h340l-361 -391v-144h635zM427 782l149 221h-145l-69 -109l-66 109h-149l151 -221h129z" />
    <glyph glyph-name="zcaron" unicode="&#x17e;" horiz-adv-x="637" 
d="M24 0zM612 0l1 162h-315l312 266v152h-569v-158h310l-327 -278v-144h588zM390 645l149 221h-145l-69 -109l-66 109h-149l151 -221h129z" />
    <glyph glyph-name="uni0192" unicode="&#x192;" horiz-adv-x="472" 
d="M330 34v219h132v175h-131v128q0 38 5.5 58t21.5 27q8 3 20 5t28 2h58v163h-89q-125 0 -182.5 -52.5t-57.5 -173.5v-157h-127v-175h126v-193q0 -40 -6 -59t-23 -25q-8 -3 -20.5 -4.5t-29.5 -1.5h-58v-169h85q95 0 149 21.5t76 72.5q12 25 17.5 60t5.5 79z" />
    <glyph glyph-name="Aringacute" unicode="&#x1fa;" horiz-adv-x="764" 
d="M313 959h145l192 206h-195zM384 719q-22 0 -33.5 10.5t-11.5 31.5q0 22 11.5 33t33.5 11q23 0 34 -11t11 -33q0 -20 -13 -31t-32 -11zM461 282h-159l79 224zM248 125h269l45 -125h211l-259 661q18 20 27 45t9 55q0 71 -46 110.5t-121 39.5q-71 0 -117.5 -39t-46.5 -113
q0 -29 8 -53t23 -43l-259 -663h213z" />
    <glyph glyph-name="aringacute" unicode="&#x1fb;" horiz-adv-x="707" 
d="M23 0zM311 123q-35 0 -52.5 11.5t-17.5 34.5v1q0 13 6 23.5t18 18.5q14 8 36 13.5t67 11.5q35 6 58 13t36 18v-24q0 -30 -20 -58t-54 -45q-17 -9 -36 -13.5t-41 -4.5zM489 0h172v359q0 116 -70 175.5t-228 59.5q-150 0 -231.5 -59.5t-90.5 -166.5h209q2 38 29.5 58
t87.5 20q54 0 74 -15t20 -38q0 -25 -30.5 -35.5t-111.5 -18.5q-57 -7 -95.5 -13.5t-65.5 -14.5q-13 -5 -26 -10.5t-26 -12.5q-40 -22 -61.5 -58t-21.5 -88q0 -76 51.5 -117.5t154.5 -41.5q94 0 152.5 35t86.5 88zM370 641q77 0 122 40t45 109q0 71 -46 110.5t-121 39.5
q-71 0 -117.5 -39t-46.5 -113q0 -70 44 -108.5t120 -38.5zM371 748q-22 0 -33.5 10.5t-11.5 31.5q0 22 11.5 33t33.5 11q23 0 34 -11t11 -33q0 -20 -13 -31t-32 -11zM309 988h145l192 206h-195z" />
    <glyph glyph-name="AEacute" unicode="&#x1fc;" horiz-adv-x="1107" 
d="M0 0zM505 288h-164l118 226zM564 0h512v175h-358l-25 112h331v151h-363l-24 111h426v168h-691l-396 -717h216l67 130h278zM422 781h145l192 206h-195z" />
    <glyph glyph-name="aeacute" unicode="&#x1fd;" horiz-adv-x="1162" 
d="M24 0zM796 444q57 0 87.5 -23t38.5 -70h-261q11 47 44.5 70t90.5 23zM311 123q-35 0 -53 12t-18 35q0 13 6 23.5t18 17.5q14 8 36.5 13t64.5 10q34 5 57.5 11t38.5 15v-16q0 -30 -20 -58t-54 -45q-17 -9 -36 -13.5t-40 -4.5zM1120 185h-219q-13 -23 -37 -36t-68 -13
q-62 0 -95.5 25t-41.5 74h466v61q0 84 -35 151.5t-107 106.5q-37 20 -83.5 30t-103.5 10q-70 0 -125.5 -17.5t-95.5 -49.5q-33 33 -87 50t-132 17q-145 0 -225 -59.5t-89 -166.5h209q2 35 29 57t85 22q52 0 73.5 -16.5t21.5 -40.5q0 -25 -31 -34t-110 -17
q-57 -6 -95.5 -12.5t-65.5 -15.5q-13 -5 -26 -10.5t-26 -12.5q-41 -22 -61.5 -58t-20.5 -86q0 -76 53.5 -118.5t163.5 -42.5q99 0 166 33.5t101 87.5q34 -56 102 -88.5t177 -32.5q141 0 222.5 51t110.5 151zM501 635h145l192 206h-195z" />
    <glyph glyph-name="Oslashacute" unicode="&#x1fe;" horiz-adv-x="783" 
d="M33 0zM391 167q-72 0 -108 43t-36 128v35q0 88 36 132t108 44q73 0 109 -44t36 -132v-35q0 -88 -37 -129.5t-108 -41.5zM391 -17q108 0 188.5 38t125.5 116q23 39 34 88t11 108v46q0 92 -29 160t-82 113l72 158h-196l-37 -84q-21 4 -42 5.5t-44 1.5q-107 0 -188 -41
t-126 -120q-22 -39 -33.5 -87.5t-11.5 -106.5v-44q0 -100 30.5 -170t86.5 -113l-74 -159h203l42 95q17 -2 34.5 -3t35.5 -1zM273 793h145l192 206h-195z" />
    <glyph glyph-name="oslashacute" unicode="&#x1ff;" horiz-adv-x="723" 
d="M29 0zM362 153q-61 0 -94 32.5t-33 96.5v9q0 68 34 102t94 34q61 0 93 -34t32 -102v-9q0 -64 -31.5 -96.5t-94.5 -32.5zM360 -17q159 0 246.5 77.5t87.5 219.5v11q0 80 -28 140t-81 99l71 132h-179l-40 -74q-18 3 -36.5 4.5t-38.5 1.5q-100 0 -175 -36t-116 -104
q-21 -34 -31.5 -75t-10.5 -89v-10q0 -84 27.5 -145t82.5 -98l-69 -127h180l41 77q17 -2 34 -3t35 -1zM263 660h145l192 206h-195z" />
    <glyph glyph-name="uni0218" unicode="&#x218;" horiz-adv-x="710" 
d="M10 0zM364 -17q166 0 246 66.5t80 174.5q0 78 -36.5 122t-99.5 65q-31 11 -66.5 19t-75.5 13q-91 11 -132.5 24t-41.5 47q0 26 22.5 43.5t78.5 17.5q61 0 92.5 -19t37.5 -64v-1h212v1q-13 124 -97 183t-240 59q-154 0 -234 -63.5t-80 -165.5q0 -76 34.5 -119t94.5 -65
q30 -10 63.5 -18t71.5 -13q95 -12 142 -25t47 -52q0 -29 -26 -47t-83 -18q-65 0 -101.5 23.5t-41.5 73.5v2h-221v-1q7 -85 42.5 -144t110.5 -89q38 -15 88 -22.5t113 -7.5zM282 -332q104 4 145.5 47.5t41.5 117.5q0 57 -22.5 79t-79.5 22q-55 0 -78.5 -18t-23.5 -59
q0 -44 20 -57t66 -13q8 0 15.5 0.5t14.5 2.5q-6 -25 -30.5 -38.5t-68.5 -16.5v-67z" />
    <glyph glyph-name="uni0219" unicode="&#x219;" horiz-adv-x="656" 
d="M6 0zM333 -17q105 0 173 26.5t100 72.5q17 23 25 49.5t8 56.5q0 65 -32.5 100.5t-91.5 51.5q-29 8 -64 14t-75 9q-79 7 -115.5 15.5t-36.5 32.5q0 20 19 33t69 13t79 -15t37 -45h205q-22 95 -97 146.5t-220 51.5q-142 0 -214.5 -54.5t-72.5 -143.5q0 -65 32.5 -100.5
t90.5 -50.5q29 -8 63 -13.5t72 -8.5q78 -6 116 -14.5t38 -34.5q0 -22 -21.5 -35t-71.5 -13q-56 0 -86 16t-41 50h-215q17 -106 100.5 -158t226.5 -52zM259 -332q104 4 145.5 47.5t41.5 117.5q0 57 -22.5 79t-79.5 22q-55 0 -78.5 -18t-23.5 -59q0 -44 20 -57t66 -13
q8 0 15.5 0.5t14.5 2.5q-6 -25 -30.5 -38.5t-68.5 -16.5v-67z" />
    <glyph glyph-name="uni0237" unicode="&#x237;" horiz-adv-x="314" 
d="M-71 -258h92q72 0 119.5 10t73.5 34q27 25 38 68.5t11 110.5v615h-210v-576q0 -39 -5.5 -58.5t-22.5 -25.5q-9 -3 -21.5 -4.5t-28.5 -1.5h-46v-172z" />
    <glyph glyph-name="uni0245" unicode="&#x245;" horiz-adv-x="764" 
d="M561 0h212l-281 717h-221l-280 -717h214l175 504z" />
    <glyph glyph-name="circumflex" unicode="&#x2c6;" horiz-adv-x="587" 
d="M361 663h147l-149 219h-130l-150 -219h147l68 110z" />
    <glyph glyph-name="caron" unicode="&#x2c7;" horiz-adv-x="587" 
d="M358 663l149 221h-145l-69 -109l-66 109h-149l151 -221h129z" />
    <glyph glyph-name="breve" unicode="&#x2d8;" horiz-adv-x="587" 
d="M291 660q110 0 163.5 54.5t53.5 158.5h-130q0 -48 -21 -69t-66 -22q-46 1 -66 22t-20 69h-129q0 -104 48.5 -158.5t166.5 -54.5z" />
    <glyph glyph-name="dotaccent" unicode="&#x2d9;" horiz-adv-x="589" 
d="M288 659q58 0 83 21.5t25 80.5q0 62 -25.5 82.5t-82.5 20.5q-58 0 -83.5 -20.5t-25.5 -82.5q0 -41 9.5 -63t33.5 -31q12 -4 28.5 -6t37.5 -2z" />
    <glyph glyph-name="ring" unicode="&#x2da;" horiz-adv-x="587" 
d="M292 657q77 0 122 40t45 109q0 71 -46 110.5t-121 39.5q-71 0 -117.5 -39t-46.5 -113q0 -70 44 -108.5t120 -38.5zM293 764q-22 0 -33.5 10.5t-11.5 31.5q0 22 11.5 33t33.5 11q23 0 34 -11t11 -33q0 -20 -13 -31t-32 -11z" />
    <glyph glyph-name="ogonek" unicode="&#x2db;" horiz-adv-x="587" 
d="M285 -273q88 0 143 39t77 117h-158q-5 -22 -18.5 -33t-34.5 -11q-20 0 -32 8.5t-12 25.5q0 14 10 28.5t41 37.5q16 11 39.5 26.5t54.5 34.5l-118 52q-71 -35 -108.5 -67t-50.5 -62q-6 -15 -9.5 -30.5t-3.5 -30.5q0 -65 46 -100t134 -35z" />
    <glyph glyph-name="tilde" unicode="&#x2dc;" horiz-adv-x="587" 
d="M61 661h116q1 28 8.5 40.5t26.5 12.5q25 0 50 -14.5t55 -28.5q16 -8 34 -11.5t39 -3.5q78 0 108.5 46.5t30.5 140.5h-117q0 -28 -8 -39.5t-29 -11.5q-22 0 -47 14t-57 28q-15 7 -33 10.5t-39 3.5q-76 0 -107 -47.5t-31 -139.5z" />
    <glyph glyph-name="hungarumlaut" unicode="&#x2dd;" horiz-adv-x="587" 
d="M336 869h-166l-114 -206h116zM554 869h-169l-121 -206h119z" />
    <glyph glyph-name="uni03BC" unicode="&#x3bc;" horiz-adv-x="705" 
d="M329 -13q53 0 85.5 25t48.5 72l15 -84h175v580h-207v-270q0 -65 -23 -106t-78 -41t-75 37t-20 95v285h-205v-783h201v218q16 -14 36.5 -21t46.5 -7z" />
    <glyph glyph-name="pi" unicode="&#x3c0;" horiz-adv-x="842" 
d="M493 228q0 -90 21 -139.5t74 -69.5q26 -9 63 -14t84 -5h78v177h-40q-32 0 -50.5 6t-26.5 25q-3 10 -5 24.5t-2 33.5v263h130v188h-796v-188h126v-529h197v529h147v-301z" />
    <glyph glyph-name="uni0E3F" unicode="&#xe3f;" horiz-adv-x="798" 
d="M257 434v128h91v-128h-91zM557 499q0 -34 -24.5 -49t-73.5 -16v128q52 0 75 -15t23 -48zM257 165v135h91v-135h-91zM565 233q0 -31 -22 -48.5t-84 -19.5v135q60 -2 83 -18t23 -49zM471 0q154 0 230.5 52.5t76.5 156.5q0 68 -31.5 105.5t-92.5 55.5q53 19 80 56.5
t27 100.5v2q0 94 -72 140.5t-230 47.5v112h-111v-112h-292v-717h292v-113h111v113h12z" />
    <glyph glyph-name="Wgrave" unicode="&#x1e80;" horiz-adv-x="1101" 
d="M0 0zM680 0h195l230 717h-207l-129 -431l-140 431h-162l-155 -426l-106 426h-209l193 -717h193l158 415zM485 782h139l-132 206h-196z" />
    <glyph glyph-name="wgrave" unicode="&#x1e81;" horiz-adv-x="962" 
d="M0 0zM591 0h179l198 580h-199l-105 -333l-121 333h-133l-129 -332l-87 332h-202l169 -580h184l129 309zM413 645h139l-132 206h-196z" />
    <glyph glyph-name="Wacute" unicode="&#x1e82;" horiz-adv-x="1101" 
d="M0 0zM680 0h195l230 717h-207l-129 -431l-140 431h-162l-155 -426l-106 426h-209l193 -717h193l158 415zM476 782h145l192 206h-195z" />
    <glyph glyph-name="wacute" unicode="&#x1e83;" horiz-adv-x="962" 
d="M0 0zM591 0h179l198 580h-199l-105 -333l-121 333h-133l-129 -332l-87 332h-202l169 -580h184l129 309zM403 645h145l192 206h-195z" />
    <glyph glyph-name="Wdieresis" unicode="&#x1e84;" horiz-adv-x="1101" 
d="M0 0zM680 0h195l230 717h-207l-129 -431l-140 431h-162l-155 -426l-106 426h-209l193 -717h193l158 415zM667 779q50 0 71 19.5t21 68.5q0 52 -22 71.5t-70 19.5q-49 0 -70.5 -19.5t-21.5 -71.5q0 -51 19.5 -69.5t72.5 -18.5zM437 779q50 0 71 19.5t21 68.5
q0 52 -21.5 71.5t-70.5 19.5t-70.5 -19.5t-21.5 -71.5q0 -51 20 -69.5t72 -18.5z" />
    <glyph glyph-name="wdieresis" unicode="&#x1e85;" horiz-adv-x="962" 
d="M0 0zM591 0h179l198 580h-199l-105 -333l-121 333h-133l-129 -332l-87 332h-202l169 -580h184l129 309zM594 642q50 0 71 19.5t21 68.5q0 52 -22 71.5t-70 19.5q-49 0 -70.5 -19.5t-21.5 -71.5q0 -51 19.5 -69.5t72.5 -18.5zM364 642q50 0 71 19.5t21 68.5
q0 52 -21.5 71.5t-70.5 19.5t-70.5 -19.5t-21.5 -71.5q0 -51 20 -69.5t72 -18.5z" />
    <glyph glyph-name="Ygrave" unicode="&#x1ef2;" horiz-adv-x="695" 
d="M0 0zM446 0v278l263 439h-224l-143 -246l-136 246h-224l251 -437v-280h213zM282 773h139l-132 206h-196z" />
    <glyph glyph-name="ygrave" unicode="&#x1ef3;" horiz-adv-x="675" 
d="M0 0zM133 -230q63 0 105 7.5t72 28.5q30 22 56 63t56 108l268 603h-211l-136 -336l-138 336h-217l251 -551l-8 -18q-13 -29 -26.5 -45t-35.5 -22q-10 -4 -24.5 -5.5t-32.5 -1.5h-81v-167h102zM273 640h139l-132 206h-196z" />
    <glyph glyph-name="figuredash" unicode="&#x2012;" horiz-adv-x="685" 
d="M643 403h-600v-195h600v195z" />
    <glyph glyph-name="endash" unicode="&#x2013;" horiz-adv-x="533" 
d="M491 403h-448v-195h448v195z" />
    <glyph glyph-name="emdash" unicode="&#x2014;" horiz-adv-x="761" 
d="M719 403h-676v-195h676v195z" />
    <glyph glyph-name="uni2015" unicode="&#x2015;" horiz-adv-x="1125" 
d="M1083 403h-1040v-195h1040v195z" />
    <glyph glyph-name="uni2016" unicode="&#x2016;" horiz-adv-x="630" 
d="M564 -52v831h-190v-831h190zM257 -52v831h-191v-831h191z" />
    <glyph glyph-name="underscoredbl" unicode="&#x2017;" horiz-adv-x="719" 
d="M699 157h-680v-157h680v157zM699 -59h-680v-156h680v156z" />
    <glyph glyph-name="quoteleft" unicode="&#x2018;" horiz-adv-x="313" 
d="M159 386q55 0 78 19.5t23 73.5q0 57 -19.5 73.5t-66.5 16.5h-8t-8 -1q5 36 25 53t59 21l-7 79q-90 -5 -133.5 -59t-43.5 -149q0 -73 22 -100t79 -27z" />
    <glyph glyph-name="quoteright" unicode="&#x2019;" horiz-adv-x="313" 
d="M79 386q92 7 135.5 60.5t43.5 149.5q0 73 -22.5 100t-79.5 27q-55 0 -77.5 -20t-22.5 -75q0 -38 8 -57t27 -25q10 -3 22.5 -4.5t28.5 -1.5h7.5t7.5 1q-4 -37 -24 -54t-60 -21z" />
    <glyph glyph-name="quotesinglbase" unicode="&#x201a;" horiz-adv-x="327" 
d="M86 -156q91 6 134.5 59.5t43.5 149.5q0 73 -22 100.5t-79 27.5q-55 0 -78 -20t-23 -74q0 -57 19 -73.5t67 -16.5h8t5 1q-5 -35 -25.5 -54t-55.5 -21z" />
    <glyph glyph-name="uni201B" unicode="&#x201b;" horiz-adv-x="313" 
d="M240 465q-36 3 -56.5 22t-24.5 54q2 0 5.5 -0.5t7.5 -0.5q32 0 51 6t27 25q4 10 6 24t2 33q0 55 -23 75t-78 20q-57 0 -79 -29.5t-22 -97.5q0 -96 43.5 -149.5t134.5 -60.5z" />
    <glyph glyph-name="quotedblleft" unicode="&#x201c;" horiz-adv-x="576" 
d="M422 386q55 0 77.5 19.5t22.5 73.5q0 57 -19 73.5t-67 16.5h-7.5t-7.5 -1q5 36 24.5 53.5t58.5 20.5l-6 79q-91 -5 -134.5 -59t-43.5 -149q0 -73 22.5 -100t79.5 -27zM159 386q55 0 78 19.5t23 73.5q0 57 -19.5 73.5t-66.5 16.5h-8t-8 -1q5 36 25 53.5t59 20.5l-7 79
q-90 -5 -133.5 -59t-43.5 -149q0 -73 22 -100t79 -27z" />
    <glyph glyph-name="quotedblright" unicode="&#x201d;" horiz-adv-x="576" 
d="M79 386q91 7 134.5 60.5t43.5 149.5q0 73 -22.5 100t-79.5 27q-55 0 -77.5 -20t-22.5 -75q0 -38 8 -57t27 -25q10 -3 22.5 -4.5t28.5 -1.5h7.5t7.5 1q-4 -37 -24 -54t-59 -21zM341 386q92 7 135 60.5t43 149.5q0 73 -22 100t-79 27q-55 0 -78 -20t-23 -75q0 -38 8 -57
t27 -25q10 -3 22.5 -4.5t28.5 -1.5h8t8 1q-4 -37 -24 -54t-60 -21z" />
    <glyph glyph-name="quotedblbase" unicode="&#x201e;" horiz-adv-x="582" 
d="M78 -156q91 6 134.5 59.5t43.5 149.5q0 73 -22.5 100.5t-78.5 27.5q-55 0 -78 -20t-23 -74q0 -57 19.5 -73.5t66.5 -16.5h8t8 1q-5 -36 -25 -53.5t-59 -21.5zM346 -156q92 6 135.5 59.5t43.5 149.5q0 73 -22.5 100.5t-79.5 27.5q-55 0 -78 -20t-23 -74q0 -57 19 -73.5
t68 -16.5h7.5t7.5 1q-4 -36 -24 -53.5t-60 -21.5z" />
    <glyph glyph-name="uni201F" unicode="&#x201f;" horiz-adv-x="586" 
d="M511 465q-38 3 -57 21t-24 55q3 -1 6 -1h6q32 0 51 6t28 25q4 10 6 24t2 33q0 55 -23 75t-79 20t-78 -29.5t-22 -97.5q0 -96 43 -149.5t134 -60.5zM238 465q-36 3 -56.5 22t-24.5 54q3 -1 6 -1h6q33 0 52 6t27 25q4 10 6 24t2 33q0 55 -22.5 75t-77.5 20q-57 0 -79 -29.5
t-22 -97.5q0 -96 43 -149.5t134 -60.5z" />
    <glyph glyph-name="dagger" unicode="&#x2020;" horiz-adv-x="665" 
d="M621 433v196h-188v203h-202v-203h-187v-196h187v-536h202v536h188z" />
    <glyph glyph-name="daggerdbl" unicode="&#x2021;" horiz-adv-x="665" 
d="M621 84v191h-188v176h188v189h-188v192h-203v-192h-186v-189h186v-176h-186v-191h186v-187h203v187h188z" />
    <glyph glyph-name="bullet" unicode="&#x2022;" horiz-adv-x="425" 
d="M212 155q69 0 101.5 29.5t32.5 102.5q0 76 -32.5 104t-101.5 28q-68 0 -100.5 -29.5t-32.5 -102.5t30 -102.5t103 -29.5z" />
    <glyph glyph-name="ellipsis" unicode="&#x2026;" horiz-adv-x="919" 
d="M756 -12q42 0 65 9t33 33q4 12 6.5 29.5t2.5 39.5q0 46 -10 70t-34 33q-11 5 -27 7t-36 2q-40 0 -64 -9t-35 -33q-6 -12 -8.5 -29.5t-2.5 -40.5q0 -46 10 -70t34 -32q12 -5 28.5 -7t37.5 -2zM462 -12q42 0 66 9t34 33q5 12 7.5 29.5t2.5 39.5q0 46 -11 70t-35 33
q-12 5 -28 7t-36 2q-39 0 -63.5 -9t-35.5 -33q-5 -12 -8 -29.5t-3 -40.5q0 -46 10 -70t34 -32q12 -5 28.5 -7t37.5 -2zM165 -12q42 0 65.5 9t32.5 33q5 12 7.5 29.5t2.5 39.5q0 46 -10.5 70t-33.5 33q-12 5 -28 7t-36 2q-40 0 -64 -9t-35 -33q-5 -12 -8 -29.5t-3 -40.5
q0 -46 10 -70t34 -32q12 -5 28.5 -7t37.5 -2z" />
    <glyph glyph-name="perthousand" unicode="&#x2030;" horiz-adv-x="1275" 
d="M194 399q86 0 134.5 42t48.5 117v5q0 77 -48.5 120t-131.5 43t-133 -43t-50 -120v-5q0 -76 45 -117.5t135 -41.5zM2 0h241q17 23 54.5 66.5l87.5 101.5t107 123t115 130q57 66 108 124t90 103q19 23 33.5 40t23.5 29h-231q-17 -23 -55 -67.5t-89 -102.5t-109 -123
l-116 -130q-59 -65 -111 -123.5t-91 -102.5q-19 -22 -33.5 -39t-24.5 -29zM195 512q-24 0 -36.5 12.5t-12.5 36.5v2q0 26 13.5 38t36.5 12t36 -12.5t13 -37.5v-2q0 -24 -13.5 -36.5t-36.5 -12.5zM1076 -9q87 0 135 41.5t48 117.5v5q0 77 -48.5 120t-131.5 43t-133 -43
t-50 -120v-5q0 -77 45 -118t135 -41zM671 -9q86 0 134 41.5t48 117.5v5q0 77 -48.5 120t-131.5 43t-133 -43t-50 -120v-5q0 -77 45 -118t136 -41zM1077 104q-23 0 -36.5 12.5t-13.5 36.5v2q0 26 14 38t36 12q23 0 36.5 -12.5t13.5 -37.5v-2q0 -24 -13.5 -36.5t-36.5 -12.5z
M671 104q-24 0 -36.5 12.5t-12.5 36.5v2q0 26 13.5 38t36.5 12q25 0 37 -12.5t12 -37.5v-2q0 -24 -13.5 -36.5t-36.5 -12.5z" />
    <glyph glyph-name="uni2032" unicode="&#x2032;" horiz-adv-x="232" 
d="M142 479l82 238h-173l-34 -238h125z" />
    <glyph glyph-name="uni2033" unicode="&#x2033;" horiz-adv-x="444" 
d="M356 479l81 238h-174l-32 -238h125zM142 479l83 238h-173l-35 -238h125z" />
    <glyph glyph-name="uni2034" unicode="&#x2034;" horiz-adv-x="763" 
d="M543 717v-18q0 -55 4 -108.5t10 -91.5q3 -19 6 -31.5t6 -18.5h130q5 12 11 50t11 91q3 27 4 54t1 55v18h-183zM291 717v-18q0 -55 4 -108.5t10 -91.5q3 -19 6 -31.5t6 -18.5h130q5 12 11.5 50t10.5 91q3 27 4 54t1 55v18h-183zM39 717v-18q0 -55 4 -108.5t10 -91.5
q3 -19 6 -31.5t6 -18.5h130q5 12 11 50t11 91q3 27 4 54t1 55v18h-183z" />
    <glyph glyph-name="guilsinglleft" unicode="&#x2039;" horiz-adv-x="442" 
d="M416 89l-179 221l162 215h-185l-157 -213v-20l166 -203h193z" />
    <glyph glyph-name="guilsinglright" unicode="&#x203a;" horiz-adv-x="442" 
d="M220 89l165 203v20l-157 213h-184l162 -215l-180 -221h194z" />
    <glyph glyph-name="exclamdbl" unicode="&#x203c;" horiz-adv-x="695" 
d="M406 717v-124q0 -89 7 -161.5t16 -120.5q5 -24 9 -39.5t8 -23.5q12 3 30 4t42 1q23 0 40 -1.5t30 -3.5q7 15 16.5 63t16.5 121q3 36 5 76.5t2 84.5v124h-222zM70 717v-124q0 -89 7 -161.5t16 -120.5q5 -24 9 -39.5t8 -23.5q12 3 30 4t42 1q23 0 40 -1.5t30 -3.5
q7 15 16.5 63t17.5 121q3 36 5 76.5t2 84.5v124h-223zM514 -14q67 0 95 24t28 85q0 62 -29 85t-94 23q-64 0 -93 -23t-29 -85q0 -63 26 -86t96 -23zM179 -14q65 0 93.5 24t28.5 85q0 62 -28.5 85t-93.5 23t-94 -23t-29 -85q0 -63 26 -86t97 -23z" />
    <glyph glyph-name="uni203D" unicode="&#x203d;" horiz-adv-x="721" 
d="M427 227l5 33q4 27 24 43t48 27q29 11 60 22.5t58 30.5q28 19 45 51t17 83q0 97 -77.5 155.5t-244.5 58.5q-170 0 -248.5 -69t-79.5 -194v-14h185v10q0 44 16 71t51 39v-26q0 -100 1 -158.5t2 -92.5q2 -24 3.5 -41t5.5 -29q11 3 27.5 4.5t38.5 1.5t36 -1.5t27 -4.5z
M430 548v30q37 -8 53.5 -26.5t16.5 -48.5q0 -24 -10.5 -37.5t-27.5 -22.5q-9 -5 -18 -10.5t-19 -11.5q2 30 3.5 63t1.5 64zM363 -13q70 0 99 22t29 80t-30 79.5t-98 21.5q-67 0 -96.5 -21.5t-29.5 -79.5q0 -59 26.5 -80.5t99.5 -21.5z" />
    <glyph glyph-name="fraction" unicode="&#x2044;" 
d="M580 398l335 239l-161 130l-221 -330zM442 349l-343 -252l163 -138l224 351z" />
    <glyph glyph-name="uni2070" unicode="&#x2070;" horiz-adv-x="393" 
d="M21 350zM195 350q84 0 129.5 45t45.5 131v22q0 85 -47.5 131t-125.5 46q-81 0 -128.5 -46.5t-47.5 -130.5v-22q0 -86 44.5 -131t129.5 -45zM195 464q-23 0 -35 16.5t-12 48.5v17q0 33 12 49t35 16q25 0 35.5 -16.5t10.5 -48.5v-17q0 -32 -11.5 -48.5t-34.5 -16.5z" />
    <glyph glyph-name="uni2074" unicode="&#x2074;" horiz-adv-x="377" 
d="M11 359zM204 511h-68l68 74v-74zM369 419v92h-56v206h-103l-199 -217v-81h193v-60h109v60h56z" />
    <glyph glyph-name="uni2075" unicode="&#x2075;" horiz-adv-x="377" 
d="M20 352zM191 352q90 0 130 35t40 95q0 57 -31.5 85.5t-94.5 28.5q-29 0 -51 -7t-39 -20l9 51h84q61 0 81.5 19.5t20.5 77.5h-283l-29 -202l117 -25l2 2q8 10 19.5 16.5t27.5 6.5q22 0 32.5 -8.5t10.5 -25.5q0 -15 -10.5 -25t-33.5 -10q-19 0 -28.5 7t-10.5 21v1h-134
q2 -61 42 -92t129 -31z" />
    <glyph glyph-name="uni2076" unicode="&#x2076;" horiz-adv-x="391" 
d="M23 350zM369 479q0 53 -31.5 78t-94.5 25q-33 0 -58 -10.5t-42 -32.5v11q0 38 14 57t42 19q19 0 27.5 -7t11.5 -18h127q-8 62 -49.5 93t-116.5 31q-83 0 -129.5 -46t-46.5 -132v-22q0 -83 42 -129t138 -46q77 0 121.5 34t44.5 95zM204 451q-22 0 -36 9t-20 27
q10 11 24 18t35 7t31.5 -7t10.5 -22q0 -16 -11 -24t-34 -8z" />
    <glyph glyph-name="uni2077" unicode="&#x2077;" horiz-adv-x="332" 
d="M11 359zM178 359q20 71 55.5 137.5t89.5 127.5v93h-312v-107h179q-43 -46 -85 -112.5t-68 -138.5h141z" />
    <glyph glyph-name="uni2078" unicode="&#x2078;" horiz-adv-x="387" 
d="M18 352zM191 352q88 0 132 27t44 80q0 32 -16.5 52t-44.5 30q26 10 40 28.5t14 47.5q0 51 -44 79t-122 28q-79 0 -122 -28t-43 -79q0 -29 13 -48t38 -28q-28 -10 -45 -31t-17 -52q0 -54 41 -80t132 -26zM189 574q-21 0 -32 7t-11 20q0 14 12 21t36 7q26 0 37.5 -7
t11.5 -21q0 -13 -11.5 -20t-34.5 -7h-8zM193 449q-26 0 -39.5 7t-13.5 21q0 15 12 22t36 7h9q25 0 37.5 -7t12.5 -21t-13.5 -21.5t-40.5 -7.5z" />
    <glyph glyph-name="uni2079" unicode="&#x2079;" horiz-adv-x="384" 
d="M15 349zM182 561q-22 0 -33.5 7.5t-11.5 22.5q0 17 12 25t35 8t37 -9.5t20 -29.5q-9 -10 -23 -17t-36 -7zM186 349q88 0 132.5 45.5t44.5 130.5v23q0 85 -44 130t-134 45q-83 0 -126 -35t-43 -94q0 -53 35 -78t97 -25q33 0 57 10.5t40 31.5v-9q0 -38 -14.5 -57t-43.5 -19
q-19 0 -28 7t-11 18h-133q8 -62 51.5 -93t119.5 -31z" />
    <glyph glyph-name="uni207A" unicode="&#x207a;" horiz-adv-x="366" 
d="M39 396zM322 483v104h-89v87h-105v-87h-89v-104h89v-87h105v87h89z" />
    <glyph glyph-name="uni207B" unicode="&#x207b;" horiz-adv-x="366" 
d="M39 479zM322 479v112h-283v-112h283z" />
    <glyph glyph-name="uni207C" unicode="&#x207c;" horiz-adv-x="366" 
d="M49 416zM314 561v96h-265v-96h265zM314 416v96h-265v-96h265z" />
    <glyph glyph-name="uni207D" unicode="&#x207d;" horiz-adv-x="288" 
d="M33 231zM33 518q0 -102 28 -163t80 -90q26 -15 56.5 -23.5t66.5 -10.5v135q-51 5 -78 38t-27 118v13q0 88 26.5 124.5t78.5 43.5v124q-70 -5 -122 -35.5t-81 -92.5q-14 -31 -21 -72t-7 -91v-18z" />
    <glyph glyph-name="uni207E" unicode="&#x207e;" horiz-adv-x="288" 
d="M22 231zM22 231q72 5 124 34t80 90q14 30 21 71t7 92v18q0 101 -28.5 163t-80.5 92q-26 15 -57 24t-66 12v-124q51 -7 78 -43.5t27 -124.5v-13q0 -85 -27 -118t-78 -38v-135z" />
    <glyph glyph-name="uni2080" unicode="&#x2080;" horiz-adv-x="393" 
d="M196 -9q84 0 129.5 45t45.5 131v22q0 85 -47.5 131t-125.5 46q-81 0 -128.5 -46.5t-47.5 -130.5v-22q0 -86 44.5 -131t129.5 -45zM196 105q-23 0 -35 16.5t-12 48.5v17q0 33 12 49t35 16q25 0 35.5 -16.5t10.5 -48.5v-17q0 -32 -11.5 -48.5t-34.5 -16.5z" />
    <glyph glyph-name="uni2081" unicode="&#x2081;" horiz-adv-x="305" 
d="M288 0v110h-72v248h-98q-7 -29 -27.5 -47t-54.5 -20v-88h62v-93h-79v-110h269z" />
    <glyph glyph-name="uni2082" unicode="&#x2082;" horiz-adv-x="368" 
d="M346 0v102h-191q15 10 39 17t50 16q27 9 51 23t39 36q7 10 11 24t4 31q0 53 -37.5 84.5t-121.5 31.5q-82 0 -124 -34.5t-43 -98.5v-10h124v7q0 17 9 27.5t33 10.5q22 0 30.5 -6.5t8.5 -17.5q0 -17 -21 -26.5t-52 -17.5t-62 -21.5t-52 -38.5q-10 -12 -15.5 -29t-5.5 -38
v-72h326z" />
    <glyph glyph-name="uni2083" unicode="&#x2083;" horiz-adv-x="370" 
d="M184 -8q86 0 128 30.5t42 82.5q0 35 -17.5 54t-46.5 26q28 8 42.5 26t14.5 49q0 45 -39 74.5t-120 29.5q-83 0 -125 -33t-42 -95v-6h120v3q0 15 10 23t34 8q21 0 29.5 -6t8.5 -17t-7.5 -17.5t-26.5 -6.5h-42v-77h43q22 0 30 -5t8 -16q0 -12 -9 -18.5t-34 -6.5
q-27 0 -36.5 8t-9.5 24v3h-125v-7q1 -67 38.5 -98.5t131.5 -31.5z" />
    <glyph glyph-name="uni2084" unicode="&#x2084;" horiz-adv-x="377" 
d="M205 152h-68l68 74v-74zM370 60v92h-56v206h-103l-199 -217v-81h193v-60h109v60h56z" />
    <glyph glyph-name="uni2085" unicode="&#x2085;" horiz-adv-x="377" 
d="M192 -7q90 0 130 35t40 95q0 57 -31.5 85.5t-94.5 28.5q-29 0 -51 -7t-39 -20l9 51h84q61 0 81.5 19.5t20.5 77.5h-283l-29 -202l117 -25l2 2q8 10 19.5 16.5t27.5 6.5q22 0 32.5 -8.5t10.5 -25.5q0 -15 -10.5 -25t-33.5 -10q-19 0 -28.5 7t-10.5 21v1h-134q2 -61 42 -92
t129 -31z" />
    <glyph glyph-name="uni2086" unicode="&#x2086;" horiz-adv-x="391" 
d="M370 120q0 53 -31.5 78t-94.5 25q-33 0 -58 -10.5t-42 -32.5v11q0 38 14 57t42 19q19 0 27.5 -7t11.5 -18h127q-8 62 -49.5 93t-116.5 31q-83 0 -129.5 -46t-46.5 -132v-22q0 -83 42 -129t138 -46q77 0 121.5 34t44.5 95zM205 92q-22 0 -36 9t-20 27q10 11 24 18t35 7
t31.5 -7t10.5 -22q0 -16 -11 -24t-34 -8z" />
    <glyph glyph-name="uni2087" unicode="&#x2087;" horiz-adv-x="332" 
d="M179 0q20 71 55.5 137.5t89.5 127.5v93h-312v-107h179q-43 -46 -85 -112.5t-68 -138.5h141z" />
    <glyph glyph-name="uni2088" unicode="&#x2088;" horiz-adv-x="387" 
d="M192 -7q88 0 132 27t44 80q0 32 -16.5 52t-44.5 30q26 10 40 28.5t14 47.5q0 51 -44 79t-122 28q-79 0 -122 -28t-43 -79q0 -29 13 -48t38 -28q-28 -10 -45 -31t-17 -52q0 -54 41 -80t132 -26zM190 215q-21 0 -32 7t-11 20q0 14 12 21t36 7q26 0 37.5 -7t11.5 -21
q0 -13 -11.5 -20t-34.5 -7h-8zM194 90q-26 0 -39.5 7t-13.5 21q0 15 12 22t36 7h9q25 0 37.5 -7t12.5 -21t-13.5 -21.5t-40.5 -7.5z" />
    <glyph glyph-name="uni2089" unicode="&#x2089;" horiz-adv-x="384" 
d="M183 202q-22 0 -33.5 7.5t-11.5 22.5q0 17 12 25t35 8t37 -9.5t20 -29.5q-9 -10 -23 -17t-36 -7zM187 -10q88 0 132.5 45.5t44.5 130.5v23q0 85 -44 130t-134 45q-83 0 -126 -35t-43 -94q0 -53 35 -78t97 -25q33 0 57 10.5t40 31.5v-9q0 -38 -14.5 -57t-43.5 -19
q-19 0 -28 7t-11 18h-133q8 -62 51.5 -93t119.5 -31z" />
    <glyph glyph-name="uni208A" unicode="&#x208a;" horiz-adv-x="366" 
d="M323 124v104h-89v87h-105v-87h-89v-104h89v-87h105v87h89z" />
    <glyph glyph-name="uni208B" unicode="&#x208b;" horiz-adv-x="366" 
d="M323 120v112h-283v-112h283z" />
    <glyph glyph-name="uni208C" unicode="&#x208c;" horiz-adv-x="366" 
d="M315 202v96h-265v-96h265zM315 57v96h-265v-96h265z" />
    <glyph glyph-name="uni208D" unicode="&#x208d;" horiz-adv-x="288" 
d="M34 159q0 -102 28 -163t80 -90q26 -15 56.5 -23.5t66.5 -10.5v135q-51 5 -78 38t-27 118v13q0 88 26.5 124.5t78.5 43.5v124q-70 -5 -122 -35.5t-81 -92.5q-14 -31 -21 -72t-7 -91v-18z" />
    <glyph glyph-name="uni208E" unicode="&#x208e;" horiz-adv-x="288" 
d="M23 -128q72 5 124 34t80 90q14 30 21 71t7 92v18q0 101 -28.5 163t-80.5 92q-26 15 -57 24t-66 12v-124q51 -7 78 -43.5t27 -124.5v-13q0 -85 -27 -118t-78 -38v-135z" />
    <glyph glyph-name="uni20A1" unicode="&#x20a1;" horiz-adv-x="776" 
d="M278 -108h113l27 92q153 7 238.5 84.5t96.5 226.5v11h-222v-8q-6 -61 -38.5 -95t-100.5 -34q-73 0 -110 42.5t-37 126.5v37q0 88 37.5 132t111.5 44q64 0 97.5 -32.5t39.5 -90.5v-6h219v13q-6 83 -38.5 142.5t-87.5 96.5l41 137h-113l-28 -94q-11 3 -22.5 6t-24.5 4
l25 84h-113l-23 -79q-101 -5 -176 -46.5t-116 -117.5q-20 -38 -30.5 -84.5t-10.5 -101.5v-52q0 -103 33 -175t94 -113l-45 -150h113l32 106q11 -3 22.5 -5.5t24.5 -4.5z" />
    <glyph glyph-name="uni20A2" unicode="&#x20a2;" horiz-adv-x="747" 
d="M733 245h-187q-9 -39 -30 -63.5t-62 -34.5v42q0 43 7 64.5t29 29.5q11 4 28 6t39 2h93v152h-57q-64 0 -101 -23.5t-48 -83.5l-21 104h-122v-283q-45 19 -65 63.5t-20 114.5v31q0 104 44.5 152t127.5 48q60 0 96 -20.5t48 -62.5h195q-26 122 -109.5 183.5t-227.5 61.5
q-169 0 -263.5 -92.5t-94.5 -264.5v-40q0 -175 90.5 -261.5t265.5 -86.5q160 0 241.5 69t103.5 193z" />
    <glyph glyph-name="franc" unicode="&#x20a3;" horiz-adv-x="641" 
d="M587 108v141h-331v56h331v142h-331v94h353v176h-553v-717h200v108h331z" />
    <glyph glyph-name="lira" unicode="&#x20a4;" horiz-adv-x="733" 
d="M528 -16q71 0 113 20.5t60 68.5q10 24 14.5 56t4.5 73v21h-195v-11q0 -49 -12.5 -70t-50.5 -21q-22 0 -45.5 7.5t-47.5 18.5q5 16 7 33t2 35q0 11 -0.5 21.5t-2.5 20.5h149v76h-169q-4 11 -7.5 20.5t-7.5 18.5h184v76h-215q-3 11 -5 22.5t-2 22.5q0 31 18.5 48t55.5 17
q39 0 59.5 -18t24.5 -50l211 1q-16 113 -87.5 176.5t-212.5 63.5q-92 0 -152 -28t-89 -77q-15 -24 -22 -51t-7 -58q0 -19 3.5 -36t8.5 -33h-74v-76h118q8 -10 16.5 -19.5t16.5 -19.5h-151v-76h208q8 -14 12.5 -29.5t5.5 -32.5q-27 11 -55 18t-58 7q-66 0 -103 -33t-37 -85
q0 -53 34 -85.5t117 -32.5q48 0 86.5 18t66.5 48q46 -25 99 -45.5t113 -20.5zM163 78q-18 0 -27.5 7.5t-9.5 17.5q0 12 7.5 18t22.5 6t33.5 -7.5t39.5 -18.5q-13 -11 -29.5 -17t-36.5 -6z" />
    <glyph glyph-name="uni20A6" unicode="&#x20a6;" horiz-adv-x="936" 
d="M607 0h205v210h111v118h-111v62h111v119h-111v208h-191v-444l-291 444h-209v-208h-108v-119h108v-62h-108v-118h108v-210h191v450z" />
    <glyph glyph-name="peseta" unicode="&#x20a7;" horiz-adv-x="1850" 
d="M378 546q62 0 92.5 -21.5t30.5 -70.5q0 -45 -30.5 -67.5t-91.5 -22.5h-122v182h121zM386 196q146 -1 224 53.5t93 155.5h107v-126q0 -78 13 -131.5t48 -85.5q35 -33 100 -47.5t169 -14.5h331q140 0 217 23t108 67q16 22 23.5 48t7.5 57q0 88 -59 123.5t-177 42.5
q-86 6 -132 14t-46 36q0 20 19 33t69 13t79 -15t38 -45h204q-22 95 -98 146.5t-222 51.5q-139 0 -211.5 -54t-72.5 -142q0 -87 59 -124t171 -44q86 -5 132.5 -8t46.5 -28q0 -13 -12 -21t-45 -12q-16 -2 -40.5 -3t-56.5 -1h-300q-71 0 -108 11.5t-49 41.5q-7 15 -10 37t-3 51
v106h169v175h-169v147h-149q-2 -23 -5.5 -47.5t-11.5 -41.5q-8 -21 -21 -35t-31 -21q-17 -7 -43 -11t-55 -6q-28 73 -103.5 112.5t-203.5 39.5h-324v-717h201v196h129z" />
    <glyph glyph-name="uni20A8" unicode="&#x20a8;" horiz-adv-x="1388" 
d="M1056 -19q113 0 181.5 26.5t99.5 72.5q15 23 23 50t8 57q0 53 -22.5 86.5t-59.5 51.5q-37 19 -81.5 27.5t-88.5 12.5t-81 8t-60 13q-11 4 -16.5 11t-5.5 17q0 20 19 33t69 13q48 0 78 -14t38 -45h204q-22 94 -97 145.5t-220 51.5q-141 0 -214 -54.5t-73 -143.5
q0 -52 22.5 -84.5t58.5 -50.5q37 -18 81 -26.5t88 -12.5q44 -3 80.5 -7t59.5 -12q11 -5 16.5 -12t5.5 -16q0 -22 -22.5 -35t-83.5 -13q-60 0 -109 9.5t-93 27.5q-23 9 -45.5 20.5t-46.5 24.5q-4 3 -11.5 7.5t-10.5 7.5q-49 30 -87 50t-82 31q62 23 93.5 66.5t31.5 114.5
q0 70 -31.5 121t-101.5 78q-35 14 -80.5 21t-102.5 7h-331v-717h203v225h63q59 0 104.5 -12.5t90.5 -36.5q23 -12 49.5 -26.5t56.5 -31.5q3 -3 10 -8.5t11 -8.5q52 -35 108.5 -62t129.5 -43q37 -7 80.5 -11t93.5 -4zM386 549q56 0 82.5 -18.5t26.5 -57.5v-3q0 -40 -29 -59.5
t-82 -19.5h-125v158h127z" />
    <glyph glyph-name="uni20A9" unicode="&#x20a9;" horiz-adv-x="1185" 
d="M729 0h190l68 214h184v116h-147l16 50h131v116h-94l71 221h-200l-135 -449l-145 449h-153l-162 -447l-110 447h-202l59 -221h-85v-116h116l14 -50h-130v-116h161l57 -214h189l164 429z" />
    <glyph glyph-name="uni20AA" unicode="&#x20aa;" horiz-adv-x="945" 
d="M340 566q68 0 104.5 -23t51.5 -75q7 -26 10.5 -61.5t3.5 -79.5v-118h24q54 0 85.5 14t44.5 50q6 18 9.5 43t3.5 57v24q0 166 -78 243t-240 77h-312v-717h173v566h120zM576 0q167 0 248.5 91.5t81.5 271.5v354h-172v-324q0 -93 -19.5 -145t-59.5 -72q-21 -11 -46.5 -16
t-57.5 -5h-100v160q0 63 -5.5 102t-20.5 60q-14 20 -42.5 27.5t-73.5 7.5h-29v-512h296z" />
    <glyph glyph-name="Euro" unicode="&#x20ac;" horiz-adv-x="789" 
d="M785 216h-229q-16 -28 -42.5 -43t-70.5 -15q-53 0 -87.5 20.5t-51.5 65.5h262l39 90h-314v46h334l40 90h-360q16 44 50 66t86 22q45 0 70 -13.5t36 -36.5h232q-27 116 -115 170.5t-219 54.5q-140 0 -232 -67.5t-117 -195.5h-85v-90h77v-46h-77v-90h84q22 -133 110.5 -197
t236.5 -64q136 0 225.5 56.5t117.5 176.5z" />
    <glyph glyph-name="uni20AE" unicode="&#x20ae;" horiz-adv-x="672" 
d="M546 220v102l-109 -34v65l109 34v102l-109 -34v79h209v183h-619v-183h202v-145l-111 -35v-102l111 35v-65l-111 -35v-103l111 35v-119h208v185z" />
    <glyph glyph-name="uni20B1" unicode="&#x20b1;" horiz-adv-x="795" 
d="M391 561q42 0 72 -12t47 -33h-235v45h116zM537 395h-262v43h262v-43zM394 270h-119v47h236q-17 -22 -46 -34.5t-71 -12.5zM396 119q139 -1 215.5 54.5t100.5 143.5h73v78h-62v43h62v78h-72q-23 90 -102 145.5t-220 55.5h-309v-201h-71v-78h71v-43h-71v-78h71v-317h193
v119h121z" />
    <glyph glyph-name="uni2105" unicode="&#x2105;" horiz-adv-x="869" 
d="M2 0h241q17 23 54.5 66.5l87.5 101.5t107 123t115 130q57 66 108 124t90 103q19 23 33.5 40t23.5 29h-231q-17 -23 -55 -67.5t-89 -102.5t-109 -123l-116 -130q-59 -65 -111 -123.5t-91 -102.5q-19 -22 -33.5 -39t-24.5 -29zM377 542h-137q-3 -15 -14 -22.5t-31 -7.5
q-24 0 -36.5 12.5t-12.5 36.5v2q0 26 13.5 38t36.5 12q19 0 30 -7.5t15 -23.5h136q-6 68 -54 106t-126 38q-83 0 -133 -43t-50 -120v-5q0 -76 45 -117.5t135 -41.5q82 0 130.5 37.5t52.5 105.5zM671 -9q86 0 134 41.5t48 117.5v5q0 77 -48.5 120t-131.5 43t-133 -43
t-50 -120v-5q0 -77 45 -118t136 -41zM671 104q-24 0 -36.5 12.5t-12.5 36.5v2q0 26 13.5 38t36.5 12q25 0 37 -12.5t12 -37.5v-2q0 -24 -13.5 -36.5t-36.5 -12.5z" />
    <glyph glyph-name="uni2116" unicode="&#x2116;" horiz-adv-x="1338" 
d="M1064 308q111 0 172.5 54t61.5 152v8q0 101 -63 156t-170 55q-105 0 -169.5 -55t-64.5 -156v-8q0 -100 57.5 -153t175.5 -53zM1065 441q-37 0 -55.5 19t-18.5 56v6q0 40 18.5 60t55.5 20t55.5 -20t18.5 -60v-6q0 -37 -18.5 -56t-55.5 -19zM558 0h191v717h-195v-416
l-301 416h-197v-717h196v423zM1284 247h-438v-164h438v164z" />
    <glyph glyph-name="uni2117" unicode="&#x2117;" horiz-adv-x="828" 
d="M415 -17q110 0 196.5 40.5t136.5 120.5q25 40 37.5 89.5t12.5 108.5v26q0 114 -50 195.5t-136 125.5q-44 22 -93 33t-104 11q-110 0 -197 -44.5t-138 -126.5q-25 -41 -37.5 -90t-12.5 -106v-24q0 -123 49 -202.5t136 -118.5q44 -19 94 -28.5t106 -9.5zM415 101
q-121 0 -190 61.5t-69 185.5v12q0 80 32 137t90 87q29 15 63 22.5t73 7.5q119 0 188.5 -65.5t69.5 -185.5v-15q0 -121 -69 -184t-188 -63zM430 446q32 0 44 -10.5t12 -31.5q0 -22 -12 -32.5t-43 -10.5h-54v85h53zM437 265q87 0 127 36t40 104q0 62 -39.5 100.5t-130.5 38.5
h-174v-375h117v96h60z" />
    <glyph glyph-name="uni2120" unicode="&#x2120;" horiz-adv-x="722" 
d="M511 480h10l70 88v-155h98v303h-92l-81 -108l-81 109h-93v-304h99v156zM159 401q70 0 106 29t36 78q-1 47 -30 69t-82 29q-44 5 -59 9.5t-15 15.5q0 9 7.5 15t26.5 6q22 0 32 -7.5t11 -21.5h104q-6 53 -42 79t-102 26q-70 0 -104 -28.5t-34 -72.5q0 -46 29 -68t82 -28
q44 -5 60 -9.5t16 -17.5q0 -11 -9.5 -17t-29.5 -6q-23 0 -34.5 9t-12.5 26v1l-108 -1q3 -56 38 -85.5t114 -29.5z" />
    <glyph glyph-name="trademark" unicode="&#x2122;" horiz-adv-x="702" 
d="M272 614v103h-256v-103h73v-201h108v201h75zM487 480h9l71 90v-157h98v303h-92l-81 -108l-81 109h-93v-304h98v158z" />
    <glyph glyph-name="uni2126" unicode="&#x2126;" horiz-adv-x="886" 
d="M403 163q-62 65 -89 121t-27 114q0 65 39.5 106.5t109.5 41.5q76 0 113.5 -41.5t37.5 -106.5q-1 -58 -28 -113.5t-90 -121.5l78 -163h310v181h-163q45 45 75.5 103.5t30.5 133.5q1 92 -40.5 163t-122.5 111q-40 20 -90.5 30t-110.5 10q-116 0 -197 -42t-122 -114
q-21 -36 -31.5 -76t-10.5 -84q0 -76 29 -133.5t72 -101.5h-161v-181h323z" />
    <glyph glyph-name="uni2153" unicode="&#x2153;" 
d="M102 0zM583 398l335 239l-161 130l-221 -330zM445 349l-343 -252l163 -138l224 351zM386 357v110h-72v248h-98q-7 -29 -27.5 -47t-54.5 -20v-88h62v-93h-79v-110h269zM709 -8q86 0 128 30.5t42 82.5q0 35 -17.5 54t-46.5 26q28 8 42.5 26t14.5 49q0 45 -39 74.5
t-120 29.5q-83 0 -125 -33t-42 -95v-6h120v3q0 15 10 23t34 8q21 0 29.5 -6t8.5 -17t-7.5 -17.5t-26.5 -6.5h-42v-77h43q22 0 30 -5t8 -16q0 -12 -9 -18.5t-34 -6.5q-27 0 -36.5 8t-9.5 24v3h-125v-7q1 -67 38.5 -98.5t131.5 -31.5z" />
    <glyph glyph-name="uni2154" unicode="&#x2154;" 
d="M85 0zM583 398l335 239l-161 130l-221 -330zM445 349l-343 -252l163 -138l224 351zM411 357v102h-191q15 10 39 17t50 16q27 9 51 23t39 36q7 10 11 24t4 31q0 53 -37.5 84.5t-121.5 31.5q-82 0 -124 -34.5t-43 -98.5v-10h124v7q0 17 9 27.5t33 10.5q22 0 30.5 -6.5
t8.5 -17.5q0 -17 -21 -26.5t-52 -17.5t-62 -21.5t-52 -38.5q-10 -12 -15.5 -29t-5.5 -38v-72h326zM709 -8q86 0 128 30.5t42 82.5q0 35 -17.5 54t-46.5 26q28 8 42.5 26t14.5 49q0 45 -39 74.5t-120 29.5q-83 0 -125 -33t-42 -95v-6h120v3q0 15 10 23t34 8q21 0 29.5 -6
t8.5 -17t-7.5 -17.5t-26.5 -6.5h-42v-77h43q22 0 30 -5t8 -16q0 -12 -9 -18.5t-34 -6.5q-27 0 -36.5 8t-9.5 24v3h-125v-7q1 -67 38.5 -98.5t131.5 -31.5z" />
    <glyph glyph-name="uni2155" unicode="&#x2155;" 
d="M102 0zM583 398l335 239l-161 130l-221 -330zM445 349l-343 -252l163 -138l224 351zM386 357v110h-72v248h-98q-7 -29 -27.5 -47t-54.5 -20v-88h62v-93h-79v-110h269zM718 -7q90 0 130 35t40 95q0 57 -31.5 85.5t-94.5 28.5q-29 0 -51 -7t-39 -20l9 51h84q61 0 81.5 19.5
t20.5 77.5h-283l-29 -202l117 -25l2 2q8 10 19.5 16.5t27.5 6.5q22 0 32.5 -8.5t10.5 -25.5q0 -15 -10.5 -25t-33.5 -10q-19 0 -28.5 7t-10.5 21v1h-134q2 -61 42 -92t129 -31z" />
    <glyph glyph-name="uni2156" unicode="&#x2156;" 
d="M85 0zM583 398l335 239l-161 130l-221 -330zM445 349l-343 -252l163 -138l224 351zM718 -7q90 0 130 35t40 95q0 57 -31.5 85.5t-94.5 28.5q-29 0 -51 -7t-39 -20l9 51h84q61 0 81.5 19.5t20.5 77.5h-283l-29 -202l117 -25l2 2q8 10 19.5 16.5t27.5 6.5q22 0 32.5 -8.5
t10.5 -25.5q0 -15 -10.5 -25t-33.5 -10q-19 0 -28.5 7t-10.5 21v1h-134q2 -61 42 -92t129 -31zM411 357v102h-191q15 10 39 17t50 16q27 9 51 23t39 36q7 10 11 24t4 31q0 53 -37.5 84.5t-121.5 31.5q-82 0 -124 -34.5t-43 -98.5v-10h124v7q0 17 9 27.5t33 10.5
q22 0 30.5 -6.5t8.5 -17.5q0 -17 -21 -26.5t-52 -17.5t-62 -21.5t-52 -38.5q-10 -12 -15.5 -29t-5.5 -38v-72h326z" />
    <glyph glyph-name="uni2157" unicode="&#x2157;" 
d="M70 0zM583 398l335 239l-161 130l-221 -330zM445 349l-343 -252l163 -138l224 351zM718 -7q90 0 130 35t40 95q0 57 -31.5 85.5t-94.5 28.5q-29 0 -51 -7t-39 -20l9 51h84q61 0 81.5 19.5t20.5 77.5h-283l-29 -202l117 -25l2 2q8 10 19.5 16.5t27.5 6.5q22 0 32.5 -8.5
t10.5 -25.5q0 -15 -10.5 -25t-33.5 -10q-19 0 -28.5 7t-10.5 21v1h-134q2 -61 42 -92t129 -31zM240 349q86 0 128 30.5t42 82.5q0 35 -17.5 54t-46.5 26q28 8 42.5 26t14.5 49q0 45 -39 74.5t-120 29.5q-83 0 -125 -33t-42 -95v-6h120v3q0 15 10 23t34 8q21 0 29.5 -6
t8.5 -17t-7.5 -17.5t-26.5 -6.5h-42v-77h43q22 0 30 -5t8 -16q0 -12 -9 -18.5t-34 -6.5q-27 0 -36.5 8t-9.5 24v3h-125v-7q1 -67 38.5 -98.5t131.5 -31.5z" />
    <glyph glyph-name="uni2158" unicode="&#x2158;" 
d="M78 0zM583 398l335 239l-161 130l-221 -330zM445 349l-343 -252l163 -138l224 351zM718 -7q90 0 130 35t40 95q0 57 -31.5 85.5t-94.5 28.5q-29 0 -51 -7t-39 -20l9 51h84q61 0 81.5 19.5t20.5 77.5h-283l-29 -202l117 -25l2 2q8 10 19.5 16.5t27.5 6.5q22 0 32.5 -8.5
t10.5 -25.5q0 -15 -10.5 -25t-33.5 -10q-19 0 -28.5 7t-10.5 21v1h-134q2 -61 42 -92t129 -31zM271 509h-68l68 74v-74zM436 417v92h-56v206h-103l-199 -217v-81h193v-60h109v60h56z" />
    <glyph glyph-name="uni2159" unicode="&#x2159;" 
d="M102 0zM583 398l335 239l-161 130l-221 -330zM445 349l-343 -252l163 -138l224 351zM386 357v110h-72v248h-98q-7 -29 -27.5 -47t-54.5 -20v-88h62v-93h-79v-110h269zM883 120q0 53 -31.5 78t-94.5 25q-33 0 -58 -10.5t-42 -32.5v11q0 38 14 57t42 19q19 0 27.5 -7
t11.5 -18h127q-8 62 -49.5 93t-116.5 31q-83 0 -129.5 -46t-46.5 -132v-22q0 -83 42 -129t138 -46q77 0 121.5 34t44.5 95zM718 92q-22 0 -36 9t-20 27q10 11 24 18t35 7t31.5 -7t10.5 -22q0 -16 -11 -24t-34 -8z" />
    <glyph glyph-name="uni215A" unicode="&#x215a;" 
d="M73 0zM583 398l335 239l-161 130l-221 -330zM445 349l-343 -252l163 -138l224 351zM244 350q90 0 130 35t40 95q0 57 -31.5 85.5t-94.5 28.5q-29 0 -51 -7t-39 -20l9 51h84q61 0 81.5 19.5t20.5 77.5h-283l-29 -202l117 -25l2 2q8 10 19.5 16.5t27.5 6.5q22 0 32.5 -8.5
t10.5 -25.5q0 -15 -10.5 -25t-33.5 -10q-19 0 -28.5 7t-10.5 21v1h-134q2 -61 42 -92t129 -31zM883 120q0 53 -31.5 78t-94.5 25q-33 0 -58 -10.5t-42 -32.5v11q0 38 14 57t42 19q19 0 27.5 -7t11.5 -18h127q-8 62 -49.5 93t-116.5 31q-83 0 -129.5 -46t-46.5 -132v-22
q0 -83 42 -129t138 -46q77 0 121.5 34t44.5 95zM718 92q-22 0 -36 9t-20 27q10 11 24 18t35 7t31.5 -7t10.5 -22q0 -16 -11 -24t-34 -8z" />
    <glyph glyph-name="uni215B" unicode="&#x215b;" 
d="M102 0zM583 398l335 239l-161 130l-221 -330zM445 349l-343 -252l163 -138l224 351zM385 357v110h-72v248h-98q-7 -29 -27.5 -47t-54.5 -20v-88h62v-93h-79v-110h269zM711 -7q88 0 132 27t44 80q0 32 -16.5 52t-44.5 30q26 10 40 28.5t14 47.5q0 51 -44 79t-122 28
q-79 0 -122 -28t-43 -79q0 -29 13 -48t38 -28q-28 -10 -45 -31t-17 -52q0 -54 41 -80t132 -26zM709 215q-21 0 -32 7t-11 20q0 14 12 21t36 7q26 0 37.5 -7t11.5 -21q0 -13 -11.5 -20t-34.5 -7h-8zM713 90q-26 0 -39.5 7t-13.5 21q0 15 12 22t36 7h9q25 0 37.5 -7t12.5 -21
t-13.5 -21.5t-40.5 -7.5z" />
    <glyph glyph-name="uni215C" unicode="&#x215c;" 
d="M71 0zM583 398l335 239l-161 130l-221 -330zM445 349l-343 -252l163 -138l224 351zM711 -7q88 0 132 27t44 80q0 32 -16.5 52t-44.5 30q26 10 40 28.5t14 47.5q0 51 -44 79t-122 28q-79 0 -122 -28t-43 -79q0 -29 13 -48t38 -28q-28 -10 -45 -31t-17 -52q0 -54 41 -80
t132 -26zM709 215q-21 0 -32 7t-11 20q0 14 12 21t36 7q26 0 37.5 -7t11.5 -21q0 -13 -11.5 -20t-34.5 -7h-8zM713 90q-26 0 -39.5 7t-13.5 21q0 15 12 22t36 7h9q25 0 37.5 -7t12.5 -21t-13.5 -21.5t-40.5 -7.5zM241 349q86 0 128 30.5t42 82.5q0 35 -17.5 54t-46.5 26
q28 8 42.5 26t14.5 49q0 45 -39 74.5t-120 29.5q-83 0 -125 -33t-42 -95v-6h120v3q0 15 10 23t34 8q21 0 29.5 -6t8.5 -17t-7.5 -17.5t-26.5 -6.5h-42v-77h43q22 0 30 -5t8 -16q0 -12 -9 -18.5t-34 -6.5q-27 0 -36.5 8t-9.5 24v3h-125v-7q1 -67 38.5 -98.5t131.5 -31.5z" />
    <glyph glyph-name="uni215D" unicode="&#x215d;" 
d="M73 0zM583 398l335 239l-161 130l-221 -330zM445 349l-343 -252l163 -138l224 351zM711 -7q88 0 132 27t44 80q0 32 -16.5 52t-44.5 30q26 10 40 28.5t14 47.5q0 51 -44 79t-122 28q-79 0 -122 -28t-43 -79q0 -29 13 -48t38 -28q-28 -10 -45 -31t-17 -52q0 -54 41 -80
t132 -26zM709 215q-21 0 -32 7t-11 20q0 14 12 21t36 7q26 0 37.5 -7t11.5 -21q0 -13 -11.5 -20t-34.5 -7h-8zM713 90q-26 0 -39.5 7t-13.5 21q0 15 12 22t36 7h9q25 0 37.5 -7t12.5 -21t-13.5 -21.5t-40.5 -7.5zM244 350q90 0 130 35t40 95q0 57 -31.5 85.5t-94.5 28.5
q-29 0 -51 -7t-39 -20l9 51h84q61 0 81.5 19.5t20.5 77.5h-283l-29 -202l117 -25l2 2q8 10 19.5 16.5t27.5 6.5q22 0 32.5 -8.5t10.5 -25.5q0 -15 -10.5 -25t-33.5 -10q-19 0 -28.5 7t-10.5 21v1h-134q2 -61 42 -92t129 -31z" />
    <glyph glyph-name="uni215E" unicode="&#x215e;" 
d="M102 0zM583 398l335 239l-161 130l-221 -330zM445 349l-343 -252l163 -138l224 351zM711 -7q88 0 132 27t44 80q0 32 -16.5 52t-44.5 30q26 10 40 28.5t14 47.5q0 51 -44 79t-122 28q-79 0 -122 -28t-43 -79q0 -29 13 -48t38 -28q-28 -10 -45 -31t-17 -52q0 -54 41 -80
t132 -26zM709 215q-21 0 -32 7t-11 20q0 14 12 21t36 7q26 0 37.5 -7t11.5 -21q0 -13 -11.5 -20t-34.5 -7h-8zM713 90q-26 0 -39.5 7t-13.5 21q0 15 12 22t36 7h9q25 0 37.5 -7t12.5 -21t-13.5 -21.5t-40.5 -7.5zM310 357q20 71 55.5 137.5t89.5 127.5v93h-312v-107h179
q-43 -46 -85 -112.5t-68 -138.5h141z" />
    <glyph glyph-name="uni215F" unicode="&#x215f;" 
d="M102 0zM583 398l335 239l-161 130l-221 -330zM445 349l-343 -252l163 -138l224 351zM386 357v110h-72v248h-98q-7 -29 -27.5 -47t-54.5 -20v-88h62v-93h-79v-110h269z" />
    <glyph glyph-name="uni2190" unicode="&#x2190;" horiz-adv-x="931" 
d="M842 277v180h-492q30 28 58.5 63.5t51.5 74.5q12 20 21 38.5t15 36.5h-214q-10 -39 -39.5 -86t-74.5 -94q-22 -23 -47 -44.5t-53 -40.5v-82q56 -38 102 -85t78 -94q15 -23 25.5 -44.5t15.5 -40.5h219q-13 37 -39.5 77t-59.5 77q-17 19 -33.5 35t-32.5 29h499z" />
    <glyph glyph-name="arrowup" unicode="&#x2191;" horiz-adv-x="931" 
d="M769 323v214q-38 10 -85 39.5t-94 73.5q-23 22 -44.5 47t-40.5 53h-79q-38 -55 -85.5 -100t-94.5 -74q-24 -15 -45.5 -25t-40.5 -15v-214q59 21 117.5 63.5t98.5 90.5v-497h180v496q41 -48 98 -89.5t115 -62.5z" />
    <glyph glyph-name="uni2192" unicode="&#x2192;" horiz-adv-x="931" 
d="M642 59q10 39 41.5 85.5t77.5 93.5q24 23 49.5 44.5t53.5 40.5v82q-56 39 -101 85.5t-74 93.5q-15 24 -25 45.5t-15 40.5h-214q13 -36 36 -75t52 -75q14 -18 28.5 -33.5t29.5 -29.5h-492v-180h499q-32 -27 -65.5 -64t-59.5 -77q-14 -20 -23.5 -39t-16.5 -38h219z" />
    <glyph glyph-name="arrowdown" unicode="&#x2193;" horiz-adv-x="931" 
d="M502 -35q39 56 86 101t95 75q23 15 44.5 24.5t40.5 14.5v215q-58 -22 -115.5 -64t-98.5 -89v495h-182v-495q-40 47 -97 88.5t-116 62.5v-214q39 -9 85.5 -38.5t93.5 -74.5q23 -23 44.5 -48t40.5 -53h79z" />
    <glyph glyph-name="uni2196" unicode="&#x2196;" horiz-adv-x="931" 
d="M801 157l-350 350q62 -4 131.5 6.5t126.5 37.5l-151 152q-34 -20 -88 -32.5t-119 -14.5q-33 -1 -65.5 1.5t-66.5 8.5l-55 -55q12 -66 10 -131.5t-15 -120.5q-6 -27 -14 -49t-18 -39l152 -152q26 57 37 128t6 133l351 -351z" />
    <glyph glyph-name="uni2197" unicode="&#x2197;" horiz-adv-x="931" 
d="M649 120l151 152q-19 34 -31.5 88t-14.5 119q-1 32 1.5 65t8.5 66l-55 55q-66 -11 -131.5 -9.5t-119.5 14.5q-27 6 -49.5 14t-39.5 18l-152 -151q57 -27 128 -37.5t133 -6.5l-350 -351l127 -128l351 351q-5 -62 5.5 -132t37.5 -127z" />
    <glyph glyph-name="uni2198" unicode="&#x2198;" horiz-adv-x="931" 
d="M709 65l55 56q-12 66 -10.5 131t14.5 120q6 27 14 49t18 39l-151 152q-27 -57 -37.5 -127t-6.5 -132l-351 349l-127 -128l350 -350q-62 5 -132 -6t-126 -38l151 -151q35 20 88.5 32.5t118.5 13.5q33 1 66 -1.5t66 -8.5z" />
    <glyph glyph-name="uni2199" unicode="&#x2199;" horiz-adv-x="931" 
d="M559 27l152 152q-58 27 -128.5 38t-132.5 6l350 351l-127 128l-351 -351q5 62 -6 132t-38 126l-151 -151q21 -34 33 -88t13 -119q1 -32 -1.5 -65t-8.5 -67l56 -55q67 13 132 11t119 -15q27 -6 49.5 -14.5t39.5 -18.5z" />
    <glyph glyph-name="partialdiff" unicode="&#x2202;" horiz-adv-x="722" 
d="M361 -17q163 0 248 78t85 226v9q0 102 -40 193.5t-114 169.5q-37 39 -80.5 74.5t-93.5 66.5h-283q155 -93 248 -164.5t136 -144.5q-25 26 -62 40.5t-88 14.5q-87 0 -151.5 -32t-100.5 -94q-18 -31 -27 -68.5t-9 -81.5v-9q0 -132 82 -205t250 -73zM364 151q-61 0 -95 28.5
t-34 83.5v8q0 60 34 90t95 30q62 0 95.5 -29t33.5 -90v-9q0 -57 -33.5 -84.5t-95.5 -27.5z" />
    <glyph glyph-name="uni2206" unicode="&#x2206;" horiz-adv-x="945" 
d="M951 0l-478 735l-480 -735h958zM638 164h-332l166 256z" />
    <glyph glyph-name="product" unicode="&#x220f;" horiz-adv-x="842" 
d="M497 0h198v529h123v188h-795v-188h126v-529h197v529h151v-529z" />
    <glyph glyph-name="summation" unicode="&#x2211;" horiz-adv-x="626" 
d="M595 181h-308l241 185l-233 179h283v172h-540v-181l223 -171l-233 -172v-193h567v181z" />
    <glyph glyph-name="minus" unicode="&#x2212;" horiz-adv-x="628" 
d="M589 273v184h-549v-184h549z" />
    <glyph glyph-name="radical" unicode="&#x221a;" horiz-adv-x="859" 
d="M476 0l384 717h-222l-258 -500l-120 285h-230v-191h108l136 -311h202z" />
    <glyph glyph-name="infinity" unicode="&#x221e;" horiz-adv-x="941" 
d="M683 298q-26 0 -52.5 18t-54.5 44q28 26 54.5 43.5t52.5 17.5q29 0 45 -17.5t16 -43.5q0 -25 -17 -43.5t-44 -18.5zM257 299q-26 0 -43 18t-17 43q0 26 17 43.5t43 17.5q27 0 54 -17.5t55 -43.5q-28 -26 -55 -43.5t-54 -17.5zM252 146q70 0 119.5 31.5t98.5 77.5
q50 -46 99 -77t118 -31q103 0 157 59.5t54 154.5q0 62 -26.5 109t-74.5 74q-24 14 -52 20.5t-60 6.5q-46 0 -82 -14t-67 -39q-16 -12 -32 -25.5t-33 -29.5q-33 31 -64.5 55.5t-68.5 38.5q-18 7 -38.5 10.5t-44.5 3.5q-64 0 -112.5 -28t-75.5 -76q-13 -24 -20 -50.5t-7 -56.5
q0 -97 52.5 -155.5t159.5 -58.5z" />
    <glyph glyph-name="integral" unicode="&#x222b;" horiz-adv-x="472" 
d="M-3 -199h85q95 0 149 21.5t76 72.5q12 25 17.5 60t5.5 79l1 522q0 38 5.5 58t21.5 27q8 3 20 5t28 2h58v163h-89q-125 0 -182.5 -52.5t-57.5 -173.5l-1 -525q0 -40 -6 -59t-23 -25q-8 -3 -20.5 -4.5t-29.5 -1.5h-58v-169z" />
    <glyph glyph-name="approxequal" unicode="&#x2248;" horiz-adv-x="630" 
d="M187 618q-34 0 -66.5 -13t-45.5 -35v-184q20 29 50.5 43t61.5 14q26 0 55.5 -9.5t62.5 -22.5t68 -22.5t71 -9.5q35 0 67 13.5t46 35.5v182q-22 -31 -53 -43.5t-60 -12.5q-25 0 -56.5 9.5t-65.5 22.5q-35 13 -69.5 22.5t-65.5 9.5zM75 276v-183q20 30 51 43.5t61 13.5
q26 0 55.5 -9.5t62.5 -22.5t68 -22.5t71 -9.5q35 0 67 13.5t46 35.5v182q-22 -31 -53 -43.5t-60 -12.5q-25 0 -56.5 9.5t-65.5 22.5q-35 13 -69.5 22.5t-65.5 9.5q-34 0 -66.5 -13.5t-45.5 -35.5z" />
    <glyph glyph-name="notequal" unicode="&#x2260;" horiz-adv-x="646" 
d="M569 135v172h-213l37 120h176v172h-122l29 93h-116l-29 -93h-253v-172h200l-37 -120h-163v-172h109l-34 -110h115l34 110h267z" />
    <glyph glyph-name="equivalence" unicode="&#x2261;" horiz-adv-x="646" 
d="M569 509v151h-491v-151h491zM569 288v150h-491v-150h491zM569 66v151h-491v-151h491z" />
    <glyph glyph-name="lessequal" unicode="&#x2264;" horiz-adv-x="630" 
d="M554 221v169l-286 94l286 94v166l-482 -190v-143zM555 10v157h-482v-157h482z" />
    <glyph glyph-name="greaterequal" unicode="&#x2265;" horiz-adv-x="630" 
d="M77 221l482 190v143l-482 190v-166l286 -94l-286 -94v-169zM558 10v157h-482v-157h482z" />
    <glyph glyph-name="uni22A0" unicode="&#x22a0;" horiz-adv-x="828" 
d="M57 0h714v717h-714v-717zM240 540h348v-363h-348v363zM500 213l58 58l-88 89l88 91l-58 56l-86 -89l-86 88l-58 -56l87 -90l-86 -89l58 -57l85 88z" />
    <glyph glyph-name="house" unicode="&#x2302;" horiz-adv-x="817" 
d="M731 0v402l-322 310l-323 -310v-402h645z" />
    <glyph glyph-name="uni25A0" unicode="&#x25a0;" horiz-adv-x="828" 
d="M57 0h714v717h-714v-717z" />
    <glyph glyph-name="uni25A1" unicode="&#x25a1;" horiz-adv-x="828" 
d="M57 0v717h714v-717h-714zM240 540v-363h348v363h-348z" />
    <glyph glyph-name="uni25AA" unicode="&#x25aa;" horiz-adv-x="687" 
d="M57 0h573v574h-573v-574z" />
    <glyph glyph-name="uni25AB" unicode="&#x25ab;" horiz-adv-x="687" 
d="M57 0h573v574h-573v-574zM221 416h246v-257h-246v257z" />
    <glyph glyph-name="triagup" unicode="&#x25b2;" horiz-adv-x="861" 
d="M855 0l-423 735l-425 -735h848z" />
    <glyph glyph-name="triagrt" unicode="&#x25ba;" horiz-adv-x="861" 
d="M86 -56l735 424l-735 424v-848z" />
    <glyph glyph-name="triagdn" unicode="&#x25bc;" horiz-adv-x="861" 
d="M7 723l425 -735l423 735h-848z" />
    <glyph glyph-name="triaglf" unicode="&#x25c4;" horiz-adv-x="861" 
d="M776 792l-735 -424l735 -424v848z" />
    <glyph glyph-name="lozenge" unicode="&#x25ca;" horiz-adv-x="849" 
d="M427 -60l412 413l-414 414l-412 -412zM260 355l163 164l168 -168l-164 -163z" />
    <glyph glyph-name="uni25CB" unicode="&#x25cb;" horiz-adv-x="848" 
d="M423 -11q81 0 148 27t116 77q49 49 75.5 115.5t26.5 145.5q0 80 -27 147t-76 116t-116 76t-147 27t-146.5 -27.5t-115.5 -76.5q-49 -50 -75.5 -116.5t-26.5 -145.5q0 -106 46.5 -188.5t128.5 -129.5q41 -24 88.5 -35.5t100.5 -11.5zM423 165q-53 0 -95 25t-65 68
q-12 21 -18 45t-6 51q0 55 23.5 98t65.5 69q21 12 44.5 18.5t50.5 6.5q55 0 97 -25.5t65 -69.5q12 -22 18 -46t6 -51q0 -53 -23.5 -96t-65.5 -68q-21 -13 -45 -19t-52 -6z" />
    <glyph glyph-name="uni25CE" unicode="&#x25ce;" horiz-adv-x="877" 
d="M438 -10q80 0 147 27t115 76q49 49 75.5 115.5t26.5 145.5q0 80 -27 146.5t-76 115.5t-115.5 76t-145.5 27t-145.5 -27t-114.5 -77q-49 -49 -75.5 -115.5t-26.5 -145.5q0 -106 46.5 -188.5t127.5 -128.5q41 -24 88 -35.5t100 -11.5zM438 119q-65 0 -118 31t-83 84
q-16 26 -23.5 56.5t-7.5 63.5q0 68 30.5 121.5t83.5 85.5q26 15 55.5 23t62.5 8q68 0 120.5 -32t83.5 -86q15 -27 22.5 -57t7.5 -63q0 -67 -30.5 -120t-83.5 -84q-26 -16 -56 -23.5t-64 -7.5zM439 185q49 0 87 22t61 60q11 19 16.5 40.5t5.5 45.5q0 49 -22.5 87t-60.5 60
q-20 11 -41.5 16.5t-45.5 5.5q-47 0 -85.5 -22t-61.5 -60q-11 -19 -16.5 -41t-5.5 -46q0 -48 22 -86t60 -60q19 -11 41 -16.5t46 -5.5zM439 296q-23 0 -38 16.5t-15 40.5q0 26 15 42t38 16q24 0 39 -16t15 -42q0 -24 -15 -40.5t-39 -16.5z" />
    <glyph glyph-name="uni25CF" unicode="&#x25cf;" horiz-adv-x="848" 
d="M423 -11q81 0 148 27t116 77q49 49 75.5 115.5t26.5 145.5q0 80 -27 147t-76 116t-116 76t-147 27t-146.5 -27.5t-115.5 -76.5q-49 -50 -75.5 -116.5t-26.5 -145.5q0 -106 46.5 -188.5t128.5 -129.5q41 -24 88.5 -35.5t100.5 -11.5z" />
    <glyph glyph-name="uni25E2" unicode="&#x25e2;" horiz-adv-x="861" 
d="M851 528l-819 220l219 -820z" />
    <glyph glyph-name="uni25E3" unicode="&#x25e3;" horiz-adv-x="861" 
d="M613 -72l219 820l-819 -220z" />
    <glyph glyph-name="uni25E4" unicode="&#x25e4;" horiz-adv-x="861" 
d="M835 -53l-219 819l-600 -600z" />
    <glyph glyph-name="uni25E5" unicode="&#x25e5;" horiz-adv-x="861" 
d="M850 161l-599 601l-220 -819z" />
    <glyph glyph-name="uni2605" unicode="&#x2605;" horiz-adv-x="864" 
d="M543 300l186 133l-228 1l-70 216l-72 -216l-226 1l184 -134l-72 -217l185 134l185 -134z" />
    <glyph glyph-name="uni263C" unicode="&#x263c;" horiz-adv-x="892" 
d="M433 562h20l17 141h-53zM540 540l15 -10l86 114l-46 27zM332 530l14 10l-54 131l-47 -27zM620 466l10 -16l131 56l-30 45zM257 450l10 15l-114 86l-27 -46zM271 352q0 -47 23.5 -86t62.5 -63q19 -11 41 -17t45 -6q47 0 86.5 23.5t62.5 62.5q12 19 18 41t6 45
q0 48 -23.5 87t-63.5 63q-19 11 -40.5 17t-45.5 6q-47 0 -86 -23.5t-63 -62.5q-11 -20 -17 -41.5t-6 -45.5zM652 363v-19l141 -17v53zM234 344v19l-140 17v-53zM267 241l-10 15l-131 -55l29 -46zM630 256l-10 -14l113 -87l28 47zM346 167l-14 10l-87 -114l47 -27zM555 177
l-15 -10l55 -131l46 27zM453 145h-20l-16 -141h53z" />
    <glyph glyph-name="uni263E" unicode="&#x263e;" horiz-adv-x="752" 
d="M516 599q17 0 35 -3.5t35 -8.5q-38 27 -83 42t-93 15q-61 0 -114 -23t-93 -63q-41 -41 -63.5 -94t-22.5 -114q0 -60 22.5 -113t63.5 -94q40 -40 93 -63t114 -23q48 0 93 15t83 42q-17 -5 -35 -8.5t-35 -3.5q-65 0 -119 33.5t-86 90.5q-16 28 -24 59t-8 65q0 69 32 125.5
t86 89.5q27 17 56.5 25.5t62.5 8.5z" />
    <glyph glyph-name="spade" unicode="&#x2660;" horiz-adv-x="866" 
d="M465 281q13 -33 36 -63t58 -49q17 -10 37.5 -14.5t44.5 -4.5q43 0 77.5 21t54.5 55q11 18 16 37t5 40q0 56 -22 102.5t-70 96.5q-25 25 -57 53.5t-72 60.5l-136 108h-1l-135 -108q-80 -64 -131 -114t-74 -97q-12 -23 -18 -48.5t-6 -53.5q0 -42 23 -76.5t60 -55.5
q19 -11 40 -16t43 -5q45 0 77.5 19t53.5 49q11 15 19.5 30.5t14.5 32.5q0 -58 -17.5 -113t-39.5 -99l-19.5 -39t-15.5 -30h251q-9 19 -25 48.5t-33 66.5q-16 38 -27.5 80t-11.5 86z" />
    <glyph glyph-name="club" unicode="&#x2663;" horiz-adv-x="866" 
d="M628 127q48 0 86.5 23.5t61.5 62.5q12 20 17.5 41.5t5.5 45.5q0 48 -22.5 86.5t-61.5 61.5q-19 12 -40.5 17.5t-45.5 5.5q-12 0 -23.5 -2t-22.5 -6q10 21 14.5 43t4.5 44q0 47 -23 85.5t-61 60.5q-20 12 -41 17.5t-45 5.5q-47 0 -86.5 -22.5t-62.5 -61.5q-11 -19 -17 -40
t-6 -45q0 -22 5.5 -43.5t14.5 -41.5l-20 4t-21 2q-47 0 -86.5 -23t-62.5 -62q-11 -19 -17 -40.5t-6 -45.5q0 -48 23 -87t62 -63q20 -11 41.5 -17t45.5 -6q56 0 99.5 33t63.5 84q-6 -51 -23 -99t-36 -85q-9 -19 -17 -34t-14 -26h251q-11 22 -31 59.5t-38 84.5q-9 23 -15.5 48
t-9.5 50q20 -49 61.5 -82t97.5 -33z" />
    <glyph glyph-name="heart" unicode="&#x2665;" horiz-adv-x="866" 
d="M431 -17l136 153q81 90 131 159t72 127q12 29 17.5 57.5t5.5 56.5q0 50 -25 91.5t-67 66.5q-21 13 -44 19t-48 6q-76 0 -123.5 -46t-54.5 -114q-4 46 -28 82t-63 57q-20 10 -42 15.5t-47 5.5q-50 0 -90.5 -25t-63.5 -66q-12 -21 -18 -44t-6 -48q0 -56 21.5 -114
t70.5 -127q24 -35 56.5 -74.5t72.5 -84.5z" />
    <glyph glyph-name="diamond" unicode="&#x2666;" horiz-adv-x="866" 
d="M116 360l317 -370l317 370l-317 367z" />
    <glyph glyph-name="uni267B" unicode="&#x267b;" horiz-adv-x="794" 
d="M333 673l14 -2.5t32 -12.5q9 -5 17 -13t14 -19l60 -105l-34 -20l144 -27l52 141l-36 -21l-24 41q-16 28 -34.5 33t-41.5 6h-163v-1zM162 522l126 -72l97 168q-8 16 -31.5 28t-52.5 14q-15 1 -28 -2t-26 -10q-10 -5 -17.5 -13t-10.5 -13zM670 462l-125 -71l97 -168
q18 0 40 14t38 38q8 12 12 25t4 28q0 11 -2.5 21t-4.5 15zM151 124l-4.5 13.5t-4.5 34.5q0 10 3 20.5t9 21.5q1 2 10 18t21 36t21 35.5l9 15.5l34 -21l-49 140l-147 -26l36 -21l-24 -41q-16 -28 -11.5 -47t15.5 -39l80 -140h2zM719 244l-10 -11t-28 -22q-9 -5 -19.5 -8
t-23.5 -3h-121v42l-94 -114l94 -114v41h48q33 0 47 14t26 33l82 141zM369 55v145h-194q-9 -15 -8 -41t14 -52q6 -13 15.5 -23t22.5 -18q10 -6 20 -8.5t17 -2.5h113z" />
    <glyph glyph-name="uni267C" unicode="&#x267c;" horiz-adv-x="794" 
d="M732 350q0 70 -26 131t-71 108q-46 46 -106.5 72t-129.5 26q-70 0 -131 -26t-107 -72q-47 -47 -73 -108t-26 -131q0 -69 26 -129.5t73 -106.5q46 -46 107 -71.5t131 -25.5q69 0 129.5 25.5t106.5 71.5q45 46 71 106.5t26 129.5zM342 606h126q19 0 33 -4.5t27 -26.5
l18 -31l28 15l-40 -109l-111 21l26 16l-47 81q-9 17 -23.5 24.5t-25.5 10.5q-5 1 -8 1.5l-3 0.5v1zM258 564q2 5 8 11t13 10q20 12 42 10t40 -11q9 -5 15.5 -10.5t9.5 -11.5l-74 -130l-98 56zM651 366q3 -5 5.5 -12t2.5 -16q0 -23 -12.5 -42t-29.5 -31q-8 -5 -16 -8t-15 -3
l-76 131l98 57zM204 179l-63 108q-7 17 -11.5 31t8.5 36l19 32l-27 17l112 19l39 -108l-27 17l-47 -81q-9 -17 -9 -33.5t4 -26.5q1 -6 2 -8.5l1 -2.5h-1zM645 270l-63 -108q-9 -14 -19.5 -24.5t-36.5 -10.5h-37v-33l-74 88l74 87v-30h93q20 0 34 8t21 16q3 4 5 6l2 2z
M283 127q-5 0 -13 2t-16 6q-19 11 -29 31t-11 40q-1 10 0.5 18.5t5.5 14.5h151v-112h-88z" />
    <glyph glyph-name="uni267D" unicode="&#x267d;" horiz-adv-x="794" 
d="M732 350q0 70 -26 131t-71 108q-46 46 -106.5 72t-129.5 26q-70 0 -131 -26t-107 -72q-47 -47 -73 -108t-26 -131q0 -69 26 -129.5t73 -106.5q46 -46 107 -71.5t131 -25.5q69 0 129.5 25.5t106.5 71.5q45 46 71 106.5t26 129.5zM716 350q0 -66 -24.5 -123.5t-68.5 -100.5
q-43 -44 -100.5 -68.5t-123.5 -24.5t-124 24.5t-102 68.5q-44 43 -69 100.5t-25 123.5q0 67 25 125t69 102t102 68.5t124 24.5t123.5 -24.5t100.5 -68.5q44 -44 68.5 -102t24.5 -125zM342 605l11 -2.5t25 -10.5q7 -4 13 -10t11 -14l47 -81l-26 -16l111 -21l40 109l-28 -15
l-18 31q-13 22 -27 26.5t-33 4.5h-126v-1zM214 488l98 -56l74 130q-6 13 -24.5 22t-40.5 11q-11 1 -21.5 -1.5t-20.5 -8.5q-7 -4 -13 -10t-8 -11zM608 442l-98 -57l76 -131q14 0 31 11.5t30 30.5q6 9 9 20t3 22q0 9 -2.5 16t-5.5 12zM205 179l-3.5 10.5t-3.5 27.5
q0 8 2 16.5t7 16.5l47 81l27 -17l-39 108l-112 -19l27 -17l-19 -32q-13 -22 -8.5 -36t11.5 -31l63 -108h1zM644 271l-7 -8t-21 -16q-7 -4 -15.5 -6t-18.5 -2h-93v30l-74 -87l74 -88v33h37q26 0 36.5 10.5t19.5 24.5l63 108zM371 127v112h-151q-7 -12 -6 -32.5t11 -40.5
q5 -10 12 -17.5t17 -13.5q8 -4 16 -6t13 -2h88z" />
    <glyph glyph-name="uni2E18" unicode="&#x2e18;" horiz-adv-x="715" 
d="M354 594q-70 0 -98.5 -21.5t-28.5 -79.5t29.5 -80t97.5 -22t97 22t29 80q0 59 -26 80t-100 21zM355 -150q170 0 248.5 69t79.5 194v14h-185v-9q0 -44 -16.5 -71.5t-49.5 -38.5v25q0 106 -1.5 168.5t-3.5 95.5q-1 19 -2.5 33t-5.5 25q-10 -3 -26.5 -4.5t-38.5 -1.5
t-36.5 1.5t-27.5 3.5l-5 -33q-4 -27 -24 -42.5t-48 -26.5q-29 -11 -60 -23t-58 -31q-28 -19 -45 -51t-17 -83q0 -98 78 -156t244 -58zM217 79q0 24 10.5 37t27.5 23q8 4 17.5 9.5t19.5 11.5q-2 -30 -3.5 -62.5t-1.5 -64.5v-30q-37 8 -53.5 27t-16.5 49z" />
    <glyph glyph-name="uni3008" unicode="&#x3008;" horiz-adv-x="413" 
d="M432 -170l-203 471l195 453h-211l-198 -457l198 -467h219z" />
    <glyph glyph-name="uni3009" unicode="&#x3009;" horiz-adv-x="413" 
d="M202 -170l196 467l-196 457h-212l194 -453l-203 -471h221z" />
    <glyph glyph-name="Aumlaut" horiz-adv-x="764" 
d="M668 557q46 0 66 18t20 64q0 47 -20.5 64.5t-65.5 17.5q-44 0 -63 -17.5t-19 -64.5q0 -45 18 -63.5t64 -18.5zM92 557q46 0 65.5 19t19.5 63q0 47 -20.5 64.5t-64.5 17.5q-43 0 -63.5 -17.5t-20.5 -64.5t18.5 -64.5t65.5 -17.5zM461 282h-159l79 224zM562 0h211l-281 717
h-221l-280 -717h213l44 125h269z" />
    <glyph glyph-name="Oumlaut" horiz-adv-x="783" 
d="M716 634q24 0 35.5 10t11.5 37q0 26 -12 36t-35 10q-24 0 -35.5 -10t-11.5 -36q0 -28 11 -37.5t36 -9.5zM70 634q23 0 35 10.5t12 36.5t-11.5 36t-35.5 10q-23 0 -34.5 -10t-11.5 -36q0 -28 10.5 -37.5t35.5 -9.5zM391 -17q108 0 188.5 38t125.5 115q23 39 34 88t11 108
v48q0 116 -45.5 194.5t-126.5 118.5q-41 20 -87 30t-99 10q-107 0 -188 -40.5t-126 -119.5q-22 -40 -33.5 -88t-11.5 -106v-47q0 -179 95 -264t263 -85zM391 167q-72 0 -108 43t-36 128v36q0 88 36 131.5t108 43.5q71 0 108 -43t37 -133v-35q0 -88 -37 -129.5t-108 -41.5z
" />
    <glyph glyph-name="Uumlaut" horiz-adv-x="762" 
d="M434 515q23 0 33.5 22t10.5 80q0 60 -10.5 82t-33.5 22q-22 0 -33 -22t-11 -82q0 -59 9.5 -80.5t34.5 -21.5zM327 515q23 0 33 22t10 80q0 60 -10 82t-33 22q-22 0 -32.5 -22t-10.5 -82q0 -59 9.5 -80.5t33.5 -21.5zM381 -17q158 0 245 84t87 271v379h-215v-374
q0 -92 -28 -128.5t-87 -36.5t-89.5 37.5t-30.5 127.5v374h-214v-379q0 -185 82 -270t250 -85z" />
    <glyph glyph-name="I.alt" horiz-adv-x="325" 
d="M267 0v717h-209v-717h209z" />
    <glyph glyph-name="Iacute.alt" horiz-adv-x="325" 
d="M58 0zM267 0v717h-209v-717h209zM88 786h145l192 206h-195z" />
    <glyph glyph-name="Ibreve.alt" horiz-adv-x="325" 
d="M0 0zM267 0v717h-209v-717h209zM163 783q110 0 163.5 54.5t53.5 158.5h-130q0 -48 -21 -69t-66 -22q-46 1 -66 22t-20 69h-129q0 -104 48.5 -158.5t166.5 -54.5z" />
    <glyph glyph-name="Icircumflex.alt" horiz-adv-x="325" 
d="M0 0zM267 0v717h-209v-717h209zM232 786h147l-149 219h-130l-150 -219h147l68 110z" />
    <glyph glyph-name="Idieresis.alt" horiz-adv-x="325" 
d="M0 0zM267 0v717h-209v-717h209zM279 783q50 0 71 19.5t21 68.5q0 52 -22 71.5t-70 19.5q-49 0 -70.5 -19.5t-21.5 -71.5q0 -51 19.5 -69.5t72.5 -18.5zM49 783q50 0 71 19.5t21 68.5q0 52 -21.5 71.5t-70.5 19.5t-70.5 -19.5t-21.5 -71.5q0 -51 20 -69.5t72 -18.5z" />
    <glyph glyph-name="Idotaccent.alt" horiz-adv-x="325" 
d="M55 0zM267 0v717h-209v-717h209zM164 782q58 0 83 21.5t25 80.5q0 62 -25.5 82.5t-82.5 20.5q-58 0 -83.5 -20.5t-25.5 -82.5q0 -41 9.5 -63t33.5 -31q12 -4 28.5 -6t37.5 -2z" />
    <glyph glyph-name="Igrave.alt" horiz-adv-x="325" 
d="M0 0zM267 0v717h-209v-717h209zM98 786h139l-132 206h-196z" />
    <glyph glyph-name="Imacron.alt" horiz-adv-x="325" 
d="M0 0zM267 0v717h-209v-717h209zM-8 790h347v130h-347v-130z" />
    <glyph glyph-name="Iogonek.alt" horiz-adv-x="325" 
d="M376 -117h-158q-5 -22 -18.5 -33t-34.5 -11q-20 0 -32 8.5t-12 25.5q0 14 10 28.5t41 37.5q16 11 39.5 26.5t54.5 34.5h1v717h-209v-717h1q-50 -37 -66.5 -70.5t-16.5 -67.5q0 -65 46 -100t134 -35t143 39t77 117z" />
    <glyph glyph-name="Itilde.alt" horiz-adv-x="325" 
d="M0 0zM267 0v717h-209v-717h209zM-72 784h116q1 28 8.5 40.5t26.5 12.5q25 0 50 -14.5t55 -28.5q16 -8 34 -11.5t39 -3.5q78 0 108.5 46.5t30.5 140.5h-117q0 -28 -8 -39.5t-29 -11.5q-22 0 -47 14t-57 28q-15 7 -33 10.5t-39 3.5q-76 0 -107 -47.5t-31 -139.5z" />
    <glyph glyph-name="i.dot" horiz-adv-x="315" 
d="M37 0zM159 615q62 0 92 22t30 74q0 54 -31.5 75.5t-90.5 21.5q-60 0 -91 -21.5t-31 -75.5t28 -75t94 -21zM52 0h212v577q-6 -4 -24.5 -7.5t-40.5 -5.5q-12 -1 -22 -1.5t-19 -0.5q-17 0 -40 1.5t-42 5.5q-9 1 -15 3.5t-9 4.5v-577z" />
    <glyph glyph-name="cordinal" horiz-adv-x="507" 
d="M253 313q110 0 171 46t65 137v2h-162v-1q-2 -26 -20 -39.5t-51 -13.5q-38 0 -55.5 19.5t-17.5 54.5v7q0 40 18.5 59.5t54.5 19.5q33 0 51 -13.5t20 -40.5v-1h162v1q-4 89 -66 136t-166 47q-106 0 -170 -54.5t-64 -154.5v-8q0 -98 56.5 -150.5t173.5 -52.5z" />
    <glyph glyph-name="g.alt" horiz-adv-x="685" 
d="M343 -247q179 0 263 56t84 156v1q0 86 -62 130.5t-199 44.5h-148q-59 0 -80.5 5.5t-21.5 20.5q0 11 8.5 17.5t33.5 9.5q13 1 31.5 2t43.5 1h57q151 0 228.5 48t77.5 146v2q0 73 -43.5 116.5t-130.5 57.5q75 1 113 6.5t52 22.5q6 9 9.5 22.5t3.5 31.5v8h-218v-13
q0 -25 -5.5 -36t-25.5 -14q-10 -1 -25.5 -2.5t-37.5 -2.5l-22 -1q-145 -4 -218.5 -55.5t-73.5 -142.5v-1q0 -61 29.5 -97.5t88.5 -55.5q-67 -14 -100.5 -47.5t-33.5 -81.5t30.5 -77t91.5 -39q-69 -13 -101 -42t-32 -71q0 -39 27 -67.5t93 -43.5q33 -7 79.5 -11t105.5 -4h28z
M348 323q-55 0 -82.5 15t-27.5 50v2q0 36 27 53.5t80 17.5h6q56 0 83.5 -16t27.5 -54v-2q0 -33 -28.5 -49.5t-85.5 -16.5zM333 -111q-71 0 -101 12.5t-30 34.5v1q0 24 26.5 36.5t79.5 13.5h107q59 0 78 -11t19 -30v-2q0 -23 -32.5 -39t-117.5 -16h-29z" />
    <glyph glyph-name="g.alt2" horiz-adv-x="732" 
d="M357 157q-58 0 -90 32t-32 96v8q0 69 31 103t92 34q57 0 90 -34.5t33 -103.5v-7q0 -61 -32.5 -94.5t-91.5 -33.5zM360 -242q167 0 243.5 64t76.5 176v582h-174l-17 -100q-25 52 -75.5 82t-124.5 30q-118 0 -189 -77t-71 -223v-11q0 -97 34 -159.5t92 -93.5
q29 -15 62 -22.5t69 -7.5q76 0 122.5 27t69.5 75v-112q0 -38 -25 -62.5t-86 -24.5q-55 0 -77 15t-30 45h-222q11 -69 44 -114t100 -67q33 -11 77.5 -16.5t100.5 -5.5z" />
    <glyph glyph-name="uni0123.alt" horiz-adv-x="732" 
d="M29 0zM357 157q-58 0 -90 32t-32 96v8q0 69 31 103t92 34q57 0 90 -34.5t33 -103.5v-7q0 -61 -32.5 -94.5t-91.5 -33.5zM360 -242q167 0 243.5 64t76.5 176v582h-174l-17 -100q-25 52 -75.5 82t-124.5 30q-118 0 -189 -77t-71 -223v-11q0 -97 34 -159.5t92 -93.5
q29 -15 62 -22.5t69 -7.5q76 0 122.5 27t69.5 75v-112q0 -38 -25 -62.5t-86 -24.5q-55 0 -77 15t-30 45h-222q11 -69 44 -114t100 -67q33 -11 77.5 -16.5t100.5 -5.5zM373 644q56 0 78.5 18.5t22.5 64.5q0 49 -19.5 63.5t-65.5 14.5q-6 0 -12 -0.5t-12 -1.5q6 28 27.5 41.5
t63.5 16.5v75q-101 -4 -142.5 -52.5t-41.5 -129.5q0 -64 22.5 -87t78.5 -23z" />
    <glyph glyph-name="gcircumflex.alt" horiz-adv-x="732" 
d="M29 0zM357 157q-58 0 -90 32t-32 96v8q0 69 31 103t92 34q57 0 90 -34.5t33 -103.5v-7q0 -61 -32.5 -94.5t-91.5 -33.5zM360 -242q167 0 243.5 64t76.5 176v582h-174l-17 -100q-25 52 -75.5 82t-124.5 30q-118 0 -189 -77t-71 -223v-11q0 -97 34 -159.5t92 -93.5
q29 -15 62 -22.5t69 -7.5q76 0 122.5 27t69.5 75v-112q0 -38 -25 -62.5t-86 -24.5q-55 0 -77 15t-30 45h-222q11 -69 44 -114t100 -67q33 -11 77.5 -16.5t100.5 -5.5zM442 651h147l-149 219h-130l-150 -219h147l68 110z" />
    <glyph glyph-name="gdotaccent.alt" horiz-adv-x="732" 
d="M29 0zM357 157q-58 0 -90 32t-32 96v8q0 69 31 103t92 34q57 0 90 -34.5t33 -103.5v-7q0 -61 -32.5 -94.5t-91.5 -33.5zM360 -242q167 0 243.5 64t76.5 176v582h-174l-17 -100q-25 52 -75.5 82t-124.5 30q-118 0 -189 -77t-71 -223v-11q0 -97 34 -159.5t92 -93.5
q29 -15 62 -22.5t69 -7.5q76 0 122.5 27t69.5 75v-112q0 -38 -25 -62.5t-86 -24.5q-55 0 -77 15t-30 45h-222q11 -69 44 -114t100 -67q33 -11 77.5 -16.5t100.5 -5.5zM376 644q58 0 83 21.5t25 80.5q0 62 -25.5 82.5t-82.5 20.5q-58 0 -83.5 -20.5t-25.5 -82.5
q0 -41 9.5 -63t33.5 -31q12 -4 28.5 -6t37.5 -2z" />
    <glyph glyph-name="gbreve.alt" horiz-adv-x="732" 
d="M29 0zM357 157q-58 0 -90 32t-32 96v8q0 69 31 103t92 34q57 0 90 -34.5t33 -103.5v-7q0 -61 -32.5 -94.5t-91.5 -33.5zM360 -242q167 0 243.5 64t76.5 176v582h-174l-17 -100q-25 52 -75.5 82t-124.5 30q-118 0 -189 -77t-71 -223v-11q0 -97 34 -159.5t92 -93.5
q29 -15 62 -22.5t69 -7.5q76 0 122.5 27t69.5 75v-112q0 -38 -25 -62.5t-86 -24.5q-55 0 -77 15t-30 45h-222q11 -69 44 -114t100 -67q33 -11 77.5 -16.5t100.5 -5.5zM375 644q110 0 163.5 54.5t53.5 158.5h-130q0 -48 -21 -69t-66 -22q-46 1 -66 22t-20 69h-129
q0 -104 48.5 -158.5t166.5 -54.5z" />
    <glyph glyph-name="caronSlovak" horiz-adv-x="587" 
d="M196 677h121l105 198h-166z" />
    <glyph glyph-name="altcedilla" horiz-adv-x="587" 
d="M296 -316q98 0 151 40t53 108q0 65 -44.5 102.5t-133.5 37.5h-97v-99h75q37 0 50.5 -12.5t13.5 -28.5q0 -21 -16 -31.5t-49 -10.5q-32 0 -50.5 11.5t-22.5 34.5h-156q17 -76 70 -114t156 -38z" />
    <glyph glyph-name="uni00200326" horiz-adv-x="589" 
d="M203 -315q104 4 145.5 47.5t41.5 117.5q0 57 -22.5 79t-79.5 22q-55 0 -78.5 -18t-23.5 -59q0 -44 20 -57t66 -13q8 0 15.5 0.5t14.5 2.5q-6 -25 -30.5 -38.5t-68.5 -16.5v-67z" />
    <glyph glyph-name="uni00200323" horiz-adv-x="589" 
d="M288 -277q59 0 85 21.5t26 82.5q0 62 -26 83t-85 21q-58 0 -84 -21t-26 -83q0 -42 10 -64.5t34 -31.5q12 -4 28.5 -6t37.5 -2z" />
    <glyph glyph-name="doublegrave" horiz-adv-x="587" 
d="M401 663h120l-108 206h-169zM200 663h119l-122 206h-173z" />
    <glyph glyph-name="invertedbreve" horiz-adv-x="587" 
d="M295 872q-110 0 -165 -55.5t-55 -154.5h132q0 47 21.5 68.5t65.5 22.5q45 -1 66 -22.5t21 -68.5h133q0 99 -53.5 154.5t-165.5 55.5z" />
    <glyph glyph-name="uni00200326.alt" horiz-adv-x="588" 
d="M289 660q56 0 78.5 18.5t22.5 64.5q0 49 -19.5 63.5t-65.5 14.5q-6 0 -12 -0.5t-12 -1.5q6 28 27.5 41.5t63.5 16.5v75q-101 -4 -142.5 -52.5t-41.5 -129.5q0 -64 22.5 -87t78.5 -23z" />
    <glyph glyph-name="exclamdown.cap" horiz-adv-x="364" 
d="M183 730q-66 0 -94 -23t-28 -85t29 -85t93 -23q65 0 94 23t29 85q0 63 -26 85.5t-97 22.5zM297 0v124q0 89 -8 161.5t-19 120.5q-6 24 -10.5 40t-8.5 23q-10 -2 -29 -3.5t-42 -1.5t-40.5 1.5t-30.5 3.5q-7 -14 -18 -63t-20 -122q-4 -36 -6 -76t-2 -84v-124h234z" />
    <glyph glyph-name="questiondown.cap" horiz-adv-x="727" 
d="M308 456l-3 -24q-5 -37 -38 -53.5t-80 -34.5q-35 -13 -65 -33t-48 -55q-9 -17 -13.5 -39.5t-4.5 -50.5q0 -63 33.5 -113.5t104.5 -79.5q35 -14 80.5 -21.5t101.5 -7.5q166 0 250 65t87 194v19h-209v-13q0 -46 -29.5 -70.5t-98.5 -24.5q-62 0 -86.5 18t-24.5 46
q0 31 28 45t73 27q36 11 67 27t50 44q10 14 14.5 32.5t4.5 41.5v8.5t-1 10.5q0 11 -1 23t-3 19q-11 -7 -34.5 -11t-60.5 -4t-59 4t-35 11zM402 688q-70 0 -98.5 -22t-28.5 -80t30 -79.5t97 -21.5q68 0 97 21.5t29 79.5q0 59 -26 80.5t-100 21.5z" />
    <glyph glyph-name="uni2E18.cap" horiz-adv-x="715" 
d="M354 729q-70 0 -98.5 -21.5t-28.5 -79.5t29.5 -80t97.5 -22t97 22t29 80q0 59 -26 80t-100 21zM355 -14q170 0 248.5 69t79.5 194v14h-185v-10q0 -44 -16.5 -71.5t-49.5 -38.5v26q0 107 -1.5 170t-3.5 96q-1 18 -2.5 31t-5.5 24q-10 -3 -26.5 -4.5t-38.5 -1.5t-36.5 1.5
t-27.5 3.5l-5 -32q-4 -27 -24 -43t-48 -27q-29 -11 -60 -23t-58 -31q-28 -19 -45 -51t-17 -83q0 -97 78 -155t244 -58zM217 214q0 24 10.5 37t27.5 22q8 5 17.5 10.5t19.5 11.5q-2 -29 -3.5 -61.5t-1.5 -64.5v-31q-37 8 -53.5 27t-16.5 49z" />
    <glyph glyph-name="guilsinglleft.cap" horiz-adv-x="454" 
d="M422 142l-179 221l161 216h-183l-158 -214v-20l165 -203h194z" />
    <glyph glyph-name="guilsinglright.cap" horiz-adv-x="454" 
d="M226 143l165 203v20l-158 214h-183l162 -216l-180 -221h194z" />
    <glyph glyph-name="guillemotleft.cap" horiz-adv-x="729" 
d="M695 143l-183 224l162 213h-172l-158 -210v-22l172 -205h179zM409 143l-176 219l165 218h-172l-163 -215v-19l166 -203h180z" />
    <glyph glyph-name="guillemotright.cap" horiz-adv-x="729" 
d="M214 143l172 205v22l-158 210h-173l162 -212l-182 -225h179zM500 143l166 203v19l-162 215h-173l165 -219l-176 -218h180z" />
    <glyph glyph-name="slash.cap" horiz-adv-x="445" 
d="M222 0l231 717h-228l-232 -717h229z" />
    <glyph glyph-name="backslash.cap" horiz-adv-x="445" 
d="M-9 717l240 -717h223l-240 717h-223z" />
    <glyph glyph-name="bar.cap" horiz-adv-x="335" 
d="M269 -103v935h-203v-935h203z" />
    <glyph glyph-name="uni2016.cap" horiz-adv-x="630" 
d="M564 -104v936h-190v-936h190zM257 -104v936h-191v-936h191z" />
    <glyph glyph-name="brokenbar.cap" horiz-adv-x="335" 
d="M66 410h203v422h-203v-422zM269 330h-203v-433h203v433z" />
    <glyph glyph-name="bullet.cap" horiz-adv-x="425" 
d="M212 137q69 0 101.5 29.5t32.5 102.5q0 76 -32.5 104t-101.5 28q-68 0 -100.5 -30t-32.5 -102q0 -73 30 -102.5t103 -29.5z" />
    <glyph glyph-name="onethirdemdash" horiz-adv-x="441" 
d="M399 403h-356v-195h356v195z" />
    <glyph glyph-name="threequarteremdash" horiz-adv-x="647" 
d="M605 403h-562v-195h562v195z" />
    <glyph glyph-name="periodcentered.cap" horiz-adv-x="351" 
d="M175 242q66 0 94.5 23.5t28.5 90.5q0 68 -29 91t-94 23t-93.5 -23t-28.5 -91q0 -46 11 -70.5t37 -34.5q14 -4 32.5 -6.5t41.5 -2.5z" />
    <glyph glyph-name="hyphen.cap" horiz-adv-x="574" 
d="M532 457h-489v-195h489v195z" />
    <glyph glyph-name="onethirdemdash.cap" horiz-adv-x="574" 
d="M532 457h-489v-195h489v195z" />
    <glyph glyph-name="endash.cap" horiz-adv-x="441" 
d="M399 457h-356v-195h356v195z" />
    <glyph glyph-name="threequarteremdash.cap" horiz-adv-x="533" 
d="M491 457h-448v-195h448v195z" />
    <glyph glyph-name="emdash.cap" horiz-adv-x="647" 
d="M605 457h-562v-195h562v195z" />
    <glyph glyph-name="figuredash.cap" horiz-adv-x="761" 
d="M719 457h-676v-195h676v195z" />
    <glyph glyph-name="uni2015.cap" horiz-adv-x="685" 
d="M643 457h-600v-195h600v195z" />
    <glyph glyph-name="periodcentered.smcp" horiz-adv-x="1125" 
d="M1083 457h-1040v-195h1040v195z" />
    <glyph glyph-name="parenleft.cap" horiz-adv-x="448" 
d="M429 -113v193q-59 3 -97.5 28.5t-57.5 79.5q-10 28 -14.5 64.5t-4.5 81.5v30q0 95 18.5 152.5t56.5 84.5q19 13 44 21t55 10v185q-119 -4 -206.5 -50.5t-135.5 -144.5q-23 -48 -35 -111.5t-12 -141.5v-45q0 -157 45.5 -251.5t132.5 -138.5q43 -22 96 -33.5t115 -13.5z
" />
    <glyph glyph-name="parenright.cap" horiz-adv-x="448" 
d="M19 -113q125 3 211.5 47t132.5 138q22 48 33.5 111t11.5 141v45q0 156 -47.5 253.5t-134.5 143.5q-44 24 -95.5 36.5t-111.5 14.5v-186q61 -3 99 -30.5t57 -84.5q9 -29 13.5 -67t4.5 -85v-30q0 -91 -19 -146t-57 -80q-20 -12 -44 -19t-54 -9v-193z" />
    <glyph glyph-name="bracketleft.cap" horiz-adv-x="443" 
d="M423 49h-162v607h162v158h-365v-924h365v159z" />
    <glyph glyph-name="bracketright.cap" horiz-adv-x="443" 
d="M386 -110v923h-365v-157h162v-607h-162v-159h365z" />
    <glyph glyph-name="braceleft.cap" horiz-adv-x="482" 
d="M464 -110v155h-65q-43 0 -62 13t-19 38q0 15 10 32.5t23 37.5t23 42t10 46q0 25 -13.5 46.5t-45.5 34.5q-16 6 -38 9.5t-50 3.5v18q57 0 88.5 12.5t43.5 33.5q7 11 10 23t3 25q0 23 -10.5 43.5t-23.5 38.5t-23.5 34t-10.5 29q0 27 20 40.5t64 13.5h66v155h-187
q-66 0 -104.5 -17.5t-55.5 -48.5q-8 -15 -12 -32.5t-4 -37.5q0 -28 10.5 -53.5t24.5 -47.5q13 -22 23.5 -41t10.5 -36q0 -27 -15.5 -40.5t-53.5 -13.5h-79v-178h88q35 0 52.5 -14t17.5 -42q0 -16 -12.5 -36.5t-28.5 -44.5t-28.5 -50.5t-12.5 -55.5q0 -40 16.5 -70.5
t54.5 -47.5q19 -8 45.5 -12.5t59.5 -4.5h190z" />
    <glyph glyph-name="braceright.cap" horiz-adv-x="482" 
d="M19 -110h189q99 0 137.5 37.5t38.5 96.5q0 29 -12 56t-28 51q-17 24 -29 45t-12 37q0 28 18 41.5t53 13.5h87v178h-82q-37 0 -52.5 13.5t-15.5 40.5q0 17 11 36t25 41t25 47.5t11 53.5q0 40 -16.5 70.5t-54.5 47.5q-19 9 -45.5 13.5t-59.5 4.5h-188v-155h66q44 0 64 -13
t20 -39q0 -14 -10.5 -30t-23.5 -34t-23.5 -38.5t-10.5 -44.5q0 -26 12.5 -47.5t44.5 -33.5q15 -7 37 -10t50 -3v-18q-56 0 -88 -13t-45 -34q-6 -10 -9.5 -21.5t-3.5 -24.5q0 -24 10 -46.5t23 -42.5t23 -37t10 -31q0 -27 -19 -40t-63 -13h-64v-155z" />
    <glyph glyph-name="anglebracketleft.cap" horiz-adv-x="413" 
d="M431 -110l-203 471l195 453h-208l-197 -457l197 -467h216z" />
    <glyph glyph-name="anglebracketright.cap" horiz-adv-x="413" 
d="M199 -110l197 467l-196 457h-209l195 -452l-204 -472h217z" />
    <glyph glyph-name="underscore" horiz-adv-x="715" 
d="M695 181h-676v-181h676v181z" />
    <glyph glyph-name="at.cap" horiz-adv-x="830" 
d="M417 -63q110 0 193.5 41.5t130.5 122.5l-147 22q-28 -34 -68 -51.5t-108 -17.5q-136 0 -201.5 75t-65.5 201v31q0 136 72.5 208t202.5 72q97 0 153 -30.5t80 -84.5q12 -27 18 -57.5t6 -64.5v-2q0 -79 -11.5 -108t-34.5 -29q-20 0 -28 16t-8 61v196h-86l-23 -57
q-13 29 -43 47t-71 18q-70 0 -113 -48t-43 -138v-27q0 -89 38.5 -136.5t114.5 -47.5q47 0 77.5 19t44.5 50q17 -32 50.5 -48.5t82.5 -16.5q86 0 130.5 61t44.5 191v2q0 98 -41.5 177.5t-125.5 126.5q-42 24 -94.5 35.5t-116.5 11.5q-118 0 -208 -46.5t-140 -133.5
q-25 -44 -37.5 -96.5t-12.5 -113.5v-47q0 -130 48.5 -215.5t135.5 -126.5q44 -21 95 -31.5t109 -10.5zM413 262q-31 0 -44.5 18.5t-13.5 55.5v21q0 39 15 58t44 19q28 0 41.5 -18.5t13.5 -55.5v-26q0 -34 -12.5 -53t-43.5 -19z" />
    <glyph glyph-name="registered.cap" horiz-adv-x="828" 
d="M415 -17q110 0 196.5 40t136.5 120q25 40 37.5 90t12.5 109v26q0 114 -50 195.5t-136 125.5q-44 22 -93 33t-104 11q-110 0 -197 -44.5t-138 -126.5q-25 -41 -37.5 -90t-12.5 -106v-24q0 -123 49.5 -202.5t136.5 -118.5q43 -19 93 -28.5t106 -9.5zM415 101
q-121 0 -190 61.5t-69 185.5v12q0 80 32 137t90 87q29 15 63 22.5t73 7.5q119 0 188.5 -65.5t69.5 -185.5v-15q0 -122 -68.5 -184.5t-188.5 -62.5zM422 448q29 0 41 -8.5t12 -27.5q0 -18 -12.5 -28t-41.5 -10h-56v74h57zM410 279q29 0 41 -8.5t12 -37.5v-44q0 -8 2 -13.5
t6 -8.5h121q-4 3 -6.5 8.5t-2.5 13.5v44q0 40 -11.5 61t-37.5 31q29 12 45 35t16 60q0 59 -38.5 91.5t-130.5 32.5h-176v-377h115v112h45z" />
    <glyph glyph-name="zero.inf" horiz-adv-x="393" 
d="M21 0zM195 -165q84 0 129.5 45t45.5 131v22q0 85 -47.5 131t-125.5 46q-81 0 -128.5 -46.5t-47.5 -130.5v-22q0 -86 44.5 -131t129.5 -45zM195 -51q-23 0 -35 16.5t-12 48.5v17q0 33 12 49t35 16q25 0 35.5 -16.5t10.5 -48.5v-17q0 -32 -11.5 -48.5t-34.5 -16.5z" />
    <glyph glyph-name="one.inf" horiz-adv-x="305" 
d="M18 0zM287 -156v110h-72v248h-98q-7 -29 -27.5 -47t-54.5 -20v-88h62v-93h-79v-110h269z" />
    <glyph glyph-name="two.inf" horiz-adv-x="369" 
d="M19 0zM345 -156v102h-191q15 10 39 17t50 16q27 9 51 23t39 36q7 10 11 24t4 31q0 53 -37.5 84.5t-121.5 31.5q-82 0 -124 -34.5t-43 -98.5v-10h124v7q0 17 9 27.5t33 10.5q22 0 30.5 -6.5t8.5 -17.5q0 -17 -21 -26.5t-52 -17.5t-62 -21.5t-52 -38.5q-10 -12 -15.5 -29
t-5.5 -38v-72h326z" />
    <glyph glyph-name="three.inf" horiz-adv-x="370" 
d="M13 0zM183 -164q86 0 128 30.5t42 82.5q0 35 -17.5 54t-46.5 26q28 8 42.5 26t14.5 49q0 45 -39 74.5t-120 29.5q-83 0 -125 -33t-42 -95v-6h120v3q0 15 10 23t34 8q21 0 29.5 -6t8.5 -17t-7.5 -17.5t-26.5 -6.5h-42v-77h43q22 0 30 -5t8 -16q0 -12 -9 -18.5t-34 -6.5
q-27 0 -36.5 8t-9.5 24v3h-125v-7q1 -67 38.5 -98.5t131.5 -31.5z" />
    <glyph glyph-name="four.inf" horiz-adv-x="377" 
d="M11 0zM204 -4h-68l68 74v-74zM369 -96v92h-56v206h-103l-199 -217v-81h193v-60h109v60h56z" />
    <glyph glyph-name="five.inf" horiz-adv-x="377" 
d="M20 0zM191 -163q90 0 130 35t40 95q0 57 -31.5 85.5t-94.5 28.5q-29 0 -51 -7t-39 -20l9 51h84q61 0 81.5 19.5t20.5 77.5h-283l-29 -202l117 -25l2 2q8 10 19.5 16.5t27.5 6.5q22 0 32.5 -8.5t10.5 -25.5q0 -15 -10.5 -25t-33.5 -10q-19 0 -28.5 7t-10.5 21v1h-134
q2 -61 42 -92t129 -31z" />
    <glyph glyph-name="six.inf" horiz-adv-x="391" 
d="M23 0zM369 -36q0 53 -31.5 78t-94.5 25q-33 0 -58 -10.5t-42 -32.5v11q0 38 14 57t42 19q19 0 27.5 -7t11.5 -18h127q-8 62 -49.5 93t-116.5 31q-83 0 -129.5 -46t-46.5 -132v-22q0 -83 42 -129t138 -46q77 0 121.5 34t44.5 95zM204 -64q-22 0 -36 9t-20 27q10 11 24 18
t35 7t31.5 -7t10.5 -22q0 -16 -11 -24t-34 -8z" />
    <glyph glyph-name="seven.inf" horiz-adv-x="332" 
d="M11 0zM178 -156q20 71 55.5 137.5t89.5 127.5v93h-312v-107h179q-43 -46 -85 -112.5t-68 -138.5h141z" />
    <glyph glyph-name="eight.inf" horiz-adv-x="387" 
d="M18 0zM191 -163q88 0 132 27t44 80q0 32 -16.5 52t-44.5 30q26 10 40 28.5t14 47.5q0 51 -44 79t-122 28q-79 0 -122 -28t-43 -79q0 -29 13 -48t38 -28q-28 -10 -45 -31t-17 -52q0 -54 41 -80t132 -26zM189 59q-21 0 -32 7t-11 20q0 14 12 21t36 7q26 0 37.5 -7t11.5 -21
q0 -13 -11.5 -20t-34.5 -7h-8zM193 -66q-26 0 -39.5 7t-13.5 21q0 15 12 22t36 7h9q25 0 37.5 -7t12.5 -21t-13.5 -21.5t-40.5 -7.5z" />
    <glyph glyph-name="nine.inf" horiz-adv-x="384" 
d="M15 0zM182 46q-22 0 -33.5 7.5t-11.5 22.5q0 17 12 25t35 8t37 -9.5t20 -29.5q-9 -10 -23 -17t-36 -7zM186 -166q88 0 132.5 45.5t44.5 130.5v23q0 85 -44 130t-134 45q-83 0 -126 -35t-43 -94q0 -53 35 -78t97 -25q33 0 57 10.5t40 31.5v-9q0 -38 -14.5 -57t-43.5 -19
q-19 0 -28 7t-11 18h-133q8 -62 51.5 -93t119.5 -31z" />
    <glyph glyph-name="plus.inf" horiz-adv-x="366" 
d="M39 0zM322 -32v104h-89v87h-105v-87h-89v-104h89v-87h105v87h89z" />
    <glyph glyph-name="minus.inf" horiz-adv-x="366" 
d="M39 0zM322 -36v112h-283v-112h283z" />
    <glyph glyph-name="equal.inf" horiz-adv-x="366" 
d="M49 0zM314 46v96h-265v-96h265zM314 -99v96h-265v-96h265z" />
    <glyph glyph-name="parenleft.inf" horiz-adv-x="288" 
d="M33 0zM33 3q0 -102 28 -163t80 -90q26 -15 56.5 -23.5t66.5 -10.5v135q-51 5 -78 38t-27 118v13q0 88 26.5 124.5t78.5 43.5v124q-70 -5 -122 -35.5t-81 -92.5q-14 -31 -21 -72t-7 -91v-18z" />
    <glyph glyph-name="parenright.inf" horiz-adv-x="288" 
d="M22 0zM22 -284q72 5 124 34t80 90q14 30 21 71t7 92v18q0 101 -28.5 163t-80.5 92q-26 15 -57 24t-66 12v-124q51 -7 78 -43.5t27 -124.5v-13q0 -85 -27 -118t-78 -38v-135z" />
    <glyph glyph-name="onesixteenth" horiz-adv-x="1330" 
d="M387 357v110h-73v248h-98q-7 -29 -27.5 -47t-54.5 -20v-88h63v-93h-80v-110h270zM579 398l335 239l-161 130l-221 -330zM441 349l-343 -252l163 -138l224 351zM1231 120q0 53 -31.5 78t-94.5 25q-33 0 -58 -10.5t-42 -32.5v11q0 38 14 57t42 19q19 0 27.5 -7t11.5 -18
h127q-8 62 -49.5 93t-116.5 31q-83 0 -129.5 -46t-46.5 -132v-22q0 -83 42 -129t138 -46q77 0 121.5 34t44.5 95zM1066 92q-22 0 -36 9t-20 27q10 11 24 18t35 7t31.5 -7t10.5 -22q0 -16 -11 -24t-34 -8zM841 1v110h-72v248h-98q-7 -29 -27.5 -47t-54.5 -20v-88h62v-93h-79
v-110h269z" />
    <glyph glyph-name="threesixteenths" horiz-adv-x="1330" 
d="M70 0zM240 349q86 0 128 30.5t42 82.5q0 35 -17.5 54t-46.5 26q28 8 42.5 26t14.5 49q0 45 -39 74.5t-120 29.5q-83 0 -125 -33t-42 -95v-6h120v3q0 15 10 23t34 8q21 0 29.5 -6t8.5 -17t-7.5 -17.5t-26.5 -6.5h-42v-77h43q22 0 30 -5t8 -16q0 -12 -9 -18.5t-34 -6.5
q-27 0 -36.5 8t-9.5 24v3h-125v-7q1 -67 38.5 -98.5t131.5 -31.5zM583 398l335 239l-161 130l-221 -330zM445 349l-343 -252l163 -138l224 351zM1231 120q0 53 -31.5 78t-94.5 25q-33 0 -58 -10.5t-42 -32.5v11q0 38 14 57t42 19q19 0 27.5 -7t11.5 -18h127q-8 62 -49.5 93
t-116.5 31q-83 0 -129.5 -46t-46.5 -132v-22q0 -83 42 -129t138 -46q77 0 121.5 34t44.5 95zM1066 92q-22 0 -36 9t-20 27q10 11 24 18t35 7t31.5 -7t10.5 -22q0 -16 -11 -24t-34 -8zM841 1v110h-72v248h-98q-7 -29 -27.5 -47t-54.5 -20v-88h62v-93h-79v-110h269z" />
    <glyph glyph-name="fivesixteenths" horiz-adv-x="1330" 
d="M73 0zM244 350q90 0 130 35t40 95q0 57 -31.5 85.5t-94.5 28.5q-29 0 -51 -7t-39 -20l9 51h84q61 0 81.5 19.5t20.5 77.5h-283l-29 -202l117 -25l2 2q8 10 19.5 16.5t27.5 6.5q22 0 32.5 -8.5t10.5 -25.5q0 -15 -10.5 -25t-33.5 -10q-19 0 -28.5 7t-10.5 21v1h-134
q2 -61 42 -92t129 -31zM583 398l335 239l-161 130l-221 -330zM445 349l-343 -252l163 -138l224 351zM1231 120q0 53 -31.5 78t-94.5 25q-33 0 -58 -10.5t-42 -32.5v11q0 38 14 57t42 19q19 0 27.5 -7t11.5 -18h127q-8 62 -49.5 93t-116.5 31q-83 0 -129.5 -46t-46.5 -132
v-22q0 -83 42 -129t138 -46q77 0 121.5 34t44.5 95zM1066 92q-22 0 -36 9t-20 27q10 11 24 18t35 7t31.5 -7t10.5 -22q0 -16 -11 -24t-34 -8zM841 1v110h-72v248h-98q-7 -29 -27.5 -47t-54.5 -20v-88h62v-93h-79v-110h269z" />
    <glyph glyph-name="sevensixteenths" horiz-adv-x="1330" 
d="M102 0zM311 357q20 71 55.5 137.5t89.5 127.5v93h-312v-107h179q-43 -46 -85 -112.5t-68 -138.5h141zM583 398l335 239l-161 130l-221 -330zM445 349l-343 -252l163 -138l224 351zM1231 120q0 53 -31.5 78t-94.5 25q-33 0 -58 -10.5t-42 -32.5v11q0 38 14 57t42 19
q19 0 27.5 -7t11.5 -18h127q-8 62 -49.5 93t-116.5 31q-83 0 -129.5 -46t-46.5 -132v-22q0 -83 42 -129t138 -46q77 0 121.5 34t44.5 95zM1066 92q-22 0 -36 9t-20 27q10 11 24 18t35 7t31.5 -7t10.5 -22q0 -16 -11 -24t-34 -8zM841 1v110h-72v248h-98q-7 -29 -27.5 -47
t-54.5 -20v-88h62v-93h-79v-110h269z" />
    <glyph glyph-name="ninesixteenths" horiz-adv-x="1330" 
d="M101 0zM268 559q-22 0 -33.5 7.5t-11.5 22.5q0 17 12 25t35 8t37 -9.5t20 -29.5q-9 -10 -23 -17t-36 -7zM272 347q88 0 132.5 45.5t44.5 130.5v23q0 85 -44 130t-134 45q-83 0 -126 -35t-43 -94q0 -53 35 -78t97 -25q33 0 57 10.5t40 31.5v-9q0 -38 -14.5 -57t-43.5 -19
q-19 0 -28 7t-11 18h-133q8 -62 51.5 -93t119.5 -31zM583 398l335 239l-161 130l-221 -330zM445 349l-343 -252l163 -138l224 351zM1231 120q0 53 -31.5 78t-94.5 25q-33 0 -58 -10.5t-42 -32.5v11q0 38 14 57t42 19q19 0 27.5 -7t11.5 -18h127q-8 62 -49.5 93t-116.5 31
q-83 0 -129.5 -46t-46.5 -132v-22q0 -83 42 -129t138 -46q77 0 121.5 34t44.5 95zM1066 92q-22 0 -36 9t-20 27q10 11 24 18t35 7t31.5 -7t10.5 -22q0 -16 -11 -24t-34 -8zM841 1v110h-72v248h-98q-7 -29 -27.5 -47t-54.5 -20v-88h62v-93h-79v-110h269z" />
    <glyph glyph-name="elevensixteenths" horiz-adv-x="1641" 
d="M387 357v109h-73v249h-98q-7 -30 -27.5 -48t-54.5 -20v-87h63v-94h-80v-109h270zM704 357v109h-73v249h-97q-7 -30 -28 -48t-55 -20v-87h63v-94h-79v-109h269zM896 398l335 239l-161 130l-221 -330zM758 349l-343 -252l163 -138l224 351zM1158 1v110h-72v248h-98
q-7 -29 -27.5 -47t-54.5 -20v-88h62v-93h-79v-110h269zM1548 120q0 53 -31.5 78t-94.5 25q-33 0 -58 -10.5t-42 -32.5v11q0 38 14 57t42 19q19 0 27.5 -7t11.5 -18h127q-8 62 -49.5 93t-116.5 31q-83 0 -129.5 -46t-46.5 -132v-22q0 -83 42 -129t138 -46q77 0 121.5 34
t44.5 95zM1383 92q-22 0 -36 9t-20 27q10 11 24 18t35 7t31.5 -7t10.5 -22q0 -16 -11 -24t-34 -8z" />
    <glyph glyph-name="thirteensixteenths" horiz-adv-x="1667" 
d="M384 355v109h-73v249h-97q-7 -30 -28 -48t-55 -20v-87h63v-94h-79v-109h269zM595 347q86 0 128 30.5t42 82.5q0 35 -17.5 54t-46.5 26q28 8 42.5 26t14.5 49q0 45 -39 74.5t-120 29.5q-83 0 -125 -33t-42 -95v-6h120v3q0 15 10 23t34 8q21 0 29.5 -6t8.5 -17t-7.5 -17.5
t-26.5 -6.5h-42v-77h43q22 0 30 -5t8 -16q0 -12 -9 -18.5t-34 -6.5q-27 0 -36.5 8t-9.5 24v3h-125v-7q1 -67 38.5 -98.5t131.5 -31.5zM1569 120q0 53 -31.5 78t-94.5 25q-33 0 -58 -10.5t-42 -32.5v11q0 38 14 57t42 19q19 0 27.5 -7t11.5 -18h127q-8 62 -49.5 93t-116.5 31
q-83 0 -129.5 -46t-46.5 -132v-22q0 -83 42 -129t138 -46q77 0 121.5 34t44.5 95zM1404 92q-22 0 -36 9t-20 27q10 11 24 18t35 7t31.5 -7t10.5 -22q0 -16 -11 -24t-34 -8zM1181 1v110h-72v248h-98q-7 -29 -27.5 -47t-54.5 -20v-88h62v-93h-79v-110h269zM921 398l335 239
l-161 130l-221 -330zM783 349l-343 -252l163 -138l224 351z" />
    <glyph glyph-name="fifteensixteenths" horiz-adv-x="1665" 
d="M384 357v109h-73v249h-97q-7 -30 -28 -48t-55 -20v-87h63v-94h-79v-109h269zM598 350q90 0 130 35t40 95q0 57 -31.5 85.5t-94.5 28.5q-29 0 -51 -7t-39 -20l9 51h84q61 0 81.5 19.5t20.5 77.5h-283l-29 -202l117 -25l2 2q8 10 19.5 16.5t27.5 6.5q22 0 32.5 -8.5
t10.5 -25.5q0 -15 -10.5 -25t-33.5 -10q-19 0 -28.5 7t-10.5 21v1h-134q2 -61 42 -92t129 -31zM1179 1v110h-72v248h-98q-7 -29 -27.5 -47t-54.5 -20v-88h62v-93h-79v-110h269zM1567 120q0 53 -31.5 78t-94.5 25q-33 0 -58 -10.5t-42 -32.5v11q0 38 14 57t42 19
q19 0 27.5 -7t11.5 -18h127q-8 62 -49.5 93t-116.5 31q-83 0 -129.5 -46t-46.5 -132v-22q0 -83 42 -129t138 -46q77 0 121.5 34t44.5 95zM1402 92q-22 0 -36 9t-20 27q10 11 24 18t35 7t31.5 -7t10.5 -22q0 -16 -11 -24t-34 -8zM919 398l335 239l-161 130l-221 -330z
M781 349l-343 -252l163 -138l224 351z" />
    <glyph glyph-name="mediumwhitecircle" horiz-adv-x="676" 
d="M338 -10q88 0 155.5 39t106.5 107q19 33 28.5 71.5t9.5 80.5q0 87 -39 154t-107 106q-34 19 -72.5 28.5t-81.5 9.5q-87 0 -154.5 -39t-106.5 -106q-20 -34 -29.5 -72t-9.5 -81q0 -86 38 -153.5t106 -106.5q34 -19 73 -28.5t83 -9.5zM338 151q-59 0 -94 39t-35 98
q0 60 35 99t94 39q58 0 94 -39t36 -99q0 -59 -36 -98t-94 -39z" />
    <glyph glyph-name="mediumblackcircle" horiz-adv-x="676" 
d="M338 -10q88 0 155.5 39t106.5 107q19 33 28.5 71.5t9.5 80.5q0 87 -39 154t-107 106q-34 19 -72.5 28.5t-81.5 9.5q-87 0 -154.5 -39t-106.5 -106q-20 -34 -29.5 -72t-9.5 -81q0 -86 38 -153.5t106 -106.5q34 -19 73 -28.5t83 -9.5z" />
    <glyph glyph-name="ballotboxwithx" horiz-adv-x="687" 
d="M57 0h573v574h-573v-574zM221 416h246v-257h-246v257zM399 182l47 48l-55 56l56 58l-48 47l-56 -57l-56 57l-48 -48l57 -57l-56 -57l48 -48l55 57z" />
    <glyph glyph-name=".ttfautohint" horiz-adv-x="391" 
d="M0 0z" />
    </font>
</defs>
</svg>
